<svg width="32" height="20" viewBox="0 0 32 20" fill="none" xmlns="http://www.w3.org/2000/svg">
<g clip-path="url(#clip0_1684_6501)">
<path d="M9.04374 6.92995C9.04374 7.322 9.08612 7.63988 9.1603 7.87299C9.24506 8.10611 9.35102 8.36041 9.49937 8.63591C9.55235 8.72068 9.57354 8.80544 9.57354 8.87962C9.57354 8.98558 9.50996 9.09154 9.37222 9.1975L8.70467 9.64253C8.6093 9.70611 8.51394 9.7379 8.42917 9.7379C8.32321 9.7379 8.21725 9.68491 8.11129 9.58955C7.96294 9.43061 7.83579 9.26107 7.72983 9.09154C7.62387 8.9114 7.51791 8.71008 7.40136 8.46637C6.57487 9.44121 5.53645 9.92862 4.28612 9.92862C3.39606 9.92862 2.68612 9.67432 2.16692 9.16571C1.64771 8.6571 1.38281 7.97895 1.38281 7.13127C1.38281 6.23061 1.70069 5.49948 2.34705 4.94849C2.99341 4.3975 3.85169 4.122 4.94308 4.122C5.30334 4.122 5.6742 4.15379 6.06626 4.20677C6.45831 4.25975 6.86096 4.34452 7.2848 4.43988V3.66637C7.2848 2.86107 7.11526 2.29948 6.78679 1.97101C6.44771 1.64253 5.87553 1.48359 5.05963 1.48359C4.68877 1.48359 4.30732 1.52597 3.91526 1.62134C3.52321 1.7167 3.14175 1.83326 2.77089 1.9816C2.60136 2.05578 2.4742 2.09816 2.40003 2.11935C2.32586 2.14054 2.27288 2.15114 2.23049 2.15114C2.08215 2.15114 2.00798 2.04518 2.00798 1.82266V1.30346C2.00798 1.13392 2.02917 1.00677 2.08215 0.932596C2.13513 0.858424 2.23049 0.784252 2.37884 0.71008C2.7497 0.519351 3.19473 0.360411 3.71394 0.233259C4.23314 0.0955104 4.78414 0.0319342 5.36692 0.0319342C6.62785 0.0319342 7.5497 0.318027 8.14308 0.890212C8.72586 1.4624 9.02255 2.33127 9.02255 3.49683V6.92995H9.04374ZM4.74175 8.54054C5.09142 8.54054 5.45169 8.47697 5.83314 8.34982C6.2146 8.22266 6.55367 7.98955 6.83977 7.67167C7.0093 7.47035 7.13646 7.24783 7.20003 6.99352C7.26361 6.73922 7.30599 6.43193 7.30599 6.07167V5.62664C6.99871 5.55246 6.67023 5.48889 6.33116 5.4465C5.99208 5.40412 5.66361 5.38293 5.33513 5.38293C4.6252 5.38293 4.10599 5.52068 3.75632 5.80677C3.40665 6.09286 3.23712 6.49551 3.23712 7.02531C3.23712 7.52333 3.36427 7.89419 3.62917 8.14849C3.88347 8.41339 4.25434 8.54054 4.74175 8.54054ZM13.2504 9.68491C13.0596 9.68491 12.9325 9.65313 12.8477 9.57895C12.7629 9.51538 12.6888 9.36703 12.6252 9.16571L10.1351 0.974981C10.0716 0.76306 10.0398 0.625312 10.0398 0.55114C10.0398 0.381603 10.1245 0.286239 10.2941 0.286239H11.3325C11.5338 0.286239 11.6716 0.318027 11.7457 0.392199C11.8305 0.455775 11.8941 0.60412 11.9576 0.805444L13.7378 7.82001L15.3908 0.805444C15.4437 0.593524 15.5073 0.455775 15.5921 0.392199C15.6769 0.328623 15.8252 0.286239 16.0159 0.286239H16.8636C17.0649 0.286239 17.2027 0.318027 17.2874 0.392199C17.3722 0.455775 17.4464 0.60412 17.4888 0.805444L19.1629 7.90478L20.9961 0.805444C21.0596 0.593524 21.1338 0.455775 21.208 0.392199C21.2927 0.328623 21.4305 0.286239 21.6212 0.286239H22.6067C22.7762 0.286239 22.8716 0.371007 22.8716 0.55114C22.8716 0.60412 22.861 0.6571 22.8504 0.720676C22.8398 0.784252 22.8186 0.86902 22.7762 0.985577L20.2225 9.1763C20.159 9.38823 20.0848 9.52597 20 9.58955C19.9153 9.65313 19.7775 9.69551 19.5974 9.69551H18.6861C18.4848 9.69551 18.347 9.66372 18.2623 9.58955C18.1775 9.51538 18.1033 9.37763 18.061 9.16571L16.4186 2.33127L14.7868 9.15511C14.7338 9.36703 14.6702 9.50478 14.5855 9.57895C14.5007 9.65313 14.3523 9.68491 14.1616 9.68491H13.2504ZM26.8663 9.97101C26.3153 9.97101 25.7643 9.90743 25.2345 9.78028C24.7047 9.65313 24.2914 9.51538 24.0159 9.35644C23.8464 9.26107 23.7298 9.15511 23.6874 9.05975C23.6451 8.96439 23.6239 8.85842 23.6239 8.76306V8.22266C23.6239 8.00015 23.7086 7.89419 23.8676 7.89419C23.9312 7.89419 23.9947 7.90478 24.0583 7.92597C24.1219 7.94717 24.2172 7.98955 24.3232 8.03193C24.6835 8.19088 25.0755 8.31803 25.4888 8.4028C25.9126 8.48756 26.3259 8.52995 26.7497 8.52995C27.4172 8.52995 27.9365 8.41339 28.2967 8.18028C28.657 7.94717 28.8477 7.60809 28.8477 7.17366C28.8477 6.87697 28.7523 6.63326 28.5616 6.43193C28.3709 6.23061 28.0106 6.05048 27.4914 5.88094L25.955 5.40412C25.1815 5.16041 24.6093 4.80015 24.2596 4.32333C23.91 3.8571 23.7298 3.33789 23.7298 2.7869C23.7298 2.34187 23.8252 1.94982 24.0159 1.61074C24.2067 1.27167 24.461 0.974981 24.7788 0.741868C25.0967 0.498159 25.457 0.318027 25.8808 0.190875C26.3047 0.0637223 26.7497 0.0107422 27.2159 0.0107422C27.449 0.0107422 27.6927 0.0213382 27.9259 0.0531263C28.1696 0.0849144 28.3921 0.127298 28.6146 0.169683C28.8265 0.222663 29.0278 0.275643 29.2186 0.339219C29.4093 0.402795 29.5576 0.466371 29.6636 0.529948C29.812 0.614716 29.9179 0.699484 29.9815 0.794848C30.0451 0.879616 30.0769 0.996173 30.0769 1.14452V1.64253C30.0769 1.86505 29.9921 1.9816 29.8331 1.9816C29.7484 1.9816 29.6106 1.93922 29.4305 1.85445C28.8265 1.57895 28.1484 1.44121 27.3961 1.44121C26.7921 1.44121 26.3153 1.53657 25.9868 1.73789C25.6583 1.93922 25.4888 2.2465 25.4888 2.68094C25.4888 2.97763 25.5947 3.23193 25.8067 3.43326C26.0186 3.63458 26.4106 3.83591 26.9722 4.01604L28.4769 4.49286C29.2398 4.73657 29.7908 5.07564 30.1192 5.51008C30.4477 5.94452 30.6067 6.44253 30.6067 6.99352C30.6067 7.44915 30.5113 7.8624 30.3312 8.22266C30.1404 8.58293 29.8861 8.90081 29.5576 9.15511C29.2292 9.42001 28.8371 9.61074 28.3815 9.74849C27.9047 9.89684 27.4067 9.97101 26.8663 9.97101Z" fill="white"/>
<path d="M28.8737 15.1206C25.3876 17.6955 20.3227 19.0623 15.9677 19.0623C9.86443 19.0623 4.3651 16.8054 0.211453 13.0544C-0.117023 12.7577 0.179665 12.3551 0.571718 12.5882C5.06443 15.1948 10.6062 16.7736 16.3386 16.7736C20.2062 16.7736 24.4552 15.9683 28.3651 14.3153C28.9479 14.0504 29.4459 14.6968 28.8737 15.1206Z" fill="white"/>
<path d="M30.3279 13.4678C29.8829 12.8956 27.3822 13.1923 26.2484 13.3301C25.9094 13.3724 25.8564 13.0758 26.1637 12.8532C28.1557 11.4546 31.4299 11.8572 31.8114 12.3234C32.1928 12.8003 31.7054 16.0744 29.8405 17.6426C29.5544 17.8864 29.2789 17.7592 29.4061 17.4413C29.8299 16.3923 30.773 14.0294 30.3279 13.4678Z" fill="white"/>
</g>
<defs>
<clipPath id="clip0_1684_6501">
<rect width="32" height="19.0728" fill="white"/>
</clipPath>
</defs>
</svg>
