<svg width="26" height="22" viewBox="0 0 26 22" fill="none" xmlns="http://www.w3.org/2000/svg">
<path d="M24 0H2C1.46957 0 0.960859 0.210714 0.585786 0.585786C0.210714 0.960859 0 1.46957 0 2V20C0 20.5304 0.210714 21.0391 0.585786 21.4142C0.960859 21.7893 1.46957 22 2 22H24C24.5304 22 25.0391 21.7893 25.4142 21.4142C25.7893 21.0391 26 20.5304 26 20V2C26 1.46957 25.7893 0.960859 25.4142 0.585786C25.0391 0.210714 24.5304 0 24 0ZM6.7075 16.7075C6.51986 16.8951 6.26536 17.0006 6 17.0006C5.73464 17.0006 5.48014 16.8951 5.2925 16.7075C5.10486 16.5199 4.99944 16.2654 4.99944 16C4.99944 15.7346 5.10486 15.4801 5.2925 15.2925L9.58625 11L5.2925 6.7075C5.10486 6.51986 4.99944 6.26536 4.99944 6C4.99944 5.73464 5.10486 5.48014 5.2925 5.2925C5.48014 5.10486 5.73464 4.99944 6 4.99944C6.26536 4.99944 6.51986 5.10486 6.7075 5.2925L11.7075 10.2925C11.8005 10.3854 11.8742 10.4957 11.9246 10.6171C11.9749 10.7385 12.0008 10.8686 12.0008 11C12.0008 11.1314 11.9749 11.2615 11.9246 11.3829C11.8742 11.5043 11.8005 11.6146 11.7075 11.7075L6.7075 16.7075ZM21 17H13C12.7348 17 12.4804 16.8946 12.2929 16.7071C12.1054 16.5196 12 16.2652 12 16C12 15.7348 12.1054 15.4804 12.2929 15.2929C12.4804 15.1054 12.7348 15 13 15H21C21.2652 15 21.5196 15.1054 21.7071 15.2929C21.8946 15.4804 22 15.7348 22 16C22 16.2652 21.8946 16.5196 21.7071 16.7071C21.5196 16.8946 21.2652 17 21 17Z" fill="white"/>
</svg>
