<svg width="24" height="24" viewBox="4.7 4.8 14.4 14.4" fill="none"
  xmlns="http://www.w3.org/2000/svg">
  <path d="M6.36127 4.80038C5.37727 4.80038 4.72852 5.47238 4.72852 6.36038C4.72852 7.22438 5.35289 7.91963 6.31289 7.91963C7.34489 7.91963 7.99289 7.22438 7.96889 6.36038C7.96889 5.47238 7.34527 4.80038 6.36127 4.80038ZM15.5765 8.92838C13.9205 8.92838 12.9129 9.88801 12.5049 10.56H12.4573L12.3129 9.14438H9.64927C9.67327 10.0564 9.72089 11.1124 9.72089 12.3604V19.1996H12.7925V13.4156C12.7925 13.1276 12.8165 12.84 12.8885 12.624C13.1285 12.048 13.6329 11.4476 14.4729 11.4476C15.6009 11.4476 16.0329 12.336 16.0329 13.632V19.1996H19.1289V13.2724C19.1289 10.2964 17.5925 8.92838 15.5765 8.92838ZM4.80127 9.14438V19.1996H7.87289V9.14438H4.80127Z" fill="white"/>
</svg>
