<svg width="31" height="31" viewBox="0 0 31 31" fill="none" xmlns="http://www.w3.org/2000/svg">
<path fill-rule="evenodd" clip-rule="evenodd" d="M18.0569 0C17.8351 0 17.6292 0.0477398 17.4392 0.111352C17.8431 0.381674 18.0648 0.739478 18.1757 1.1449C18.1837 1.20064 18.1995 1.24038 18.2074 1.29599C18.2153 1.34373 18.2233 1.39147 18.2233 1.43921C18.2549 2.13883 18.041 2.22631 17.8905 2.63973C17.6609 3.17249 17.7242 3.74488 18.0015 4.20604C18.0252 4.26178 18.0569 4.32539 18.0966 4.38101C17.7956 2.3694 19.4666 2.06734 19.7755 1.43909C19.7993 0.890572 19.3478 0.524894 18.9915 0.270444C18.6508 0.0637351 18.3419 0 18.0569 0ZM20.5754 0.453284C20.5436 0.636123 20.5675 0.588383 20.5595 0.683863C20.5517 0.747475 20.5517 0.82696 20.5437 0.890572C20.5279 0.954184 20.5121 1.0178 20.4883 1.08129C20.4724 1.14502 20.4487 1.20863 20.4249 1.27225C20.3932 1.33586 20.3695 1.39147 20.3379 1.45509C20.314 1.48683 20.2982 1.5187 20.2744 1.55044L20.2269 1.62205C20.1873 1.67767 20.1477 1.7334 20.1081 1.78102C20.0606 1.82876 20.0211 1.88438 19.9656 1.92412V1.93212C19.918 1.97186 19.8706 2.0196 19.8151 2.05934C19.6488 2.18657 19.4587 2.28205 19.2844 2.40127C19.229 2.44101 19.1736 2.47276 19.1261 2.5205C19.0707 2.56024 19.0231 2.59998 18.9757 2.64772C18.9202 2.69546 18.8806 2.74308 18.833 2.79882C18.7934 2.84644 18.746 2.90217 18.7143 2.95779C18.6747 3.0134 18.6351 3.06914 18.6033 3.12475C18.5717 3.18837 18.5479 3.2441 18.5163 3.30759C18.4925 3.37121 18.4688 3.42694 18.453 3.49056C18.4318 3.55602 18.4133 3.62231 18.3974 3.68927C18.3896 3.72114 18.3896 3.76088 18.3816 3.79262C18.3737 3.82449 18.3737 3.85623 18.3658 3.8881C18.3658 3.95159 18.3579 4.0232 18.3579 4.08681C18.3579 4.13455 18.3579 4.18217 18.3658 4.22991C18.3658 4.29352 18.3738 4.35714 18.3896 4.42875C18.3976 4.49236 18.4134 4.55597 18.4292 4.61946C18.453 4.68319 18.4688 4.74668 18.4925 4.8103C18.5085 4.85016 18.5321 4.8899 18.5479 4.92165L16.7265 4.21404C16.4176 4.12668 16.1166 4.04707 15.8078 3.97546L15.3088 3.85623C14.8322 3.7608 14.3512 3.68914 13.8675 3.64153C13.8516 3.64153 13.8436 3.63365 13.8278 3.63365C13.3527 3.58591 12.8854 3.56204 12.4102 3.56204C12.0618 3.56204 11.7133 3.57804 11.3727 3.60179C10.8896 3.63365 10.4065 3.69727 9.92347 3.77675C9.80459 3.79262 9.68571 3.81649 9.56707 3.84036C9.32146 3.88798 9.08395 3.94372 8.85427 3.99933L8.49787 4.09481C8.37899 4.14243 8.26819 4.19817 8.15728 4.24578L7.89598 4.36513C7.88005 4.37301 7.86424 4.37301 7.8564 4.38101C7.77722 4.42075 7.70589 4.45249 7.63456 4.49223C7.61091 4.50023 7.59498 4.50823 7.57917 4.51611C7.49215 4.55585 7.40501 4.60359 7.33368 4.64333C7.27828 4.6672 7.22276 4.69907 7.17533 4.72281C7.15156 4.73881 7.11982 4.75468 7.10401 4.76268C7.03268 4.80242 6.96147 4.84216 6.89811 4.88191C6.82678 4.92165 6.76341 4.96139 6.70802 5.00126C6.65262 5.04088 6.5971 5.07262 6.54967 5.11249C6.5417 5.12036 6.53374 5.12036 6.52589 5.12836C6.47834 5.1601 6.42295 5.19984 6.37539 5.23971L6.35946 5.25558L6.24082 5.35094C6.22489 5.35894 6.20896 5.37481 6.19327 5.38281C6.15368 5.41455 6.1141 5.45429 6.07439 5.48616C6.06654 5.50203 6.05073 5.51003 6.04277 5.51791C5.99521 5.56565 5.94778 5.60539 5.90023 5.65313C5.89226 5.65313 5.89227 5.66113 5.8843 5.66912C5.83687 5.70874 5.78932 5.75648 5.74176 5.80422C5.73392 5.8121 5.73392 5.8201 5.72595 5.8201C5.68441 5.86062 5.64478 5.90308 5.60719 5.94732C5.59126 5.96319 5.56761 5.97906 5.5518 5.99494C5.51221 6.04268 5.46466 6.09042 5.4171 6.13816C5.40914 6.15403 5.39333 6.1619 5.38548 6.1779C5.32212 6.24151 5.2666 6.30512 5.20324 6.36861L5.17959 6.39248C5.05286 6.52771 4.91817 6.66281 4.77563 6.78216C4.63521 6.90795 4.48707 7.02478 4.33209 7.13196C4.1785 7.24007 4.01994 7.34087 3.85693 7.43403C3.69529 7.5231 3.52871 7.60279 3.35799 7.67273C3.18956 7.74455 3.01777 7.80819 2.84324 7.86344C2.51062 7.93505 2.17003 8.07015 1.87699 8.09402C1.81363 8.09402 1.74242 8.11001 1.67906 8.11789C1.60773 8.13376 1.54436 8.14963 1.481 8.16563L1.29104 8.23712C1.22755 8.26099 1.16419 8.29273 1.10082 8.32448C1.04543 8.36434 0.982065 8.39609 0.926668 8.43595C0.871149 8.47569 0.815752 8.52331 0.768199 8.57105C0.712803 8.61079 0.657406 8.66653 0.609853 8.71415C0.5623 8.76989 0.51487 8.8175 0.475161 8.87324C0.435574 8.93685 0.388144 8.99247 0.356401 9.05608C0.316815 9.11169 0.277228 9.17543 0.245608 9.23892C0.213743 9.31053 0.182245 9.37414 0.158469 9.44563C0.133469 9.5141 0.109689 9.58301 0.0871394 9.65234C0.0713293 9.71595 0.0555192 9.77956 0.0475529 9.84317C0.0475529 9.85117 0.0395865 9.85917 0.0395865 9.86704C0.0237764 9.93865 0.0237765 10.034 0.0158101 10.0817C0.00796635 10.1374 0 10.1851 0 10.2407C0 10.2726 7.30508e-09 10.3123 0.00796634 10.3441C0.0159327 10.3998 0.023899 10.4474 0.0397091 10.4952C0.0555192 10.5429 0.0713293 10.5905 0.0951057 10.6383V10.6463C0.118882 10.694 0.150502 10.7416 0.182123 10.7894C0.213988 10.8371 0.245608 10.8848 0.285072 10.9325C0.324781 10.9722 0.372334 11.0199 0.419887 11.0597C0.467317 11.1074 0.51487 11.147 0.570267 11.1869C0.760356 11.3539 0.807908 11.4096 1.05339 11.5367C1.09298 11.5606 1.13257 11.5765 1.18012 11.6003C1.18809 11.6003 1.19593 11.6083 1.2039 11.6083C1.2039 11.6243 1.2039 11.6322 1.21174 11.6481C1.21971 11.7117 1.23552 11.7753 1.25145 11.8389C1.26653 11.9043 1.2877 11.9682 1.31469 12.0296C1.33847 12.0775 1.3544 12.1251 1.37805 12.1728C1.38602 12.1888 1.39399 12.2047 1.40183 12.2126C1.43357 12.2762 1.46519 12.3319 1.49693 12.3875L1.61569 12.5545C1.65528 12.6021 1.70271 12.6579 1.75039 12.7055C1.79782 12.7532 1.84537 12.793 1.90077 12.8407C1.90077 12.8407 1.90873 12.8487 1.9167 12.8487C1.96413 12.8884 2.01168 12.9282 2.05924 12.9599C2.11463 12.9998 2.17003 13.0315 2.23339 13.0633C2.28891 13.0953 2.35227 13.1269 2.41564 13.1508C2.46307 13.1746 2.51859 13.1905 2.57398 13.2065C2.58195 13.2145 2.58979 13.2145 2.6056 13.2224C2.63747 13.2304 2.67693 13.2383 2.70855 13.2462C2.6849 13.6757 2.67693 14.0811 2.74042 14.2242C2.8115 14.3831 3.16006 13.8981 3.50849 13.3416C3.46094 13.8902 3.42932 14.5342 3.50849 14.7251C3.59563 14.9238 4.07079 14.3037 4.48259 13.6199C10.0978 12.3159 15.2218 16.2119 15.7603 21.7139C15.6574 20.8551 14.604 20.3781 14.1209 20.4974C13.8834 21.0858 13.4794 21.841 12.83 22.3102C12.8867 21.7792 12.86 21.2426 12.7508 20.72C12.5766 21.4515 12.236 22.1352 11.7687 22.7236C11.0165 22.7794 10.2641 22.4136 9.86808 21.8649C9.83633 21.841 9.82849 21.7934 9.80471 21.7616C9.78094 21.7059 9.75716 21.6503 9.74135 21.5946C9.71825 21.5413 9.70226 21.4851 9.6938 21.4276C9.68583 21.372 9.68583 21.3164 9.68583 21.2528V21.1334C9.6938 21.0778 9.70961 21.0222 9.72542 20.9665C9.74135 20.9109 9.75716 20.8552 9.78094 20.7995C9.81256 20.7439 9.83633 20.6883 9.87592 20.6325C10.0106 20.251 10.0106 19.9408 9.76513 19.758C9.71757 19.7268 9.66717 19.7001 9.61463 19.6785C9.58288 19.6705 9.5433 19.6546 9.51168 19.6466C9.4879 19.6387 9.47209 19.6307 9.44831 19.6227C9.39279 19.6069 9.3374 19.591 9.282 19.583C9.22794 19.5673 9.17196 19.5593 9.11569 19.5592C9.06017 19.5512 8.99681 19.5432 8.94141 19.5432C8.90182 19.5432 8.86224 19.5512 8.82253 19.5512C8.75929 19.5512 8.70389 19.5592 8.64849 19.5751C8.59297 19.5831 8.53758 19.5911 8.48206 19.607C8.42666 19.6229 8.37114 19.6387 8.31575 19.6626C8.26035 19.6865 8.2128 19.7103 8.1574 19.7341C8.10985 19.758 8.06229 19.7898 8.0069 19.8137C6.16165 21.0222 7.26247 23.8526 8.52165 24.6716C8.04648 24.7591 7.56336 24.8624 7.42879 24.9658L7.41285 24.9818C7.75357 25.1885 8.10985 25.3633 8.48206 25.5144C8.98896 25.6814 9.52749 25.8325 9.76513 25.8961V25.904C10.4213 26.0391 11.0923 26.0872 11.7609 26.0471C15.2692 25.8006 18.1441 23.1212 18.6668 19.5911C18.6828 19.6625 18.6986 19.7262 18.7144 19.7978C18.7382 19.9409 18.7698 20.0919 18.7856 20.243V20.251C18.8015 20.3225 18.8094 20.3941 18.8173 20.4577V20.4896C18.8253 20.561 18.8333 20.6327 18.8333 20.6963C18.8411 20.7836 18.8489 20.8711 18.8489 20.9586V21.0858C18.8489 21.1256 18.8569 21.1732 18.8569 21.213C18.8569 21.2608 18.8489 21.3084 18.8489 21.3561V21.4675C18.8489 21.5231 18.841 21.5708 18.841 21.6265C18.841 21.6583 18.841 21.6901 18.8331 21.7298C18.8331 21.7856 18.8252 21.8412 18.8252 21.9048C18.8172 21.9286 18.8172 21.9525 18.8172 21.9763C18.8094 22.0399 18.8014 22.0956 18.7934 22.1592C18.7934 22.1831 18.7934 22.2068 18.7856 22.2307C18.7776 22.3102 18.7618 22.3818 18.7538 22.4613V22.4773C18.738 22.5488 18.7222 22.6283 18.7063 22.7V22.7237L18.6589 22.9384C18.6589 22.9463 18.6509 22.9623 18.6509 22.9702C18.635 23.0418 18.6192 23.1133 18.5955 23.1849V23.2088C18.5717 23.2883 18.5479 23.3599 18.5321 23.4315C18.5242 23.4394 18.5242 23.4472 18.5242 23.4472L18.4528 23.6858C18.4212 23.7653 18.3974 23.8369 18.3658 23.9164C18.3341 23.9959 18.3103 24.0754 18.2787 24.147C18.2469 24.2264 18.2153 24.2981 18.1836 24.3775H18.1757C18.1439 24.449 18.1124 24.5286 18.0728 24.6002C18.0648 24.624 18.0569 24.6399 18.049 24.6557C18.041 24.6637 18.041 24.6717 18.0331 24.6796C17.5183 25.7211 16.7581 26.6356 15.8076 27.3512C15.7443 27.3909 15.6809 27.4386 15.6177 27.4863C15.6018 27.5023 15.578 27.5102 15.5622 27.526C15.5068 27.5658 15.4512 27.6055 15.388 27.6454L15.4117 27.693H15.4196L15.7523 27.6453H15.7602C15.9661 27.6135 16.172 27.5738 16.3779 27.534C16.4333 27.526 16.4968 27.5102 16.5522 27.4943C16.5918 27.4863 16.6234 27.4783 16.663 27.4704C16.7185 27.4624 16.7739 27.4466 16.8293 27.4386C16.8769 27.4227 16.9244 27.4147 16.972 27.3988C17.7639 27.2081 18.5321 26.9457 19.2687 26.6356C18.0094 28.3609 16.3224 29.7522 14.3504 30.6667C15.2613 30.6031 16.172 30.452 17.0511 30.1975C20.2428 29.2513 22.9276 27.0968 24.5352 24.1946C24.2089 26.0354 23.4814 27.7812 22.4049 29.3069C23.1724 28.7987 23.8815 28.2067 24.5194 27.5419C26.2934 25.6815 27.4576 23.32 27.8536 20.7838C28.1237 22.042 28.2012 23.3343 28.0833 24.616C33.8013 16.6095 28.5584 8.30873 26.3646 6.12228C26.3568 6.10641 26.3488 6.09841 26.3488 6.08254C26.341 6.09054 26.341 6.09054 26.341 6.09854C26.341 6.09042 26.341 6.09042 26.333 6.08254C26.333 6.1779 26.325 6.27326 26.3171 6.36874C26.2934 6.5517 26.2696 6.72654 26.2379 6.9015C26.1983 7.07635 26.1509 7.25131 26.1033 7.42628C26.047 7.59841 25.9836 7.76814 25.9134 7.93505C25.8405 8.09981 25.7612 8.26162 25.6756 8.42008C25.5886 8.57117 25.4935 8.73014 25.3905 8.87324C25.2887 9.02113 25.1803 9.16441 25.0658 9.30265C24.947 9.44575 24.8204 9.57298 24.6937 9.70008C24.6191 9.76862 24.5425 9.83493 24.464 9.89891C24.4006 9.95465 24.3451 10.0023 24.2817 10.058C24.1392 10.1692 23.9967 10.2727 23.8383 10.3681C23.6878 10.4634 23.5295 10.5588 23.371 10.6384C23.2047 10.7179 23.0384 10.7895 22.8722 10.8611C22.7058 10.9246 22.5315 10.9803 22.3573 11.0279C22.1822 11.0753 22.0051 11.1151 21.8266 11.1473C21.6445 11.179 21.4624 11.1949 21.2881 11.2109C21.1614 11.2188 21.0347 11.2268 20.9079 11.2268C20.7258 11.2268 20.5437 11.2108 20.3694 11.1949C20.1873 11.179 20.0052 11.1552 19.8309 11.1154C19.6488 11.0836 19.4745 11.0359 19.3002 10.9802H19.2924C19.4666 10.9643 19.6408 10.9485 19.8151 10.9167C19.9938 10.8854 20.1708 10.8455 20.3458 10.7974C20.5199 10.7501 20.6917 10.6944 20.8605 10.6304C21.0347 10.5668 21.201 10.4873 21.3593 10.4077C21.5258 10.3283 21.6763 10.2408 21.8346 10.1454C21.9851 10.042 22.1355 9.93865 22.2781 9.82743C22.42 9.71669 22.5549 9.59719 22.682 9.46962C22.8167 9.35027 22.9354 9.21517 23.0542 9.07995C23.17 8.94071 23.2809 8.79748 23.3868 8.65054C23.4027 8.62679 23.4186 8.59504 23.4344 8.57117C23.5135 8.44395 23.5927 8.31672 23.664 8.1895C23.7512 8.03185 23.8305 7.86997 23.9017 7.70447C23.9732 7.53808 24.0366 7.36829 24.0917 7.1957C24.1472 7.02873 24.1868 6.85364 24.2263 6.67892C24.2581 6.49596 24.2897 6.321 24.3055 6.14615C24.3215 5.96332 24.3373 5.78035 24.3373 5.60551C24.3373 5.47829 24.3293 5.35106 24.3213 5.22384C24.3056 5.041 24.2819 4.86603 24.2581 4.69107C24.2269 4.51169 24.1872 4.33391 24.1392 4.1583C24.0838 3.99146 24.0284 3.81649 23.965 3.64953C23.9017 3.48256 23.8225 3.31559 23.7432 3.15662C23.6562 2.99753 23.5691 2.83856 23.474 2.68747C23.3729 2.53847 23.2673 2.39264 23.1573 2.25018C23.038 2.11307 22.9165 1.97791 22.7929 1.84476C22.7262 1.77651 22.6575 1.7102 22.587 1.64592C22.2322 1.3693 21.8649 1.10928 21.4862 0.866702C21.4308 0.834958 21.3832 0.811088 21.3277 0.787218C21.0664 0.620251 20.8209 0.532768 20.5754 0.453284Z" fill="white"/>
</svg>
