<svg xmlns="http://www.w3.org/2000/svg" class="v-logo main-logo" viewBox="0 0 95 22">
  <path fill="#fff" d="M38.761 4.92a4.08 4.08 0 0 1 2.42 2.385c.24.608.353 1.274.342 1.929v6.498h-2.796V9.748c0-.806-.193-1.426-.568-1.858s-.954-.655-1.739-.655a2.23 2.23 0 0 0-1.772.818c-.478.55-.705 1.274-.705 2.186v5.482h-2.807V9.748c0-.806-.193-1.426-.568-1.858s-.954-.655-1.738-.655a2.23 2.23 0 0 0-1.773.818c-.477.55-.705 1.274-.705 2.186v5.482h-2.795V4.897h2.795v.819a3.7 3.7 0 0 1 1.239-.784 4.6 4.6 0 0 1 1.773-.327 6 6 0 0 1 2.216.386c.625.257 1.17.69 1.556 1.25.41-.502.91-.9 1.489-1.168.636-.316 1.398-.48 2.284-.48.625 0 1.261.117 1.852.328Zm12.091.118A5.4 5.4 0 0 1 52.67 6.23c.512.514.92 1.134 1.194 1.812.295.724.443 1.496.431 2.279a5.7 5.7 0 0 1-.431 2.267 5.6 5.6 0 0 1-1.194 1.8 5.4 5.4 0 0 1-1.818 1.193 6.23 6.23 0 0 1-4.545 0 5.4 5.4 0 0 1-1.818-1.193 5.4 5.4 0 0 1-1.194-1.8 5.75 5.75 0 0 1-.431-2.267 5.8 5.8 0 0 1 .431-2.28A5.5 5.5 0 0 1 44.49 6.23a5.4 5.4 0 0 1 1.818-1.192 6.23 6.23 0 0 1 4.545 0ZM47.42 7.48c-.34.151-.659.362-.931.63a3 3 0 0 0-.625.97 3.6 3.6 0 0 0-.228 1.251c0 .421.069.842.228 1.24.136.362.352.689.625.958a2.94 2.94 0 0 0 4.17 0 2.8 2.8 0 0 0 .625-.959c.148-.397.227-.818.227-1.239 0-.432-.068-.853-.227-1.25a2.8 2.8 0 0 0-.625-.97 2.98 2.98 0 0 0-3.239-.631m11.5 8.264L54.057 4.91h3.08l3.147 6.978 3.148-6.99h2.977l-4.864 10.835Zm7.728-7.55a5.7 5.7 0 0 1 1.057-1.824 5.2 5.2 0 0 1 1.693-1.274 5.3 5.3 0 0 1 2.272-.48c.58 0 1.17.094 1.716.293.512.175.978.456 1.364.842v-.842h2.795v10.835H74.75v-.818a3.4 3.4 0 0 1-1.364.83 5.41 5.41 0 0 1-3.988-.199 5.1 5.1 0 0 1-1.693-1.262 5.5 5.5 0 0 1-1.057-1.812 6.46 6.46 0 0 1 0-4.29Zm2.636 3.307q.204.544.58.982c.25.28.545.514.886.666.364.164.75.246 1.136.246.375 0 .739-.07 1.091-.199a2.9 2.9 0 0 0 .955-.573c.295-.257.523-.584.682-.946a3.2 3.2 0 0 0 .25-1.345 3.4 3.4 0 0 0-.25-1.344 3 3 0 0 0-.682-.958 2.8 2.8 0 0 0-.955-.585 3.2 3.2 0 0 0-1.08-.198 2.54 2.54 0 0 0-1.136.257c-.34.164-.647.397-.897.678-.773.912-1 2.197-.58 3.32Zm14.136 4.243L78.557 4.91h3.08l3.147 6.978 3.148-6.99h2.977l-4.864 10.835ZM94.943.012v3.132h-3.057V.012Zm-.136 15.732H92.01V4.897h2.796Z"/>
  <ellipse cx="9.114" cy="4.652" rx="3.318" ry="3.413" fill="#fff" />
  <ellipse cx="9.114" cy="16.434" rx="3.318" ry="3.413" fill="#fff"/>
  <ellipse cx="14.841" cy="10.543" rx="3.318" ry="3.413" fill="#fff"/>
  <ellipse cx="3.386" cy="10.543" rx="3.318" ry="3.413" fill="#fff"/>
</svg>