<svg width="32" height="32" viewBox="0 0 32 32" fill="none" xmlns="http://www.w3.org/2000/svg">
<path d="M29.3307 22.6694C29.3294 26.4973 26.6395 29.6966 23.047 30.482L22.1963 27.93C23.8017 27.668 25.1661 26.6893 25.9506 25.3332H22.6641C21.1913 25.3332 19.9974 24.1393 19.9974 22.6665V17.3332C19.9974 15.8604 21.1913 14.6665 22.6641 14.6665H26.5815C25.9254 9.40476 21.4369 5.33317 15.9974 5.33317C10.5579 5.33317 6.06938 9.40476 5.41325 14.6665H9.33073C10.8035 14.6665 11.9974 15.8604 11.9974 17.3332V22.6665C11.9974 24.1393 10.8035 25.3332 9.33073 25.3332H5.33073C3.85797 25.3332 2.66406 24.1393 2.66406 22.6665V15.9998C2.66406 8.63604 8.6336 2.6665 15.9974 2.6665C23.3611 2.6665 29.3307 8.63604 29.3307 15.9998V17.3314V17.3332V22.6665V22.6694Z" fill="white"/>
</svg>
