<svg width="32" height="32" viewBox="0 0 32 32" fill="none" xmlns="http://www.w3.org/2000/svg">
<g clip-path="url(#clip0_818_2509)">
<path d="M6.97839 10.3064C8.87071 7.31484 12.2046 5.33317 16.0003 5.33317C19.796 5.33317 23.1299 7.31484 25.0223 10.3064L27.2759 8.88078C24.9153 5.14916 20.7483 2.6665 16.0003 2.6665C11.2524 2.6665 7.08524 5.14916 4.72475 8.88078L6.97839 10.3064ZM16.0003 26.6665C12.2046 26.6665 8.87071 24.6849 6.97839 21.6933L4.72475 23.1189C7.08524 26.8505 11.2524 29.3332 16.0003 29.3332C20.7483 29.3332 24.9153 26.8505 27.2759 23.1189L25.0223 21.6933C23.1299 24.6849 19.796 26.6665 16.0003 26.6665ZM16 15.9998C18.2092 15.9998 20 14.209 20 11.9998C20 9.7907 18.2092 7.99984 16 7.99984C13.7908 7.99984 12 9.7907 12 11.9998C12 14.209 13.7908 15.9998 16 15.9998ZM16 17.3332C18.9455 17.3332 21.3333 19.721 21.3333 22.6665H10.6667C10.6667 19.721 13.0545 17.3332 16 17.3332ZM8 15.9998C8 18.209 6.20913 19.9998 4 19.9998C1.79087 19.9998 0 18.209 0 15.9998C0 13.7906 1.79087 11.9998 4 11.9998C6.20913 11.9998 8 13.7906 8 15.9998ZM28 19.9998C30.2092 19.9998 32 18.209 32 15.9998C32 13.7906 30.2092 11.9998 28 11.9998C25.7908 11.9998 24 13.7906 24 15.9998C24 18.209 25.7908 19.9998 28 19.9998Z" fill="white"/>
</g>
<defs>
<clipPath id="clip0_818_2509">
<rect width="32" height="32" fill="white"/>
</clipPath>
</defs>
</svg>
