<svg width="32" height="32" viewBox="0 0 32 32" fill="none" xmlns="http://www.w3.org/2000/svg">
<path d="M26.6641 12V20.6667C26.6641 23.9804 23.9778 26.6667 20.6641 26.6667C17.3503 26.6667 14.6641 23.9804 14.6641 20.6667V11.3333C14.6641 9.4924 13.1717 8 11.3307 8C9.4898 8 7.99739 9.4924 7.99739 11.3333V20.2276C9.55099 20.7767 10.6641 22.2584 10.6641 24C10.6641 26.2091 8.87326 28 6.66406 28C4.45486 28 2.66406 26.2091 2.66406 24C2.66406 22.2584 3.77713 20.7767 5.33073 20.2276V11.3333C5.33073 8.0196 8.01699 5.33333 11.3307 5.33333C14.6445 5.33333 17.3307 8.0196 17.3307 11.3333V20.6667C17.3307 22.5076 18.8231 24 20.6641 24C22.505 24 23.9974 22.5076 23.9974 20.6667V12H19.9974L25.3307 5.33333L30.6641 12H26.6641ZM6.66406 22.6667C5.92766 22.6667 5.33073 23.2636 5.33073 24C5.33073 24.7364 5.92766 25.3333 6.66406 25.3333C7.40046 25.3333 7.99739 24.7364 7.99739 24C7.99739 23.2636 7.40046 22.6667 6.66406 22.6667Z" fill="white"/>
</svg>
