<svg width="32" height="32" viewBox="0 0 32 32" fill="none" xmlns="http://www.w3.org/2000/svg">
<path d="M25.3333 13.3332H26.6667C27.4031 13.3332 28 13.9301 28 14.6665V27.9998C28 28.7362 27.4031 29.3332 26.6667 29.3332H5.33333C4.59696 29.3332 4 28.7362 4 27.9998V14.6665C4 13.9301 4.59696 13.3332 5.33333 13.3332H6.66667V11.9998C6.66667 6.84518 10.8453 2.6665 16 2.6665C21.1547 2.6665 25.3333 6.84518 25.3333 11.9998V13.3332ZM22.6667 13.3332V11.9998C22.6667 8.31794 19.6819 5.33317 16 5.33317C12.3181 5.33317 9.33333 8.31794 9.33333 11.9998V13.3332H22.6667ZM14.6667 18.6665V23.9998H17.3333V18.6665H14.6667Z" fill="white"/>
</svg>
