<?xml version="1.0" encoding="UTF-8" standalone="no"?>
<!-- Created with Inkscape (http://www.inkscape.org/) -->

<svg version="1.0" width="499.99997" height="480.40421" id="svg2383" sodipodi:docname="O2-Logo (3).svg" inkscape:version="1.4 (86a8ad7, 2024-10-11)"
   xmlns:inkscape="http://www.inkscape.org/namespaces/inkscape"
   xmlns:sodipodi="http://sodipodi.sourceforge.net/DTD/sodipodi-0.dtd"
   xmlns="http://www.w3.org/2000/svg"
   xmlns:svg="http://www.w3.org/2000/svg"
   xmlns:rdf="http://www.w3.org/1999/02/22-rdf-syntax-ns#"
   xmlns:cc="http://creativecommons.org/ns#"
   xmlns:dc="http://purl.org/dc/elements/1.1/">
   <sodipodi:namedview id="namedview1" pagecolor="#ffffff" bordercolor="#000000" borderopacity="0.25" inkscape:showpageshadow="2" inkscape:pageopacity="0.0" inkscape:pagecheckerboard="0" inkscape:deskcolor="#d1d1d1" inkscape:zoom="1.4656922" inkscape:cx="250.0525" inkscape:cy="239.81842" inkscape:window-width="1920" inkscape:window-height="1001" inkscape:window-x="-9" inkscape:window-y="-9" inkscape:window-maximized="1" inkscape:current-layer="svg2383" />
   <defs id="defs2385" />
   <metadata id="metadata2388">
      <rdf:RDF>
         <cc:Work rdf:about="">
            <dc:format>image/svg+xml</dc:format>
            <dc:type rdf:resource="http://purl.org/dc/dcmitype/StillImage" />
         </cc:Work>
      </rdf:RDF>
   </metadata>
   <g transform="matrix(1.0576499,0,0,1.0576499,-208.39268,-69.750455)" id="layer1">
      <g transform="matrix(1.1858,0,0,1.1858,4.61306,-328.857)" id="g2476">
         <g transform="translate(3.5356,3.53494)" id="g1988">
            <path d="m 158.73514,490.74919 c 0,88.22743 64.05154,161.33975 157.08081,161.33975 92.52812,0 156.57966,-73.11232 156.57966,-161.33975 0,-93.65548 -62.88243,-161.33968 -156.57966,-161.33968 -94.19838,0 -157.08081,67.6842 -157.08081,161.33968 m 60.4607,0 c 0,-58.61507 35.6584,-115.40963 96.62011,-115.40963 60.46063,0 96.11903,56.79456 96.11903,115.40963 0,54.99083 -29.56225,115.41805 -96.11903,115.41805 -67.05793,0 -96.62011,-60.42722 -96.62011,-115.41805" id="path26" style="fill:#fff;fill-rule:evenodd;stroke:none" />
            <path d="m 557.40794,712.45771 v -21.51198 h -55.70062 c 22.29692,-21.89612 51.35816,-48.48539 51.35816,-77.42136 0,-26.7897 -16.78536,-39.88394 -42.7567,-39.88394 -13.86255,0 -28.1426,3.5241 -40.50199,9.77892 l 2.17126,22.68108 c 8.93551,-5.87073 19.9587,-10.95638 31.48297,-10.95638 11.1067,0 22.29692,5.87067 22.29692,18.38032 0,25.02771 -46.34754,63.74254 -59.04098,76.06018 v 22.87316 h 90.69098" id="path28" style="fill:#fff;fill-rule:nonzero;stroke:none" />
         </g>
      </g>
   </g>
</svg>
