<?xml version="1.0" encoding="UTF-8"?>
<svg id="Layer_1" data-name="Layer 1" xmlns="http://www.w3.org/2000/svg" viewBox="0 0 579.22 113.02">
  <defs>
    <style>
      .cls-1 {
        fill: #1c4f7b;
      }

      .cls-2 {
        fill: #32b0d2;
      }
    </style>
  </defs>
  <g id="kf0gOv.tif">
    <g>
      <path class="cls-2" d="M11.49,17.61l33.13,36.44c7.99,12.8,2.26,28.11-11.96,32.82-7.26,2.4-15.76,3.4-23.19,5.5L0,75.49c4.29-1.56,27.23-4.84,29.14-7.08,1.21-1.42.92-3.41-.19-4.82L.84,33.46l10.65-15.85Z"/>
      <path class="cls-2" d="M97.74,93.5l-18.76-21.3c-3.78-2.04-4.79.95-5.89,3.74-4.57,11.54-7.22,25.26-11.4,37.08l-19.14-.36,14.49-45.87c2.6-6.46,8.44-11.68,15.32-13.04,17.83-3.53,24.68,12.67,35.55,22.9l-10.16,16.85Z"/>
      <path class="cls-2" d="M64.37,0c.86,1.19-8.84,24.45-8.34,28.06.3,1.38,2.07,2.51,3.46,2.5l41.46-9.15,8.28,16.89-48.11,10.34c-7.14.65-14.87-2.74-19.12-8.46-9.67-13.01-.02-26.72,3.14-40.11l19.22-.08Z"/>
    </g>
  </g>
  <g>
    <path class="cls-1" d="M140.11,58.7c0-15.86,11.38-26.56,27.33-26.56,2.33,0,5.06.19,8.07.58v13.91c-2.33-.29-4.57-.49-6.32-.49-8.95,0-13.72,5.25-13.72,12.55s4.77,12.45,13.72,12.45c1.75,0,3.99-.19,6.32-.49v14.01c-3.02.39-5.74.58-8.07.58-15.95,0-27.33-10.7-27.33-26.56Z"/>
    <path class="cls-1" d="M204.37,32.82h6.61v13.81h-5.16c-3.11,0-4.47,1.36-4.47,4.47v33.27h-15.37v-32.88c0-12.94,6.91-18.68,18.38-18.68Z"/>
    <path class="cls-1" d="M216.42,58.6c0-15.86,11.77-26.75,25.68-26.75,5.74,0,11.38,1.95,14.88,5.64l.1-4.67h13.62v51.56h-13.62l-.1-4.67c-3.5,3.7-9.14,5.64-14.88,5.64-13.91,0-25.68-10.89-25.68-26.75ZM244.15,71.35c7,0,12.16-4.96,12.16-12.74s-5.16-12.74-12.16-12.74-12.35,4.96-12.35,12.74,5.25,12.74,12.35,12.74Z"/>
    <path class="cls-1" d="M277.89,32.82h16.05l8.95,31.03,9.44-31.03h14.2l9.34,29.96,9.14-29.96h15.66l-17.31,51.56h-14.1l-10.12-30.25-10.02,30.25h-15.08l-16.15-51.56Z"/>
    <path class="cls-1" d="M367.69,9.19h15.37v75.19h-15.37V9.19Z"/>
    <path class="cls-1" d="M387.56,89.63h2.43c3.89,0,5.54-1.65,5.54-5.54v-51.26h15.37v51.94c0,12.06-6.91,19.07-19.36,19.07h-3.99v-14.2ZM395.54,9.19h15.37v15.76h-15.37v-15.76Z"/>
    <path class="cls-1" d="M420.66,58.7c0-15.86,12.26-27.14,27.53-27.14s27.53,11.28,27.53,27.14-12.26,27.14-27.53,27.14-27.53-11.28-27.53-27.14ZM448.19,71.54c6.91,0,12.16-5.16,12.16-12.84s-5.25-12.84-12.16-12.84-12.16,5.16-12.16,12.84,5.25,12.84,12.16,12.84Z"/>
    <path class="cls-1" d="M499.15,79.71l-.1,4.67h-13.62V9.19h15.37v13.81c0,4.28-.1,8.95-.29,13.23,3.5-2.92,8.46-4.38,13.52-4.38,13.91,0,25.68,10.89,25.68,26.75s-11.77,26.75-25.68,26.75c-5.74,0-11.38-1.95-14.88-5.64ZM511.99,71.35c7.1,0,12.35-4.96,12.35-12.74s-5.25-12.74-12.35-12.74-12.16,4.96-12.16,12.74,5.16,12.74,12.16,12.74Z"/>
    <path class="cls-1" d="M548.09,84.38v-13.03c4.28.58,7.39.88,9.63.88,3.99,0,5.64-.97,5.64-3.02,0-1.65-1.17-3.11-4.47-5.54l-3.02-2.24c-5.93-4.38-8.37-8.46-8.37-14.2,0-9.53,6.91-15.08,18.97-15.08,2.53,0,5.25.19,8.27.68v11.96c-2.82-.39-5.06-.49-6.32-.49-4.09,0-6.03.97-6.03,2.63,0,1.17.97,2.24,4.18,4.47l2.72,1.95c7,4.96,9.92,9.63,9.92,15.76,0,10.12-7.59,16.05-20.62,16.05-2.92,0-6.71-.29-10.51-.78Z"/>
  </g>
</svg>