<?xml version="1.0" encoding="utf-8"?>
<!-- Generator: Adobe Illustrator 25.0.0, SVG Export Plug-In . SVG Version: 6.00 Build 0)  -->
<svg version="1.1" id="Layer_1" xmlns="http://www.w3.org/2000/svg" xmlns:xlink="http://www.w3.org/1999/xlink" x="0px" y="0px"
	 viewBox="0 0 406 206" style="enable-background:new 0 0 406 206;" xml:space="preserve">
<style type="text/css">
	.st0{fill:#2455D1;}
	.st1{fill:#232323;}
</style>
<g>
	<g>
		<path class="st0" d="M84,160.7l9.3,5.4C86.5,176.5,75.6,183,63.2,183c-19.6,0-35.8-16.3-35.8-35.7c0-19.5,16.3-35.7,35.8-35.7
			c5.8,0,12.3,1.5,17.2,4.6l-5.9,8.9c-4.7-2.3-8.1-2.8-11-2.8c-14.1,0-25.4,11.4-25.4,25c0,13.8,11.4,25,25,25
			C71.7,172.2,79.1,167.7,84,160.7z"/>
		<g>
			<g>
				<path class="st1" d="M98.1,111.4h33.1c16.8,0,25.2,7.7,25.2,23.5c0,14.5-7.1,22.5-21.2,23.7l20.4,35.3h-12l-19.9-35.2H109v21.7
					H98.1V111.4z M132.6,122.1H109V148h23.6c8.9,0,13.4-4.4,13.4-13C145.9,126.4,141.5,122.1,132.6,122.1z"/>
			</g>
		</g>
		<path class="st0" d="M230.3,181.7H218l-5.6-10.8h-39.8l-5.2,10.8H155l37-74.5L230.3,181.7z M177.6,160h29.6l-14.7-31L177.6,160z"
			/>
		<path class="st0" d="M244.4,181.7h-10.7v-69h44.5v10.7h-33.8v25.9h27.1V160h-27.1V181.7z"/>
		<path class="st0" d="M309.8,181.7H299v-58.3h-18.3v-10.7h48.6v10.7h-19.5L309.8,181.7L309.8,181.7z"/>
		<g>
			<g>
				<path class="st0" d="M360.3,150.9h-7.6c-14,0-21.2-6.7-21.2-19.6c0-12.6,6.9-18.7,21.1-18.7H373v10.7h-21.8
					c-6.2,0-9.2,2.6-9.2,8.1c0,5.5,3.1,8.6,9.2,8.6h7.7c15.8,0,23.6,7,23.6,20.8s-7.8,20.7-23.5,20.7h-26.8V171h28.1
					c7.8,0,11.8-3.5,11.8-10.2C372.1,154.2,368.3,150.9,360.3,150.9z"/>
			</g>
		</g>
	</g>
</g>
<g>
	<g>
		<g>
			<g>
				<path class="st1" d="M57.5,80.7V8.5h10.9v72.3H57.5V80.7z"/>
			</g>
		</g>
		<g>
			<g>
				<path class="st1" d="M88.1,32.3v48.5H77.3V8.5H84L118.8,57V8.5h10.7v72.3H123L88.1,32.3z"/>
			</g>
		</g>
		<g>
			<g>
				<path class="st1" d="M166.3,19.7v61h-11v-61h-18.6V8.5h18.6h11h42.6v11.3L166.3,19.7L166.3,19.7z"/>
			</g>
		</g>
		<g>
			<g>
				<path class="st1" d="M216.1,80.7V8.5h37.4v11.3H227v12.4h26.6v11.3H227v26.2h36.6V81h-47.5V80.7z"/>
			</g>
		</g>
		<g>
			<g>
				<path class="st1" d="M326.2,58.7l9.4,5.7C328.7,75.3,317.7,82,305.2,82C285.5,82,269,65,269,44.6s16.4-37.4,36.2-37.4
					c5.9,0,12.4,1.5,17.4,4.9l-6,9.3c-4.8-2.4-8.2-2.9-11.1-2.9c-14.3,0-25.6,12-25.6,26.2c0,14.4,11.5,26.2,25.2,26.2
					C313.8,70.8,321.2,66,326.2,58.7z"/>
			</g>
		</g>
		<g>
			<g>
				<polygon class="st1" points="9.3,202.7 20.1,202.7 20.1,58 47.5,58 47.5,46.8 20.1,46.8 20.1,19.7 52.7,19.7 52.7,8.5 9.3,8.5 
									"/>
			</g>
			<g>
				<polygon class="st1" points="389.9,9.9 389.9,48.2 352.9,48.2 352.9,9.9 342,9.9 342,82.2 352.9,82.2 352.9,59.5 389.9,59.5 
					389.9,202.7 400.7,202.9 400.7,9.9 				"/>
			</g>
		</g>
	</g>
</g>
<g>
	<g>
		<path class="st1" d="M19.6,202.7v-9.5h371.3v9.5H19.6z"/>
	</g>
</g>
</svg>
