<svg width="200" height="100" viewBox="0 0 200 100" fill="none" xmlns="http://www.w3.org/2000/svg">
<g clip-path="url(#clip0_595_2821)">
<path d="M109.241 56.6737L96.4062 34.3685L105.627 29.0725L121.586 56.6737H109.241Z" fill="white"/>
<path d="M75.0469 53.5488L84.2672 48.217L89.1457 56.6739H76.8361L75.0469 53.5488Z" fill="white"/>
<path d="M93.1406 70.9042H95.7648V60.2883H93.1406V70.9042Z" fill="white"/>
<path d="M126.029 71.1546C123.095 71.1546 121.33 69.6397 121.234 67.5046H124.002C124.002 68.1726 124.419 69.1507 126.208 69.1865C127.401 69.1865 127.962 68.4827 127.962 67.9579C127.89 67.1229 126.84 67.0514 125.719 66.8725C124.598 66.6935 123.644 66.4908 122.952 66.1329C122.069 65.6797 121.473 64.7016 121.473 63.5804C121.473 61.6838 123.119 60.1809 125.862 60.1809C128.522 60.1809 130.204 61.5765 130.383 63.6519H127.711C127.687 63.0913 127.58 62.2087 126.006 62.2087C124.944 62.2087 124.24 62.4233 124.181 63.1629C124.181 64.2483 126.387 64.1768 128.105 64.63C129.751 65.0475 130.801 66.0733 130.801 67.5046C130.801 70.1407 128.665 71.1546 126.029 71.1546Z" fill="white"/>
<path d="M85.8594 44.0779L95.0797 38.7581L105.421 56.6738H95.7715V59.2979H93.1473V56.6618L85.8594 44.0779Z" fill="white"/>
<path d="M86.0971 71.1546C83.0435 71.1546 80.5625 68.6616 80.5625 65.6439C80.5625 62.5903 83.0435 60.1809 86.0971 60.1809C87.2541 60.1809 88.3037 60.491 89.2222 61.1232V56.6741H91.8463V70.9041H89.2222V70.2003C88.3037 70.7967 87.2541 71.1546 86.0971 71.1546ZM83.0793 65.6439C83.0793 67.2899 84.4868 68.6616 86.1686 68.6616C87.8147 68.6616 89.2222 67.2899 89.2222 65.6439C89.2222 63.9978 87.8147 62.5903 86.1686 62.5903C84.4868 62.5903 83.0793 63.9978 83.0793 65.6439Z" fill="white"/>
<path d="M105.488 56.6741H108.076V70.9041H105.488V70.2003C104.605 70.7967 103.52 71.1546 102.327 71.1546C99.3091 71.1546 96.8281 68.6616 96.8281 65.6439C96.8281 62.5903 99.3091 60.1809 102.327 60.1809C103.52 60.1809 104.569 60.491 105.488 61.1232V56.6741ZM99.3807 65.6439C99.3807 67.2899 100.788 68.6616 102.398 68.6616C104.08 68.6616 105.488 67.2899 105.488 65.6439C105.488 63.9978 104.08 62.5903 102.398 62.5903C100.788 62.5903 99.3807 63.9978 99.3807 65.6439Z" fill="white"/>
<path d="M114.46 71.1546C111.454 71.1546 108.961 68.6616 108.961 65.6439C108.961 62.5903 111.454 60.1809 114.46 60.1809C115.617 60.1809 116.702 60.491 117.585 61.1232V60.2763H120.209V70.9041H117.585V70.2004C116.702 70.7967 115.653 71.1546 114.46 71.1546ZM111.514 65.6439C111.514 67.2899 112.921 68.6616 114.567 68.6616C116.213 68.6616 117.585 67.2899 117.585 65.6439C117.585 63.9978 116.213 62.5903 114.567 62.5903C112.921 62.5903 111.514 63.9978 111.514 65.6439Z" fill="white"/>
<path d="M70.9115 65.6439C70.9115 67.2899 72.319 68.6616 73.9651 68.6616C75.6469 68.6616 77.0544 67.2899 77.0544 65.6439C77.0544 63.9978 75.6469 62.5903 73.9651 62.5903C72.319 62.5903 70.9115 63.9978 70.9115 65.6439ZM73.8935 71.1546C70.8757 71.1546 68.3828 68.6616 68.3828 65.6439C68.3828 62.5903 70.8757 60.1809 73.8935 60.1809C75.0505 60.1809 76.136 60.491 77.0544 61.1232V60.2763H79.6428V70.9041H77.0544V70.2004C76.1717 70.7967 75.0863 71.1546 73.8935 71.1546Z" fill="white"/>
</g>
<defs>
<clipPath id="clip0_595_2821">
<rect width="200" height="43.5035" fill="white" transform="translate(0 28.2483)"/>
</clipPath>
</defs>
</svg>
