<svg width="200" height="100" viewBox="0 0 200 100" fill="none" xmlns="http://www.w3.org/2000/svg">
<g clip-path="url(#clip0_595_2876)">
<path d="M112.109 50.0003C112.109 56.6923 106.692 62.1093 99.9996 62.1093V50.0003H112.109ZM99.9996 37.8914V50.0003H87.8906C87.8906 43.3083 93.3076 37.8914 99.9996 37.8914Z" fill="white"/>
<path d="M99.9964 37.8911V38.555C106.307 38.555 111.441 43.6886 111.441 50.0001H112.105C112.105 43.3129 106.684 37.8911 99.9964 37.8911ZM99.9964 61.4451C93.6862 61.4451 88.5513 56.3115 88.5513 50.0001H87.8874C87.8874 56.6872 93.3092 62.109 99.9964 62.109M99.9964 29.5662C88.7114 29.5662 79.5625 38.715 79.5625 50.0001C79.5625 61.2851 88.7114 70.4339 99.9964 70.4339C111.281 70.4339 120.43 61.2851 120.43 50.0001C120.43 38.715 111.281 29.5662 99.9964 29.5662ZM119.102 50.0001C119.102 60.551 110.549 69.1052 99.9964 69.1052C89.4442 69.1052 80.8913 60.551 80.8913 50.0001C80.8913 39.4491 89.4454 30.8949 99.9964 30.8949C110.547 30.8949 119.102 39.4491 119.102 50.0001Z" fill="white"/>
<path d="M91.2671 40.1421C91.9201 39.459 92.2898 38.6699 91.6368 37.9165C91.2815 37.5077 90.6849 37.4183 90.1904 37.6197L90.1412 37.6388L90.1568 37.5959C90.23 37.4016 90.2768 36.7817 89.7451 36.3538C89.4858 36.1452 89.1605 36.0677 88.8316 36.1011C88.2183 36.163 87.7466 36.5791 86.4622 38.0012C86.0745 38.4303 85.5104 39.1074 85.1719 39.5461L88.6996 42.8695C89.8687 41.5845 90.3452 41.1065 91.2671 40.1421ZM86.6639 39.3291C87.3745 38.4661 88.1295 37.6829 88.4715 37.373C88.5796 37.2752 88.6972 37.1775 88.84 37.1393C89.0717 37.0761 89.3106 37.2395 89.3646 37.4755C89.4186 37.7127 89.2686 37.938 89.1017 38.124C88.726 38.5447 87.3481 39.9764 87.3481 39.9764L86.6639 39.3291ZM88.0454 40.6308C88.0454 40.6308 89.3874 39.2218 89.8255 38.7712C89.9996 38.5924 90.1112 38.484 90.2312 38.4255C90.3861 38.3504 90.5553 38.3349 90.7065 38.4351C90.8554 38.534 90.9238 38.7045 90.8866 38.8738C90.8422 39.0752 90.6765 39.2671 90.5397 39.4137C90.3548 39.6104 88.7632 41.302 88.7608 41.3043L88.0454 40.6308ZM100.403 36.1785L101.532 33.6657L101.604 33.4428L101.584 33.6752L101.703 37.0332C102.099 37.0702 102.508 37.125 102.911 37.1918L102.728 32.2186C102.164 32.1566 101.602 32.1125 101.04 32.0886L99.9274 34.8315L99.8878 35.0354L99.8482 34.8315L98.7367 32.0886C98.1749 32.1125 97.6132 32.1566 97.049 32.2186L96.8654 37.1918C97.2687 37.125 97.678 37.0714 98.0741 37.0332L98.1929 33.6752L98.1725 33.4428L98.2445 33.6657L99.374 36.1785H100.403ZM109.783 41.377C110.06 41.6727 110.46 42.1495 110.685 42.4392L114.819 39.8333C114.612 39.5651 114.283 39.1575 114.037 38.8702L111.419 40.5891L111.24 40.7417L111.374 40.5486L112.53 38.2575L111.712 37.4457L109.404 38.5936L109.209 38.7259L109.364 38.5483L111.096 35.9497C110.791 35.6922 110.499 35.4562 110.125 35.1701L107.501 39.2719C107.834 39.5258 108.272 39.8989 108.552 40.1528L111.022 38.8797L111.18 38.7641L111.064 38.9214L109.783 41.377Z" fill="white"/>
</g>
<defs>
<clipPath id="clip0_595_2876">
<rect width="40.8678" height="40.8678" fill="white" transform="translate(79.5625 29.5662)"/>
</clipPath>
</defs>
</svg>
