<svg width="200" height="24" viewBox="0 0 200 24" fill="none" xmlns="http://www.w3.org/2000/svg">
<g clip-path="url(#clip0_595_2894)">
<path fill-rule="evenodd" clip-rule="evenodd" d="M142.167 22.9372V17.0664H142.616L143.604 16.8683L144.304 16.6164L144.968 16.2402L145.56 15.8094L146.099 15.2712L146.565 14.6592L147.015 13.8162L147.247 13.1159L147.409 12.3796L147.427 11.7515L147.391 11.0151L147.229 10.2788L146.96 9.59619L146.6 8.93202L146.152 8.34003L145.343 7.60368L144.715 7.20825L144.032 6.885L143.314 6.68766L142.56 6.5794H142.165V0.654088L142.848 0.67175L143.979 0.797674L145.074 1.03109L146.134 1.37278L147.139 1.80352L148.11 2.32411L149.062 2.98828L149.995 3.79603L150.803 4.6583L151.467 5.53823L152.042 6.47191L152.492 7.42324L152.796 8.32083L152.885 8.71549V1.06641H158.29L165.472 11.6793L165.455 1.01266L171.346 1.06641V22.6853H166.029L158.721 12.1277V22.6853H152.885V15.0193L152.741 15.4317L152.365 16.3661L151.861 17.3351L151.269 18.2511L150.587 19.1134L149.833 19.9035L148.99 20.6222L148.091 21.2502L147.139 21.7885L146.116 22.2369L144.968 22.597L143.835 22.8297L142.759 22.9379L142.167 22.9372ZM142.167 0.654088V6.5794H141.807L141.053 6.68766L140.336 6.90265L139.652 7.22591L139.024 7.62134L138.45 8.12427L137.947 8.68094L137.535 9.32745L137.229 9.99162L137.014 10.7103L136.888 11.4643V12.2007L136.996 12.9547L137.194 13.6733L137.5 14.3736L137.643 14.6423L137.751 14.7867L137.967 15.0923L138.487 15.649L139.062 16.115L139.708 16.5112L140.408 16.7976L141.127 16.9957L141.881 17.0856L142.169 17.0679V22.9387H141.667L140.589 22.8489L139.512 22.6523L138.434 22.3106L137.411 21.8799L136.441 21.3777L135.543 20.7657L134.736 20.0832L134.394 19.7968L134.108 19.5088V22.6868H121.736V1.06641H127.535V17.3343H132.51L132.294 16.8859L132.061 16.4199L131.665 15.4317L131.361 14.4089L131.145 13.3309L131.037 12.2544V11.1948L131.163 10.0815L131.397 8.95045L131.72 7.85476L132.15 6.84891L132.69 5.89757L133.301 4.99998L134.001 4.15538L134.791 3.38371L135.634 2.70111L136.55 2.10835L137.502 1.62385L138.507 1.21076L139.549 0.922826L140.626 0.743159L141.702 0.65332L142.167 0.654088ZM80.8826 19.1487V14.1202H82.1933V10.0983L80.8826 12.0916V2.30568L81.6366 1.06641H87.8859V22.6853H82.1933V19.1495L80.8826 19.1487ZM92.6081 22.6853H98.3537V6.32832H102.483V1.06641H88.6392V6.32832H92.6073L92.6081 22.6853ZM103.076 22.6853H108.931V14.5348H114.856V22.6853H120.673V1.06641L114.856 1.04875V9.38043H108.931V1.06641H103.076V22.6853ZM37.3569 6.61549L37.8774 6.79516L38.5777 7.13607L39.2242 7.5676L39.7993 8.07052L40.3022 8.64562L40.7153 9.29213L41.0386 9.97472L41.2536 10.6934L41.3795 11.3937L41.4156 12.0394L41.3618 12.6859L41.2359 13.3685L40.9841 14.0688L40.6432 14.7514L40.1402 15.4155L39.5122 16.026L38.8119 16.5481L38.0756 16.9243L37.3576 17.1762V22.5986L37.8782 22.5264L39.0991 22.2208L40.2485 21.8085L41.2175 21.324L42.1512 20.712L43.0134 20.0117L43.7674 19.2769L44.4316 18.4508L45.0781 17.4802L45.419 16.9059V22.6868H57.3603V17.4802H51.1831V14.4988H57.3603V9.36277H51.1831V6.18397H57.3603V1.06641H45.419V7.04624L45.2931 6.70533L44.8086 5.89757L44.1444 5.01764L43.2822 4.1024L42.3846 3.32996L41.4693 2.70188L40.4097 2.16287L39.0991 1.69603L37.806 1.35435L37.3576 1.28294L37.3569 6.61549ZM80.8826 2.30568V12.0916L79.5712 14.121L80.8826 14.1202V19.1487L77.5072 19.1495L77.0942 19.5618L76.2503 20.3342L75.3704 21.0168L74.4367 21.5912L73.4493 22.0757L72.4258 22.4719L71.3662 22.7583L70.2705 22.9564L69.1571 23.0285L68.0614 23.0109L66.9842 22.8665L65.8708 22.6162L64.7391 22.2384L63.6979 21.7724L62.7826 21.198L61.9027 20.5515L61.1311 19.8328L60.4124 19.0243L59.7659 18.1621L59.2084 17.2115L58.7063 16.0974L58.2932 14.8765L58.0237 13.7455L57.8977 12.6314L57.8624 11.5549L57.9523 10.4592L58.1319 9.38197L58.4191 8.32313L58.8322 7.26353L59.3528 6.24002L59.9632 5.32477L60.6458 4.48017L61.3998 3.72616L62.2436 3.04433L63.1412 2.43391L64.1471 1.89567L65.2781 1.42883L66.4275 1.10557L67.5048 0.908239L68.6005 0.799976L69.6954 0.836062L70.7726 0.943557L71.8499 1.19541L72.9272 1.55475L73.9507 1.9855L74.902 2.52451L75.7819 3.1526L76.5897 3.85285L77.2723 4.53545L77.5418 4.85871L74.5611 9.49176L74.1841 9.15085L73.8071 8.80993L72.9632 8.18109L72.0111 7.60675L70.9876 7.13991L69.9641 6.85275L69.0658 6.74525L68.2043 6.799L67.3243 7.01476L66.4628 7.33801L65.7626 7.78642L65.1882 8.27092L64.703 8.84602L64.2899 9.49253L63.9851 10.1928L63.7693 10.9291L63.6802 11.6616V12.398L63.8062 13.1343L64.0396 13.853L64.3628 14.5533L64.7944 15.1813L65.3149 15.738L65.89 16.1864L66.5365 16.5627L67.2552 16.8506L68.063 17.0303L68.8715 17.1201L69.6432 17.0664L70.3619 16.922L71.0805 16.6517L71.7271 16.3116L72.3375 15.8808L72.822 15.4493L73.0377 15.2351L80.8826 2.30568ZM33.2805 17.4787V6.32832H34.8783L35.6684 6.34598L36.4224 6.41816L37.158 6.54408L37.3561 6.61625V1.28294L36.4938 1.15701L35.0219 1.06718H27.6953V22.6861H36.0992L36.8893 22.6515L37.3561 22.5978V17.1754L37.2839 17.1931L36.4224 17.3704L35.4166 17.4426L34.8599 17.4787H33.2805Z" fill="white"/>
</g>
<defs>
<clipPath id="clip0_595_2894">
<rect width="200" height="23.6805" fill="white"/>
</clipPath>
</defs>
</svg>
