<svg xmlns="http://www.w3.org/2000/svg" width="1165.891" height="610" viewBox="0 0 1165.891 610"><g fill="#007ac2" transform="matrix(0.46235648,0,0,0.46235648,5,4.9999959)"><path d="m 1691.1,498.1 c -15.7,-11.7 -40.3,-18.8 -64.2,-18.4 -26,0.4 -50.8,8.7 -68,22.5 V 338.3 h -81.1 v 534.5 h 81.1 v -279 c 0,-19.5 16.3,-40.9 46.5,-42.2 13.5,-0.6 32.1,5.3 41.6,19.4 10.1,15 9.5,34.9 9.5,56.6 l -0.1,245.1 h 81.1 V 624.6 c -0.1,-73.2 -9.6,-99.3 -46.4,-126.5 m -659.4,183.5 c 0,52.3 -1.7,67 -2.1,71.6 -2.8,29 -15.2,59.7 -49,59.7 -33.7,0 -47.4,-32.8 -48.9,-61.1 -0.1,-0.2 -2.1,-17.9 -2.1,-70.2 0,-52.4 2.1,-74.2 2.1,-74.4 0.4,-29.5 15.7,-59.1 48.9,-59.1 33.2,0 48.5,29.5 49,58.7 0.1,0.6 2.1,22.4 2.1,74.8 m 78.5,-63.1 c -11.5,-114.3 -76.4,-138.8 -129.6,-138.8 -75.5,0 -121.4,48 -129.7,138.6 -0.7,7.2 -1.8,20.5 -2.2,63.2 -0.3,31.1 1.7,56.5 2.1,63 5.1,84.6 53.8,136.8 129.8,136.8 76.1,0 124.5,-53 129.8,-136.8 0.4,-6 2.1,-31.9 2.1,-63 0,-14 -1.3,-52.3 -2.3,-63 z m 762.5,15 c 0.6,-17.7 0.6,-21.4 1,-26.5 2.3,-32 16.6,-58.5 49.4,-58.8 38.9,-0.3 48,37.8 49.4,58.9 0.7,11.1 1.5,18.5 1.4,26.4 z m 100.2,107.1 c 0,0 0.1,6 -0.8,13.2 -2.3,18.9 -9.7,59.2 -49.2,59.2 -33.6,0 -46.6,-30.5 -48.8,-61 -0.4,-8.6 -2,-18.3 -1.9,-51.1 H 2053 c 0,0 0.3,-26.9 -0.2,-43.1 -0.3,-6.4 -0.6,-16.9 -2.1,-39.2 -2.5,-34.3 -15.3,-71.7 -34.9,-96 -22.7,-28 -54.8,-42.8 -92.8,-42.8 -73,0 -118.7,47.6 -127.6,138.7 -0.8,8.2 -2.1,19.5 -2.1,63.2 0,31.1 1.8,57.1 2.1,63 4.9,83.2 54.1,136.8 127.7,136.8 73.4,0 122.6,-52.1 127.8,-140.8 z"/><path d="M 592.2,65.5 H 1909.7 L 2413.6,655 1909.9,1236.4 H 592.2 L 86.5,653 Z M 1941.6,0 H 560.4 L 0,650.9 560.5,1297.7 H 1941.6 L 2500,653 Z"/><path d="m 608.5,410.8 h 38.4 c 41.7,0 64.3,22.1 65.3,61.6 0.1,2.9 0.4,6.2 0.4,12.3 0,7.2 -0.1,9.8 -0.4,12.5 -2.3,23.5 -12.6,64.4 -61.5,64.4 h -42.3 z m 192,428.8 -8.3,-131.2 c -3.6,-58.7 -18.9,-93.3 -49.3,-111 21.9,-13.2 50.3,-45.8 50,-113.9 -0.4,-103.8 -64.8,-140.2 -140.6,-141 H 528.5 v 530.2 h 80 V 630.1 H 653 c 25.8,0 54.8,22.5 59.2,85.8 l 8.3,124.2 c 0.7,17.6 4,32.6 4,32.6 h 80.1 c 0.1,0.1 -3.4,-14.6 -4.1,-33.1 z M 1347,736.9 c -0.3,5.8 -0.7,11.1 -1,14.9 -2.3,29.6 -12.7,61.1 -48.9,61.1 -33.8,0 -47.1,-34.1 -49.6,-59.3 -1.5,-15.3 -1.1,-27.1 -1.4,-72 -0.4,-52.4 1.3,-65.9 2.1,-74.4 2.9,-33.1 15.7,-58.8 48.9,-59 34.2,-0.2 48.5,29.5 48.9,58.7 0,0.3 0.7,7.4 1.2,22.9 h 80.2 c -0.3,-5.4 -0.5,-9.8 -0.7,-12.4 -9.1,-110.8 -76.6,-137.6 -129.8,-137.6 -75.4,0 -121.4,48 -129.7,138.6 -0.7,7.2 -1.8,20.5 -2.2,63.2 -0.4,31.1 1.6,56.5 2.1,63 5.2,84.6 53.8,136.6 129.8,136.8 78.8,0.3 122.3,-47.8 129.8,-136.8 0.2,-3.2 0.7,-5.5 0.5,-7.7 z"/></g></svg>