<svg width="200" height="100" viewBox="0 0 200 100" fill="none" xmlns="http://www.w3.org/2000/svg">
<g clip-path="url(#clip0_595_2833)">
<path d="M59 63.991H74.7567V66.2465H59V63.991Z" fill="white"/>
<path d="M59 59.6644H74.7567V61.9279H59V59.6644Z" fill="white"/>
<path d="M63.5 55.3462H70.2586V57.6098H63.5V55.3462Z" fill="white"/>
<path d="M63.5 51.0278H70.2586V53.2914H63.5V51.0278Z" fill="white"/>
<path d="M63.5 46.7095H70.2586V48.9731H63.5V46.7095Z" fill="white"/>
<path d="M63.5 42.3823H70.2586V44.6459H63.5V42.3823Z" fill="white"/>
<path d="M74.7567 38.064H59V40.3276H74.7567V38.064Z" fill="white"/>
<path d="M74.7567 33.7456H59V36.0092H74.7567V33.7456Z" fill="white"/>
<path d="M77 61.9281H101.233C101.642 61.2298 101.947 60.4672 102.132 59.6646H77V61.9281Z" fill="white"/>
<path d="M99.3437 51.0278H81.5V53.2914H101.23C100.716 52.4245 100.082 51.662 99.3437 51.0278Z" fill="white"/>
<path d="M81.5 46.7095V48.9731H99.3437C100.098 48.3389 100.732 47.5764 101.23 46.7095H81.5Z" fill="white"/>
<path d="M101.233 38.064H77V40.3276H102.132C101.924 39.5249 101.618 38.7624 101.233 38.064Z" fill="white"/>
<path d="M93.7842 33.7456H77V36.0092H99.5716C98.0625 34.6125 96.0157 33.7456 93.7842 33.7456Z" fill="white"/>
<path d="M88.2506 42.3823H81.5V44.6459H88.2506V42.3823Z" fill="white"/>
<path d="M95.0156 44.6459H102.079C102.28 43.9235 102.384 43.161 102.384 42.3823H95.0156V44.6459Z" fill="white"/>
<path d="M81.5 55.3462H88.2506V57.6098H81.5V55.3462Z" fill="white"/>
<path d="M95.0156 55.3462V57.6098H102.384C102.384 56.8312 102.28 56.0687 102.079 55.3462H95.0156Z" fill="white"/>
<path d="M77 66.2302L93.7842 66.2543C96.0318 66.2543 98.0625 65.3874 99.5796 63.9907H77V66.2302Z" fill="white"/>
<path d="M104.023 63.9907H115.277V66.2463H104.023V63.9907Z" fill="white"/>
<path d="M104.023 59.6646H115.277V61.9281H104.023V59.6646Z" fill="white"/>
<path d="M108.516 55.3462H115.274V57.6098H108.516V55.3462Z" fill="white"/>
<path d="M108.516 51.0278H115.274V53.2914H108.516V51.0278Z" fill="white"/>
<path d="M118.408 38.064H104.023V40.3276H119.186L118.408 38.064Z" fill="white"/>
<path d="M116.915 33.7456H104.023V36.0092H117.693L116.915 33.7456Z" fill="white"/>
<path d="M128.781 63.9907H140.043V66.2463H128.781V63.9907Z" fill="white"/>
<path d="M128.781 59.6646H140.043V61.9281H128.781V59.6646Z" fill="white"/>
<path d="M128.781 55.3462H135.54V57.6098H128.781V55.3462Z" fill="white"/>
<path d="M128.781 51.0278H135.54V53.2914H128.781V51.0278Z" fill="white"/>
<path d="M128.775 48.9731H135.534V46.7095H128.775H122.659L122.025 48.5397L121.391 46.7095H115.274H108.516V48.9731H115.274V46.8941L115.989 48.9731H128.061L128.775 46.8941V48.9731Z" fill="white"/>
<path d="M135.536 42.3823H124.154L123.375 44.6459H135.536V42.3823Z" fill="white"/>
<path d="M127.146 33.7456L126.367 36.0092H140.037V33.7456H127.146Z" fill="white"/>
<path d="M122.029 66.2302L122.807 63.9907H121.25L122.029 66.2302Z" fill="white"/>
<path d="M120.537 61.9281H123.523L124.326 59.6646H119.742L120.537 61.9281Z" fill="white"/>
<path d="M119.013 57.6098H125.034L125.828 55.3462H118.219L119.013 57.6098Z" fill="white"/>
<path d="M117.513 53.2914H126.559L127.33 51.0278H116.734L117.513 53.2914Z" fill="white"/>
<path d="M108.516 44.6459H120.676L119.898 42.3823H108.516V44.6459Z" fill="white"/>
<path d="M124.875 40.3276H140.038V38.064H125.646L124.875 40.3276Z" fill="white"/>
</g>
<defs>
<clipPath id="clip0_595_2833">
<rect width="200" height="32.5089" fill="white" transform="translate(0 33.7456)"/>
</clipPath>
</defs>
</svg>
