<svg width="20" height="20" viewBox="0 0 20 20" fill="none"
  xmlns="http://www.w3.org/2000/svg">
  <path d="M9.75 0C7.82164 0 5.93657 0.571828 4.33319 1.64317C2.72982 2.71451 1.48013 4.23726 0.742179 6.01884C0.00422452 7.80042 -0.188858 9.76082 0.187348 11.6521C0.563554 13.5434 1.49215 15.2807 2.85571 16.6443C4.21928 18.0079 5.95656 18.9365 7.84787 19.3127C9.73919 19.6889 11.6996 19.4958 13.4812 18.7578C15.2627 18.0199 16.7855 16.7702 17.8568 15.1668C18.9282 13.5634 19.5 11.6784 19.5 9.75C19.4973 7.16498 18.4692 4.68661 16.6413 2.85872C14.8134 1.03084 12.335 0.00272983 9.75 0ZM13.5516 10.3669L8.67657 13.7419C8.56402 13.8197 8.43233 13.8652 8.29576 13.8736C8.15918 13.8819 8.02293 13.8528 7.90174 13.7892C7.78056 13.7257 7.67907 13.6302 7.60825 13.5131C7.53744 13.3961 7.50001 13.2618 7.5 13.125V6.375C7.50001 6.23817 7.53744 6.10395 7.60825 5.98687C7.67907 5.86978 7.78056 5.77431 7.90174 5.71077C8.02293 5.64723 8.15918 5.61806 8.29576 5.6264C8.43233 5.63475 8.56402 5.6803 8.67657 5.75812L13.5516 9.13313C13.6513 9.20212 13.7329 9.2943 13.7892 9.40174C13.8456 9.50918 13.875 9.62869 13.875 9.75C13.875 9.87131 13.8456 9.99082 13.7892 10.0983C13.7329 10.2057 13.6513 10.2979 13.5516 10.3669Z" fill="white"/>
</svg>
