<svg width="32" height="32" viewBox="0 0 32 32" fill="none" xmlns="http://www.w3.org/2000/svg">
<path d="M3.9974 4H27.9974C28.7338 4 29.3307 4.59696 29.3307 5.33333V26.6667C29.3307 27.4031 28.7338 28 27.9974 28H3.9974C3.26102 28 2.66406 27.4031 2.66406 26.6667V5.33333C2.66406 4.59696 3.26102 4 3.9974 4ZM21.9501 20.714L26.6641 16L21.9501 11.286L20.0645 13.1716L22.8929 16L20.0645 18.8284L21.9501 20.714ZM9.10197 16L11.9304 13.1716L10.0448 11.286L5.33073 16L10.0448 20.714L11.9304 18.8284L9.10197 16ZM14.9898 22.6667L19.8427 9.33333H17.005L12.152 22.6667H14.9898Z" fill="white"/>
</svg>
