<svg xmlns="http://www.w3.org/2000/svg" width="150" height="50" viewBox="0 0 39.687 13.229">
  <path fill="#e61284" d="M37.315 7.194v.91h-.944v-.91Z"/>
  <path fill="#7b124c" d="M6.778 6.496 8.67 5.431v-2.13L6.778 4.367Z"/>
  <path fill="#b31ce7" d="M4.068 10.222 2.174 9.157v-2.13l1.894 1.065ZM4.064 7.688 2.171 6.623v-2.13l1.893 1.065Z"/>
  <path fill="#e61284" d="M4.064 5.176 2.171 4.112v-2.13l1.893 1.065ZM6.388 11.53l-1.893-1.066v-2.13L6.388 9.4Z"/>
  <path fill="#58168b" d="M10.803 1.7 8.91 2.765 7.016 1.7Z"/>
  <path fill="#e61284" d="M6.388 9.001 4.495 7.936v-2.13l1.893 1.065ZM6.388 6.473 4.495 5.408v-2.13l1.893 1.065Z"/>
  <g fill="#5b1096">
    <path d="M8.478 2.931 6.585 1.866 4.692 2.931l1.893 1.065ZM2.446 1.7 4.34 2.765 6.233 1.7ZM9.098 10.246l1.893-1.065V7.05L9.098 8.116ZM9.101 7.712l1.893-1.065v-2.13L9.101 5.582Z"/>
  </g>
  <path fill="#7b124c" d="m9.101 5.2 1.893-1.065v-2.13L9.101 3.07ZM6.778 11.553l1.893-1.065v-2.13L6.778 9.423ZM6.778 9.025 8.67 7.96V5.83L6.778 6.895Z"/>
  <g fill="#fff">
    <path d="M18.46 4.204v.97h-1.037V8.11h-1.225V5.175h-1.026v-.971ZM20.751 8.11l-.74-1.402V8.11h-1.224V4.204h1.82q.475 0 .812.17.336.166.502.459.17.287.17.65 0 .392-.22.696-.215.303-.623.436l.85 1.495Zm-.74-2.218h.486q.177 0 .265-.077.088-.083.088-.254 0-.154-.093-.243-.089-.088-.26-.088h-.485ZM23.708 4.204V8.11h-1.225V4.204ZM25.485 7.183h1.181v.927h-2.405V4.204h1.224ZM28.955 4.138q.551 0 1.01.259.457.254.722.712.27.457.27 1.031t-.27 1.032q-.265.458-.728.717-.458.26-1.004.26-.552 0-1.015-.26-.458-.26-.729-.717-.27-.458-.27-1.032t.27-1.031.729-.712q.463-.26 1.015-.26m0 1.13q-.37 0-.569.238-.198.232-.198.634 0 .397.198.635.199.231.569.231.364 0 .562-.231.199-.238.199-.635 0-.402-.199-.634-.198-.237-.562-.237M35.14 8.11h-1.225l-1.297-1.964V8.11h-1.224V4.204h1.224L33.915 6.2V4.204h1.225Z"/>
  </g>
</svg>