<svg version="1.1" id="Layer_1" xmlns="http://www.w3.org/2000/svg" xmlns:xlink="http://www.w3.org/1999/xlink" x="0px" y="0px" viewBox="0 0 102 39" style="enable-background:new 0 0 102 39;" xml:space="preserve">
              <path class="logo-icon stop-loader" d="M19.1,1C9.1,1,1,9.1,1,19.1s8.1,18.1,18.1,18.1V1z"></path>
              <g class="logo-text show-per-letter">
                <path class="logo-text-1" d="M42.6,26.2c-3.6,0-6-2.4-6-6.9V19c0-4.3,2.6-7.1,5.9-7.1c2.6,0,4.7,1.1,5.1,4h2.9c-0.6-4.7-4.2-6.4-8-6.4
                  c-4.9,0-9,3.8-9,9.4v0.3c0,5.7,3.9,9.4,9.1,9.4c4.1,0.2,7.7-2.8,8.1-6.9h-2.8C47.6,24.4,45.3,26.4,42.6,26.2z"></path>
                <rect class="logo-text-2" x="56.2" y="2.2" width="3" height="26.1"></rect>
                <polygon class="logo-text-3" points="71,9.8 63.7,28.3 66.9,28.3 72.9,12.5 78.8,28.3 82.1,28.3 74.8,9.8  "></polygon>
                <polygon class="logo-text-4" points="97.9,9.8 92.4,24.4 86.7,9.8 83.6,9.8 90.8,27.8 87.5,35.9 90.5,35.9 101,9.8   "></polygon>
              </g>
            </svg>