<svg enable-background="new 0 0 102 39" viewBox="0 0 102 39" xmlns="http://www.w3.org/2000/svg"><path d="m19.1 1c-10 0-18.1 8.1-18.1 18.1s8.1 18.1 18.1 18.1z"/><path d="m42.6 26.2c-3.6 0-6-2.4-6-6.9v-.3c0-4.3 2.6-7.1 5.9-7.1 2.6 0 4.7 1.1 5.1 4h2.9c-.6-4.7-4.2-6.4-8-6.4-4.9 0-9 3.8-9 9.4v.3c0 5.7 3.9 9.4 9.1 9.4 4.1.2 7.7-2.8 8.1-6.9h-2.8c-.3 2.7-2.6 4.7-5.3 4.5z"/><path d="m56.2 2.2h3v26.1h-3z"/><path d="m71 9.8-7.3 18.5h3.2l6-15.8 5.9 15.8h3.3l-7.3-18.5z"/><path d="m97.9 9.8-5.5 14.6-5.7-14.6h-3.1l7.2 18-3.3 8.1h3l10.5-26.1z"/></svg>