<svg height="213" viewBox="0 0 446 213" width="446" xmlns="http://www.w3.org/2000/svg"><g fill-rule="evenodd"><path d="m68.96875 77c0 3.7500187.1406236 6.7265515.421875 8.9296875h-3.3046875c-.5156276-5.3437767-1.4179623-9.5390473-2.7070313-12.5859375-1.2890689-3.0468902-3.1406129-5.2382746-5.5546874-6.5742188-2.4140746-1.3359441-5.6132614-2.0039062-9.5976563-2.0039062h-10.546875c-3.4687673 0-5.9882734.2695286-7.5585937.8085938-1.5703204.5390651-2.6484346 1.628898-3.234375 3.2695312-.5859405 1.6406332-.8789063 4.265607-.8789063 7.875v26.789062h11.953125c3.0468902 0 5.4023354-.785148 7.0664063-2.355468 1.6640708-1.5703206 2.7773409-3.3046783 3.3398437-5.2031252.5625028-1.898447 1.0781227-4.2773295 1.546875-7.1367188h3.3046875c-.3281266 3.7500187-.4921875 7.3124831-.4921875 10.6875l.0703125 5.414062c0 3.84377.3046845 9.234341.9140625 16.171876h-3.375c-.3750019-2.95314-.9023404-5.460928-1.5820313-7.523438-.6796908-2.06251-1.8749914-3.773431-3.5859374-5.132812-1.7109461-1.359382-4.1132658-2.039063-7.2070313-2.039063h-11.953125v27.351563c0 3.609393.3749962 6.234366 1.125 7.875.7500038 1.640633 2.1093652 2.765621 4.078125 3.375 1.9687598.609378 5.0859162.984374 9.3515625 1.125v2.882812c-4.9687748-.281251-12.0233918-.421875-21.1640625-.421875-8.2500412 0-14.39060484.140624-18.421875.421875v-2.882812c3.46876734-.140626 5.9882734-.515622 7.55859375-1.125 1.57032035-.609379 2.64843455-1.734367 3.23437495-3.375.5859405-1.640634.8789063-4.265607.8789063-7.875v-57.023438c0-3.609393-.2929658-6.2343668-.8789063-7.875-.5859404-1.6406332-1.6640546-2.765622-3.23437495-3.375s-4.08982641-.9843743-7.55859375-1.125v-2.8828125c9.1406707.2812514 22.5702239.421875 40.2890625.421875 13.4531923 0 23.0155966-.1406236 28.6875-.421875-.6562533 5.7656538-.984375 10.9452895-.984375 15.5390625zm166.21875 69.117188v2.882812c-3.93752-.281251-9.070281-.421875-15.398438-.421875-8.250041 0-14.414042.140624-18.492187.421875v-2.882812c3.609393-.140626 6.234367-.585934 7.875-1.335938s2.460937-2.062491 2.460937-3.9375c0-1.734384-.656243-4.007798-1.96875-6.820312l-7.242187-16.382813h-35.15625l-4.851563 10.757813c-1.593757 3.703143-2.390624 6.773425-2.390624 9.210937 0 5.062525 3.726525 7.898434 11.179687 8.507813v2.882812c-2.859389-.281251-7.218721-.421875-13.078125-.421875s-10.031238.140624-12.515625.421875v-2.882812c2.531263-.656254 4.734366-2.121083 6.609375-4.394532s3.609367-5.2617 5.203125-8.964844l31.78125-71.9999995h2.320313l33.679687 76.1484375c2.625013 5.953155 5.953105 9.023437 9.984375 9.210938zm-50.273438-67.992188-16.382812 36.632812h32.625zm72.527344 55.722656c1.429695.820317 2.554684 1.945306 3.375 3.375.820317 1.429695 1.230469 2.964836 1.230469 4.605469s-.410152 3.164055-1.230469 4.570313c-.820316 1.406257-1.945305 2.531245-3.375 3.375-1.429694.843754-2.964835 1.265624-4.605468 1.265624-1.640634 0-3.175775-.42187-4.605469-1.265624-1.429695-.843755-2.554684-1.968743-3.375-3.375-.820317-1.406258-1.230469-2.92968-1.230469-4.570313s.410152-3.175774 1.230469-4.605469c.820316-1.429694 1.945305-2.554683 3.375-3.375 1.429694-.820316 2.964835-1.230468 4.605469-1.230468 1.640633 0 3.175774.410152 4.605468 1.230468zm99.703125-68.0624998c-1.617195.8203167-2.730465 2.1679594-3.339843 4.0429688-.609379 1.8750094-.914063 4.6406067-.914063 8.296875v71.578125h-3.304687l-57.585938-79.734375v62.296875c0 3.703144.328122 6.492178.984375 8.367187.656253 1.87501 1.88671 3.222653 3.691406 4.042969 1.804697.820317 4.60545 1.300781 8.402344 1.441407v2.882812c-3.421892-.281251-8.320281-.421875-14.695313-.421875-5.718778 0-10.171859.140624-13.359374.421875v-2.882812c3.328141-.140626 5.800773-.62109 7.417968-1.441407 1.617196-.820316 2.730466-2.167959 3.339844-4.042969.609378-1.875009.914062-4.664043.914062-8.367187v-55.546875c0-3.609393-.292965-6.2343668-.878906-7.875-.58594-1.6406332-1.664054-2.765622-3.234375-3.375-1.57032-.609378-4.089826-.9843743-7.558593-1.125v-2.8828125c3.14064.2812514 7.593721.421875 13.359374.421875 5.296902 0 9.726545-.1406236 13.289063-.421875l45.914063 63.9140625v-47.25c0-3.7031435-.316404-6.4804595-.949219-8.3320312-.632816-1.8515718-1.863272-3.1874959-3.691407-4.0078126-1.828134-.8203166-4.640606-1.3007805-8.4375-1.4414062v-2.8828125c3.421893.2812514 8.320281.421875 14.695313.421875 5.765654 0 10.218734-.1406236 13.359375-.421875v2.8828125c-3.328142.1406257-5.800773.6210896-7.417969 1.4414062zm35.964844 79.9101558h31.640625c3.375017 0 6.164051-.761711 8.367188-2.285156 2.203136-1.523445 3.972649-4.042951 5.308593-7.558594 1.335944-3.515642 2.261716-8.24997 2.777344-14.203124h3.304687c-.281251 3.000015-.421874 6.937475-.421874 11.8125 0 4.593772.328121 9.773408.984374 15.539062-6.796908-.281251-18.257731-.421875-34.382812-.421875-15.375077 0-26.57809.140624-33.609375.421875v-2.882812l50.835937-81.351563h-30.234374c-3.328142 0-6.105458.7617111-8.332032 2.2851562-2.226573 1.5234452-3.996087 4.0429512-5.308594 7.5585938-1.312506 3.5156426-2.226559 8.2499702-2.742187 14.203125h-3.304687c.281251-3.0468902.421874-6.9843509.421874-11.8125 0-4.593773-.328121-9.7734087-.984374-15.5390625 6.796908.2812514 18.257731.421875 34.382812.421875 14.671948 0 25.382779-.1406236 32.132812-.421875v2.8828125z"/><path d="m70 212.0625 78.328125-212.0625h9.421875l-78.328125 212.0625z"/></g></svg>