<?xml version="1.0" encoding="UTF-8" standalone="no"?>
<!-- Created with Inkscape (http://www.inkscape.org/) -->

<svg
   xmlns:dc="http://purl.org/dc/elements/1.1/"
   xmlns:cc="http://creativecommons.org/ns#"
   xmlns:rdf="http://www.w3.org/1999/02/22-rdf-syntax-ns#"
   xmlns:svg="http://www.w3.org/2000/svg"
   xmlns="http://www.w3.org/2000/svg"
   xmlns:sodipodi="http://sodipodi.sourceforge.net/DTD/sodipodi-0.dtd"
   xmlns:inkscape="http://www.inkscape.org/namespaces/inkscape"
   width="180mm"
   height="180mm"
   viewBox="0 0 180 180"
   version="1.1"
   id="svg1360"
   inkscape:version="0.92.2 (5c3e80d, 2017-08-06)"
   sodipodi:docname="bober.svg">
  <defs
     id="defs1354">
    <clipPath
       clipPathUnits="userSpaceOnUse"
       id="clipPath286">
      <path
         d="M 0,700 H 700 V 0 H 0 Z"
         id="path284"
         inkscape:connector-curvature="0" />
    </clipPath>
  </defs>
  <sodipodi:namedview
     id="base"
     pagecolor="#ffffff"
     bordercolor="#666666"
     borderopacity="1.0"
     inkscape:pageopacity="0.0"
     inkscape:pageshadow="2"
     inkscape:zoom="0.35"
     inkscape:cx="-37.142857"
     inkscape:cy="560"
     inkscape:document-units="mm"
     inkscape:current-layer="layer1"
     showgrid="false"
     inkscape:window-width="1680"
     inkscape:window-height="987"
     inkscape:window-x="-8"
     inkscape:window-y="-8"
     inkscape:window-maximized="1" />
  <metadata
     id="metadata1357">
    <rdf:RDF>
      <cc:Work
         rdf:about="">
        <dc:format>image/svg+xml</dc:format>
        <dc:type
           rdf:resource="http://purl.org/dc/dcmitype/StillImage" />
        <dc:title></dc:title>
      </cc:Work>
    </rdf:RDF>
  </metadata>
  <g
     inkscape:label="Layer 1"
     inkscape:groupmode="layer"
     id="layer1"
     transform="translate(0,-117)">
    <g
       id="g280"
       transform="matrix(0.27024301,0,0,-0.27024301,-6.1386521,303.13865)">
      <g
         id="g282"
         clip-path="url(#clipPath286)">
        <g
           id="g288"
           transform="translate(171.7559,528.2441)">
          <path
             d="m 0,0 c 47.611,47.611 110.913,73.831 178.244,73.831 67.331,0 130.633,-26.22 178.244,-73.831 47.611,-47.611 73.831,-110.912 73.831,-178.244 0,-9.424 -0.532,-18.766 -1.547,-28 H 276.395 l -92.378,160 30.311,52.5 -8.661,5 -27.423,-47.5 -27.424,47.498 -8.66,-5 30.31,-52.498 -92.376,-160 H -72.285 c -1.014,9.234 -1.546,18.576 -1.546,28 0,67.332 26.22,130.633 73.831,178.244 m 172.47,-156.243 -28.866,-50.001 H 91.641 l 54.848,95 z m 28.868,-50.001 H 155.15 l 23.093,40 z m -49.075,105 25.981,45 86.604,-150 h -51.964 z m 204.225,-255.244 c -47.611,-47.611 -110.913,-73.831 -178.244,-73.831 -67.331,0 -130.633,26.22 -178.244,73.831 -38.531,38.531 -63.045,87.341 -70.997,140.244 H 74.321 282.167 427.485 c -7.952,-52.903 -32.466,-101.713 -70.997,-140.244 m -178.244,-83.831 c 70.003,0 135.816,27.26 185.316,76.759 49.499,49.5 76.759,115.313 76.759,185.316 0,70.003 -27.26,135.815 -76.759,185.315 -49.5,49.499 -115.313,76.76 -185.316,76.76 -70.003,0 -135.815,-27.261 -185.315,-76.76 -49.499,-49.5 -76.76,-115.312 -76.76,-185.315 0,-70.003 27.261,-135.816 76.76,-185.316 49.5,-49.499 115.312,-76.759 185.315,-76.759"
             style="fill:#0e08f9;fill-opacity:1;fill-rule:nonzero;stroke:none"
             id="path290"
             inkscape:connector-curvature="0" />
        </g>
        <g
           id="g292"
           transform="translate(115.3291,146.5576)">
          <path
             d="M 0,0 24.159,20.271 17.731,27.932 -6.44,7.65 c -3.614,4.433 -7.086,8.955 -10.432,13.554 L 8.996,39.316 3.26,47.508 -22.627,29.382 c -3.212,4.726 -6.3,9.523 -9.234,14.402 l 27.411,15.826 -5,8.661 -27.412,-15.828 c -2.784,4.987 -5.419,10.046 -7.915,15.17 l 28.702,13.386 -4.227,9.063 -28.719,-13.393 c -2.33,5.208 -4.513,10.48 -6.549,15.81 l 29.777,10.839 -3.42,9.397 -29.76,-10.832 c -1.858,5.388 -3.572,10.83 -5.131,16.324 l 30.576,8.194 -2.589,9.659 -30.573,-8.194 c -1.375,5.525 -2.584,11.101 -3.656,16.714 l 31.124,5.489 -1.736,9.848 -31.1,-5.484 c -0.885,5.617 -1.629,11.27 -2.208,16.96 l 31.435,2.75 -0.872,9.962 -31.419,-2.749 c -0.396,5.666 -0.628,11.364 -0.718,17.084 h 31.512 v 10 H -75.84 c 0.089,5.721 0.322,11.418 0.718,17.084 l 31.42,-2.749 0.871,9.963 -31.436,2.75 c 0.58,5.69 1.323,11.343 2.208,16.96 l 31.101,-5.483 1.736,9.847 -31.124,5.489 c 1.071,5.613 2.28,11.189 3.655,16.714 l 30.576,-8.194 2.588,9.66 -30.577,8.193 c 1.558,5.494 3.271,10.936 5.13,16.325 l 29.762,-10.832 3.42,9.396 -29.779,10.838 c 2.035,5.331 4.219,10.603 6.549,15.811 l 28.721,-13.392 4.227,9.063 -28.705,13.385 c 2.496,5.125 5.132,10.184 7.915,15.17 l 27.415,-15.827 5,8.66 -27.414,15.827 c 2.934,4.879 6.022,9.676 9.234,14.403 l 25.89,-18.128 5.736,8.191 -25.871,18.115 c 3.347,4.598 6.818,9.121 10.432,13.553 l 24.173,-20.283 6.428,7.66 -24.161,20.273 c 3.727,4.286 7.59,8.48 11.572,12.589 l 22.283,-22.283 7.071,7.072 -22.283,22.282 c 4.109,3.982 8.302,7.846 12.588,11.572 l 20.274,-24.16 7.66,6.428 -20.284,24.172 c 4.433,3.613 8.956,7.086 13.554,10.432 l 18.114,-25.869 8.191,5.736 -18.127,25.888 c 4.726,3.212 9.524,6.3 14.402,9.234 l 15.828,-27.413 8.66,5 -15.828,27.415 c 4.987,2.782 10.046,5.419 15.171,7.915 l 13.385,-28.704 9.063,4.227 -13.393,28.72 c 5.209,2.329 10.481,4.513 15.811,6.549 l 10.839,-29.778 9.396,3.42 -10.832,29.76 c 5.388,1.859 10.83,3.573 16.324,5.131 l 8.193,-30.576 9.66,2.588 -8.193,30.575 c 5.525,1.375 11.1,2.584 16.714,3.655 l 5.488,-31.124 9.847,1.736 -5.483,31.101 c 5.618,0.885 11.271,1.628 16.961,2.208 l 2.75,-31.435 9.961,0.871 -2.749,31.419 c 5.667,0.396 11.364,0.629 17.085,0.719 v -31.512 h 10 v 31.512 c 5.721,-0.09 11.418,-0.323 17.084,-0.719 l -2.746,-31.42 9.963,-0.87 2.746,31.435 c 5.689,-0.58 11.343,-1.323 16.96,-2.208 l -5.48,-31.101 9.848,-1.736 5.485,31.124 c 5.613,-1.071 11.189,-2.28 16.713,-3.655 l -8.188,-30.576 9.659,-2.587 8.188,30.576 c 5.495,-1.558 10.937,-3.272 16.325,-5.13 l -10.829,-29.762 9.397,-3.419 10.835,29.778 c 5.331,-2.036 10.602,-4.22 15.811,-6.549 l -13.39,-28.721 9.063,-4.226 13.382,28.704 c 5.125,-2.496 10.185,-5.133 15.172,-7.915 l -15.826,-27.415 8.66,-5 15.824,27.414 c 4.879,-2.934 9.677,-6.022 14.403,-9.234 l -18.126,-25.89 8.192,-5.735 18.112,25.869 c 4.598,-3.346 9.12,-6.818 13.554,-10.431 l -20.282,-24.174 7.66,-6.427 20.271,24.161 c 4.286,-3.727 8.48,-7.591 12.589,-11.573 l -22.281,-22.282 7.07,-7.072 22.282,22.284 c 3.982,-4.11 7.845,-8.303 11.573,-12.59 l -24.16,-20.273 6.427,-7.66 24.172,20.283 c 3.613,-4.432 7.085,-8.955 10.432,-13.553 l -25.868,-18.114 5.736,-8.191 25.888,18.127 c 3.212,-4.727 6.299,-9.523 9.233,-14.402 l -27.412,-15.828 5,-8.66 27.413,15.828 c 2.783,-4.987 5.419,-10.046 7.915,-15.17 l -28.702,-13.386 4.227,-9.062 28.718,13.392 c 2.33,-5.208 4.514,-10.48 6.549,-15.811 l -29.776,-10.839 3.42,-9.396 29.759,10.833 c 1.859,-5.389 3.573,-10.831 5.13,-16.325 l -30.574,-8.193 2.588,-9.659 30.573,8.193 c 1.375,-5.525 2.584,-11.101 3.655,-16.714 l -31.123,-5.489 1.737,-9.847 31.099,5.484 c 0.886,-5.618 1.628,-11.27 2.208,-16.96 l -31.433,-2.75 0.871,-9.963 31.418,2.749 c 0.395,-5.666 0.629,-11.363 0.719,-17.084 h -31.51 v -10 h 31.51 c -0.09,-5.72 -0.324,-11.418 -0.719,-17.084 l -31.417,2.749 -0.871,-9.962 31.432,-2.75 c -0.58,-5.69 -1.322,-11.342 -2.208,-16.96 l -31.097,5.483 -1.737,-9.848 31.121,-5.487 c -1.071,-5.613 -2.279,-11.188 -3.654,-16.713 l -30.572,8.192 -2.588,-9.661 30.573,-8.191 c -1.558,-5.493 -3.272,-10.936 -5.131,-16.323 l -29.757,10.83 -3.42,-9.397 29.775,-10.837 c -2.036,-5.33 -4.22,-10.601 -6.55,-15.81 l -28.717,13.39 -4.226,-9.062 28.701,-13.383 c -2.496,-5.125 -5.132,-10.184 -7.915,-15.171 l -27.411,15.825 -5,-8.66 27.41,-15.825 c -2.934,-4.879 -6.022,-9.676 -9.233,-14.402 l -25.886,18.126 -5.736,-8.192 25.866,-18.112 c -3.347,-4.598 -6.819,-9.12 -10.432,-13.553 l -24.17,20.281 -6.427,-7.661 24.158,-20.27 c -3.727,-4.286 -7.59,-8.48 -11.572,-12.588 l -22.282,22.279 -7.07,-7.072 22.281,-22.278 c -4.109,-3.983 -8.303,-7.846 -12.589,-11.573 l -20.272,24.157 -7.66,-6.428 20.283,-24.169 c -4.433,-3.613 -8.955,-7.085 -13.554,-10.431 l -18.113,25.866 -8.192,-5.737 18.127,-25.884 c -4.725,-3.212 -9.523,-6.3 -14.401,-9.235 l -15.827,27.41 -8.66,-5 15.827,-27.411 c -4.986,-2.783 -10.046,-5.419 -15.171,-7.915 l -13.385,28.701 -9.062,-4.226 13.392,-28.718 c -5.209,-2.33 -10.48,-4.514 -15.811,-6.55 l -10.838,29.777 -9.397,-3.42 10.832,-29.759 c -5.387,-1.86 -10.83,-3.572 -16.324,-5.131 l -8.192,30.574 -9.659,-2.588 8.192,-30.573 c -5.525,-1.376 -11.101,-2.585 -16.714,-3.655 l -5.488,31.122 -9.848,-1.737 5.485,-31.098 c -5.619,-0.886 -11.272,-1.629 -16.96,-2.208 l -2.75,31.432 -9.962,-0.871 2.748,-31.418 c -5.666,-0.395 -11.363,-0.628 -17.084,-0.718 v 31.51 h -10 v -31.51 c -5.721,0.09 -11.418,0.323 -17.084,0.718 l 2.748,31.418 -9.962,0.871 -2.75,-31.433 c -5.689,0.579 -11.342,1.322 -16.96,2.207 l 5.484,31.099 -9.847,1.736 -5.489,-31.122 c -5.613,1.071 -11.189,2.28 -16.713,3.655 l 8.192,30.572 -9.659,2.588 -8.193,-30.574 c -5.494,1.559 -10.936,3.272 -16.324,5.131 l 10.831,29.759 -9.396,3.42 -10.838,-29.776 c -5.331,2.035 -10.603,4.219 -15.811,6.549 l 13.391,28.718 -9.063,4.226 -13.384,-28.702 c -5.124,2.496 -10.184,5.133 -15.171,7.915 l 15.827,27.413 -8.66,5 -15.826,-27.412 c -4.879,2.935 -9.677,6.023 -14.403,9.234 l 18.126,25.888 -8.191,5.737 -18.113,-25.87 c -4.599,3.347 -9.121,6.819 -13.554,10.432 l 20.282,24.172 -7.66,6.428 -20.272,-24.16 c -4.286,3.727 -8.48,7.59 -12.589,11.573 L 40.925,2.622 33.854,9.692 11.573,-12.589 C 7.591,-8.479 3.727,-4.286 0,0 m 461.35,430.121 c -60.548,60.548 -141.051,93.894 -226.679,93.894 -85.628,0 -166.131,-33.346 -226.679,-93.894 -60.548,-60.548 -93.893,-141.051 -93.893,-226.679 0,-85.628 33.345,-166.13 93.893,-226.678 60.548,-60.548 141.051,-93.894 226.679,-93.894 85.627,0 166.13,33.346 226.679,93.894 60.547,60.549 93.893,141.05 93.893,226.678 0,85.628 -33.346,166.131 -93.893,226.679"
             style="fill:#0e08f9;fill-opacity:1;fill-rule:nonzero;stroke:none"
             id="path294"
             inkscape:connector-curvature="0" />
        </g>
        <path
           d="m 511,440 h -86 v -10 h 86 z"
           style="fill:#0e08f9;fill-opacity:1;fill-rule:nonzero;stroke:none"
           id="path296"
           inkscape:connector-curvature="0" />
        <path
           d="m 220,440 h 50 v 10 h -50 z"
           style="fill:#0e08f9;fill-opacity:1;fill-rule:nonzero;stroke:none"
           id="path298"
           inkscape:connector-curvature="0" />
        <path
           d="m 170,400 h 50 v 10 h -50 z"
           style="fill:#0e08f9;fill-opacity:1;fill-rule:nonzero;stroke:none"
           id="path300"
           inkscape:connector-curvature="0" />
        <path
           d="m 240,470 h -50 v -10 h 50 z"
           style="fill:#0e08f9;fill-opacity:1;fill-rule:nonzero;stroke:none"
           id="path302"
           inkscape:connector-curvature="0" />
        <path
           d="m 175,470 h -17 v -10 h 17 z"
           style="fill:#0e08f9;fill-opacity:1;fill-rule:nonzero;stroke:none"
           id="path304"
           inkscape:connector-curvature="0" />
        <path
           d="m 290,490 h -50 v -10 h 50 z"
           style="fill:#0e08f9;fill-opacity:1;fill-rule:nonzero;stroke:none"
           id="path306"
           inkscape:connector-curvature="0" />
        <path
           d="m 502,410 h 63 v 10 h -63 z"
           style="fill:#0e08f9;fill-opacity:1;fill-rule:nonzero;stroke:none"
           id="path308"
           inkscape:connector-curvature="0" />
        <path
           d="m 464,410 h 23 v 10 h -23 z"
           style="fill:#0e08f9;fill-opacity:1;fill-rule:nonzero;stroke:none"
           id="path310"
           inkscape:connector-curvature="0" />
        <path
           d="m 446,370 h 53 v 10 h -53 z"
           style="fill:#0e08f9;fill-opacity:1;fill-rule:nonzero;stroke:none"
           id="path312"
           inkscape:connector-curvature="0" />
        <path
           d="m 526,350 h 20 v 10 h -20 z"
           style="fill:#0e08f9;fill-opacity:1;fill-rule:nonzero;stroke:none"
           id="path314"
           inkscape:connector-curvature="0" />
        <path
           d="m 213.432,194.873 h 31.841 v 8.375 h -31.841 z"
           style="fill:#0e08f9;fill-opacity:1;fill-rule:nonzero;stroke:none"
           id="path316"
           inkscape:connector-curvature="0" />
        <g
           id="g318"
           transform="translate(258.0273,237.0732)">
          <path
             d="m 0,0 h 12.495 v -40.65 c 0,-0.454 -0.146,-0.788 -0.474,-1.081 C 11.668,-42.047 11.177,-42.2 10.52,-42.2 H -2.465 v -8.375 h 14.346 c 2.869,0 5.254,0.944 7.088,2.806 1.826,1.859 2.752,4.397 2.752,7.544 v 48.6 L 0,8.375 Z"
             style="fill:#0e08f9;fill-opacity:1;fill-rule:nonzero;stroke:none"
             id="path320"
             inkscape:connector-curvature="0" />
        </g>
        <path
           d="m 270.013,252.798 h 10.075 v 9.65 h -10.075 z"
           style="fill:#0e08f9;fill-opacity:1;fill-rule:nonzero;stroke:none"
           id="path322"
           inkscape:connector-curvature="0" />
        <g
           id="g324"
           transform="translate(304.8145,228.3633)">
          <path
             d="m 0,0 h -2.891 c -0.963,0 -1.714,0.232 -2.3,0.71 -0.525,0.427 -0.78,1.119 -0.78,2.115 v 3.06 c 0,0.938 0.282,1.592 0.883,2.053 0.669,0.512 1.609,0.772 2.793,0.772 h 13.239 v 8.375 H -1.445 c -4.401,0 -7.81,-0.914 -10.134,-2.718 -2.4,-1.863 -3.616,-4.888 -3.616,-8.992 V 2.91 c 0,-4.021 1.099,-7.034 3.269,-8.952 2.134,-1.887 5.346,-2.843 9.545,-2.843 h 3.146 c 1.885,0 2.655,-0.818 2.655,-2.825 v -4.505 c 0,-0.941 -0.27,-1.619 -0.825,-2.075 -0.607,-0.497 -1.566,-0.75 -2.851,-0.75 h -14.515 v -8.375 h 13.666 c 4.351,0 7.751,0.961 10.104,2.855 2.419,1.949 3.646,4.899 3.646,8.77 v 3.825 c 0,3.899 -1.109,6.904 -3.295,8.936 C 7.183,-1.02 4.037,0 0,0"
             style="fill:#0e08f9;fill-opacity:1;fill-rule:nonzero;stroke:none"
             id="path326"
             inkscape:connector-curvature="0" />
        </g>
        <g
           id="g328"
           transform="translate(329.3408,241.9551)">
          <path
             d="m 0,0 c -2.556,-2.34 -3.853,-6.076 -3.853,-11.106 v -15.301 c 0,-5.087 1.283,-8.839 3.811,-11.151 2.502,-2.289 6.418,-3.449 11.64,-3.449 h 11.965 v 8.375 H 10.747 c -1.834,0 -3.211,0.401 -4.093,1.191 -0.862,0.771 -1.282,1.862 -1.282,3.335 v 18.699 c 0,1.471 0.42,2.562 1.283,3.335 0.882,0.79 2.259,1.19 4.092,1.19 H 23.563 V 3.493 H 11.598 C 6.433,3.493 2.53,2.318 0,0"
             style="fill:#0e08f9;fill-opacity:1;fill-rule:nonzero;stroke:none"
             id="path330"
             inkscape:connector-curvature="0" />
        </g>
        <g
           id="g332"
           transform="translate(370.1094,216.8232)">
          <path
             d="M 0,0 C 0,1.208 0.377,2.173 1.152,2.948 1.926,3.723 2.891,4.1 4.1,4.1 h 9.625 v -8.35 c 0,-1.065 -0.186,-1.928 -0.549,-2.564 C 12.924,-7.257 12.086,-7.5 10.816,-7.5 H 3.25 C 2.059,-7.5 1.211,-7.256 0.729,-6.772 0.244,-6.29 0,-5.441 0,-4.25 Z m 23.473,-7.449 c -0.258,0.168 -0.522,0.428 -0.522,1.074 v 20.4 c 0,5.028 -1.297,8.764 -3.853,11.107 C 16.564,27.45 12.662,28.625 7.5,28.625 H -5.824 V 20.25 H 8.35 c 1.832,0 3.211,-0.4 4.093,-1.189 0.862,-0.774 1.282,-1.866 1.282,-3.336 v -3.25 H 4.186 C -4.588,12.475 -9.225,7.573 -9.225,-1.7 v -1.7 c 0,-4.473 1.1,-7.713 3.27,-9.631 2.133,-1.887 5.514,-2.844 10.055,-2.844 h 7.566 c 2.063,0 3.807,0.69 5.195,2.055 0.534,-0.503 1.129,-0.926 1.782,-1.263 1.015,-0.525 1.984,-0.792 2.882,-0.792 h 5.676 v 7.95 h -1 c -1.742,0 -2.455,0.297 -2.728,0.476"
             style="fill:#0e08f9;fill-opacity:1;fill-rule:nonzero;stroke:none"
             id="path334"
             inkscape:connector-curvature="0" />
        </g>
        <g
           id="g336"
           transform="translate(433.9531,245.4482)">
          <path
             d="M 0,0 H -0.51 C -3.451,0 -5.924,-0.971 -7.877,-2.89 -9.758,-0.971 -12.592,0 -16.32,0 h -0.51 c -1.565,0 -2.992,-0.349 -4.27,-1.039 V 0 h -8.375 v -44.5 h 8.799 v 32.915 c 0.047,1.064 0.352,1.992 0.93,2.836 0.486,0.709 1.385,1.054 2.746,1.054 h 0.51 c 1.664,0 2.082,-0.648 2.219,-0.859 0.314,-0.49 0.691,-1.641 0.691,-4.346 v -31.6 h 8.799 v 32.155 c 0.049,1.25 0.365,2.4 0.935,3.418 0.297,0.529 0.895,1.232 2.657,1.232 h 0.509 c 0.889,0 2.024,-0.144 2.389,-0.827 0.275,-0.523 0.605,-1.707 0.605,-4.378 v -31.6 h 8.801 v 31.515 c 0,4.782 -0.894,8.064 -2.736,10.034 C 6.545,-0.993 3.727,0 0,0"
             style="fill:#0e08f9;fill-opacity:1;fill-rule:nonzero;stroke:none"
             id="path338"
             inkscape:connector-curvature="0" />
        </g>
        <g
           id="g340"
           transform="translate(462.6836,233.3984)">
          <path
             d="m 0,0 c 0,0.883 0.359,1.704 1.1,2.513 0.705,0.771 1.857,1.162 3.425,1.162 h 4.76 c 1.832,0 3.209,-0.401 4.094,-1.191 C 14.24,1.712 14.66,0.621 14.66,-0.851 V -19.55 c 0,-1.471 -0.418,-2.562 -1.281,-3.335 -0.883,-0.79 -2.26,-1.19 -4.094,-1.19 H 0 Z M 20.074,8.601 C 17.57,10.89 13.654,12.05 8.436,12.05 H 5.375 c -2.215,0 -4.158,-0.415 -5.799,-1.237 V 12.05 H -9.225 V -46.9 H 0 v 14.45 h 8.436 c 5.164,0 9.066,1.175 11.597,3.493 2.557,2.34 3.852,6.077 3.852,11.106 V -2.55 c 0,5.086 -1.281,8.837 -3.811,11.151"
             style="fill:#0e08f9;fill-opacity:1;fill-rule:nonzero;stroke:none"
             id="path342"
             inkscape:connector-curvature="0" />
        </g>
      </g>
    </g>
  </g>
</svg>
