<svg viewBox="0 0 2200 640" width="230" xmlns="http://www.w3.org/2000/svg" xmlns:xlink="http://www.w3.org/1999/xlink"><linearGradient id="a"><stop offset="0" stop-color="#009fe6"/><stop offset="1" stop-color="#006db7"/></linearGradient><linearGradient id="b" gradientUnits="userSpaceOnUse" x1="327.11" x2="335.301" xlink:href="#a" y1="139.802" y2="504.749"/><linearGradient id="c" gradientUnits="userSpaceOnUse" x1="1022.205" x2="1040.926" xlink:href="#a" y1="145.843" y2="594.69"/><g fill="#5b5b5b"><path d="m66.571 515.077c6.222.258 12.53 1.131 18.408 3.284l-.001-.055.888.319 77.475-75.58 2.843 3.791c4.029 5.449 8.293 10.425 12.794 15.401l1.659 1.895c1.185 1.184 2.132 2.369 3.317 3.554l1.895 1.896 1.896 1.895 1.658 1.659 1.896 1.895 1.658 1.659 2.133 1.895 1.895 1.659c36.014 30.563 81.03 47.858 128.416 49.043 39.093.948 77.237-9.003 110.645-28.668l5.923 6.16c6.87 7.345 13.978 14.69 20.85 22.035-41.226 26.535-89.085 39.803-138.367 38.619-55.441-1.422-108.275-21.324-150.685-56.863l.235-.474-49.71 49.001c1.841 5.795 2.574 11.87 2.651 17.931 0 34.226-27.745 61.972-61.971 61.972s-61.972-27.746-61.972-61.972 27.746-61.971 61.972-61.971z"/><path d="m540.294 195.455c24.405 40.041 36.487 86.242 35.302 133.155-1.42 57.335-22.981 112.066-60.89 154.95l.238.238 30.563 32.458c12.319-1.658 24.64 2.606 33.17 11.609 14.453 15.401 13.978 39.568-1.422 54.258-15.4 14.452-39.567 13.978-54.256-1.422-8.53-9.004-12.084-21.561-9.715-33.644-14.215-15.164-39.33-41.936-53.783-57.1l-3.079-3.317 3.554-2.842c9.239-7.345 17.769-15.401 25.587-24.405 32.46-36.487 50.704-82.925 51.889-131.732.947-36.96-7.82-73.211-25.589-105.196z"/><path d="m108.579 50.632c10.892-.161 21.1 4.137 28.7 11.906 8.529 9.004 12.083 21.561 9.714 33.645l58.759 61.601-3.554 2.842c-9.241 7.345-17.77 15.401-25.589 24.405-32.458 36.486-50.702 82.925-52.124 131.732-.948 36.96 7.819 73.211 25.589 105.433l-28.196 27.483c-24.64-40.278-36.959-86.479-35.539-133.864 1.223-57.04 23.456-112.137 60.783-155.064l-32.352-33.768c-12.319 1.658-24.64-2.606-33.17-11.609-14.451-15.4-13.978-39.568 1.422-54.257 5.994-5.623 13.72-9.25 21.887-10.224 1.218-.145 2.446-.174 3.67-.261z"/><path d="m603.003 1.416c34.226 0 61.971 27.745 61.971 61.971s-27.745 61.972-61.971 61.972c-6.586.073-13.067-1.139-19.332-3.087l-.018.068-.949-.333-84.11 79.846-2.842-3.791c-4.501-5.923-9.477-11.847-14.69-17.297l-.948-1.184-2.606-2.606-.473-.474-1.659-1.659-.475-.473-2.132-2.132-1.657-1.422-1.659-1.422-2.132-1.895-1.66-1.422-2.132-1.896c-35.776-30.089-80.555-47.148-127.466-48.333-39.094-.947-77.239 8.767-110.409 28.669l-27.01-28.195c41.225-26.536 89.084-39.804 138.366-38.619 55.441 1.421 108.275 21.323 150.687 57.099h.473l55.7-52.879c-1.963-5.981-2.759-12.26-2.839-18.535 0-34.226 27.746-61.971 61.972-61.971z"/></g><path d="m332.896 139.756c7.002.031 13.986.572 20.936 1.384 99.983 12.557 170.824 103.774 158.505 203.758-12.558 99.983-103.775 170.825-203.758 158.505-99.985-12.558-170.826-103.775-158.505-203.758 11.927-92.75 89.857-159.565 182.822-159.889zm-2.749 78.304c-40.475 3.239-69.764 33.857-70.792 74.536.733 29.016 15.593 53.509 41.506 66.855l-14.082 66.216h94.416l-14.063-66.227c25.766-13.994 41.078-37.139 41.488-66.844-.549-41.98-33.035-73.581-74.633-74.633zm1.413-.393h-.236l.118.002z" fill="url(#b)"/><path d="m818.88 233.646c-4.6 0-7.82.92-13.34 8.28l-76.36 99.36 33.12-186.3c1.38-6.9-2.3-9.2-7.82-9.2h-69c-8.28 0-10.58 4.14-11.5 9.2l-59.34 336.26c-1.38 7.36 3.22 10.12 8.28 10.12h69c5.06 0 10.12-5.06 11.04-10.12l18.4-104.88 40.02 104.88c2.76 7.36 6.44 10.12 11.5 10.12h82.8c5.98 0 8.28-5.52 5.98-10.12l-58.88-128.8 104.88-119.14c3.68-3.68 3.22-9.66-3.22-9.66zm320.22 94.76c0-54.74-31.28-98.9-97.98-98.9-76.82 0-129.26 34.04-144.44 125.12l-5.06 30.36c-1.38 8.28-1.84 16.1-1.84 23.46 0 65.32 50.6 97.06 101.66 97.06 38.64 0 69.92-4.6 100.74-14.26 7.82-2.3 10.12-5.52 11.5-12.88l7.36-41.4c0-.92 0-1.38 0-1.84 0-4.14-2.76-5.98-6.9-5.98-.92 0-1.38 0-1.84 0-17.48 1.84-63.94 3.68-88.32 3.68-23 0-37.72-3.22-37.72-26.22 0-4.14.46-8.74 1.38-14.26h143.06c5.52 0 10.58-4.14 11.5-10.12l4.6-27.6c1.38-8.74 2.3-17.48 2.3-26.22zm-82.8-3.22c0 5.52-.92 11.96-2.3 18.4h-68.08c5.52-26.22 16.56-45.54 42.32-45.54 20.7 0 28.06 11.04 28.06 27.14zm392.44-84.64c0-3.68-4.14-6.9-8.28-6.9h-75.9c-5.06 0-9.66 3.68-11.5 8.74l-65.78 166.52h-3.68c-2.76 0-3.22-2.3-3.68-7.82l-8.28-158.24c-.46-5.06-2.3-9.2-7.36-9.2h-74.06c-7.82 0-11.5 3.68-11.5 8.74v1.38l26.68 218.96c2.76 23.46 14.72 31.74 36.34 31.74h5.98l-6.44 15.18c-5.52 13.34-15.18 17.48-28.06 17.48-17.48 0-45.08-2.76-62.1-3.68h-.46c-5.52 0-11.04 4.6-11.96 9.66l-7.82 44.62v1.38c0 4.14 4.14 5.52 8.74 7.36 11.96 4.6 42.32 8.28 60.72 8.28 72.22 0 98.44-28.52 120.98-77.74l126.5-273.24c.46-.92.92-2.3.92-3.22z" fill="url(#c)"/><path d="m1653.14 244.226c0-4.6-2.76-5.98-7.82-7.36-12.42-3.22-34.5-7.36-61.64-7.36-70.84 0-116.38 35.42-131.1 120.98l-5.98 34.5c-1.38 9.2-2.3 17.94-2.3 26.22 0 53.82 31.28 94.3 90.62 94.3 27.14 0 48.3-3.68 64.4-7.36 6.44-1.38 10.12-3.68 11.04-9.66l9.2-51.52c0-.46 0-.92 0-1.84 0-4.14-3.22-6.9-7.36-6.9-.46 0-.46 0-.92 0-16.1.92-30.82 2.76-53.36 2.76-15.64 0-24.84-5.52-24.84-26.22 0-5.52.46-11.96 1.84-19.78l5.98-34.5c6.44-38.18 19.78-46.46 39.56-46.46 22.54 0 36.34 2.3 51.98 3.22h.92c5.06 0 9.66-3.68 10.58-8.74l9.2-51.98c0-.92 0-1.38 0-2.3zm287.1-90.62c0-4.6-4.14-7.82-8.74-7.82h-68.54c-5.06 0-9.66 4.14-10.58 9.2l-13.8 77.74c-9.2-1.38-24.84-3.22-32.2-3.22-83.72 0-125.58 34.96-140.76 120.06l-6.44 35.88c-1.38 8.28-2.3 16.1-2.3 23.46 0 56.58 39.1 96.6 102.12 96.6 41.4 0 80.5-6.44 105.34-11.5 14.72-3.22 17.02-5.98 18.4-14.72l57.5-324.3c0-.46 0-.92 0-1.38zm-114.54 150.88-22.08 126.04c-8.74 1.38-18.4 2.3-31.74 2.3-19.78 0-26.68-11.5-26.68-29.44 0-5.52.46-11.5 1.84-17.94l6.44-35.88c4.6-26.68 15.64-46.92 41.4-46.92 11.04 0 21.62.92 30.82 1.84zm370.82 3.22c0-51.52-21.16-78.2-72.22-78.2-17.02 0-42.32 4.14-74.52 25.3l2.3-11.96c1.38-6.9-1.84-9.2-7.82-9.2h-63.02c-5.06 0-9.66 4.14-10.58 9.2l-44.16 248.4c-.92 6.44 4.14 10.12 10.58 10.12h65.78c6.9 0 11.5-4.6 12.42-10.12l31.28-178.02c8.28-4.6 25.3-10.12 39.1-10.12 15.64 0 21.62 3.68 21.62 17.94 0 7.82-1.84 15.64-3.22 23.46l-25.76 146.74c-.92 4.6 0 10.12 7.82 10.12h69c5.52 0 10.58-5.06 11.5-10.12l25.3-143.52c2.3-12.88 4.6-28.06 4.6-40.02z" fill="#5b5b5b"/><path d="m1826.663 596.957c0-1.251-.834-2.085-2.224-2.085h-12.371c-1.529 0-3.058 1.112-3.336 2.641l-2.641 15.707v.556c0 1.251.834 2.224 2.224 2.224h12.371c1.529 0 3.058-1.251 3.336-2.78l2.641-15.707c0-.139 0-.278 0-.556zm78.519-60.326c-18.07 0-32.804 7.506-37.669 33.777l-2.363 12.927c-.417 2.502-.695 4.865-.695 7.089 0 15.846 10.703 26.688 26.549 26.688 8.479 0 14.873-.973 18.209-1.807 2.78-.556 3.058-1.39 3.475-3.614l1.668-9.035c.278-1.807-.417-2.363-2.502-2.085-5.004.556-9.174.973-18.209.973-5.699 0-10.842-1.807-10.842-11.259 0-1.946.139-4.309.695-6.95l2.363-12.927c2.641-14.456 10.008-18.209 16.541-18.209 9.035 0 13.344.417 17.792.973 2.224.417 2.919-.556 3.197-2.085l1.668-9.035c.417-2.363-.139-3.058-2.363-3.614-3.058-.834-9.035-1.807-17.514-1.807zm112.018 27.383c0-14.595-8.757-27.383-27.8-27.383-21.823 0-35.167 11.815-39.337 34.611l-2.085 11.259c-.417 2.224-.556 4.448-.556 6.672 0 14.595 8.896 27.939 27.8 27.939 21.823 0 34.889-11.676 39.198-34.611l2.085-11.259c.417-2.363.695-4.865.695-7.228zm-18.487 1.112c0 1.807-.139 3.892-.556 6.116l-2.085 11.259c-2.363 12.927-8.34 18.765-18.07 18.765-8.201 0-12.232-4.448-12.232-12.649 0-1.807.139-3.892.556-6.116l2.085-11.259c2.502-13.761 9.73-18.765 18.209-18.765 8.201 0 12.093 4.448 12.093 12.649zm155.108-8.201c0-12.51-5.977-20.294-19.182-20.294-9.591 0-17.375 2.224-24.464 6.811-2.363-3.614-6.95-6.811-14.873-6.811-8.201 0-14.178 2.919-20.572 6.672l.556-2.919c.278-1.529-.556-2.78-2.363-2.78h-12.093c-1.529 0-2.919 1.251-3.197 2.78l-12.788 72.697c-.278 1.807.556 2.919 2.224 2.919h12.788c2.502 0 3.058-1.39 3.336-2.919l9.869-56.156c6.255-3.058 10.703-4.587 13.622-4.587 5.699 0 7.923 1.529 7.923 6.672 0 1.807-.139 4.031-.695 6.811l-8.34 47.26c-.417 2.085.556 2.919 2.224 2.919h12.788c2.502 0 3.058-1.39 3.336-2.919l8.34-47.26c.556-3.475.834-7.089.695-10.008 5.56-2.641 11.398-3.475 14.039-3.475 5.977 0 8.34 1.668 8.34 7.089 0 1.668-.278 3.753-.695 6.394l-8.34 47.26c-.278 1.807.556 2.919 2.224 2.919h12.788c2.641 0 3.058-1.39 3.336-2.919l8.34-47.26c.556-3.197.834-6.116.834-8.896z" fill="#5b5b5b"/></svg>