<?xml version="1.0" encoding="utf-8"?>
<!-- Generator: Adobe Illustrator 21.0.2, SVG Export Plug-In . SVG Version: 6.00 Build 0)  -->
<svg version="1.1" id="Layer_1" xmlns="http://www.w3.org/2000/svg" xmlns:xlink="http://www.w3.org/1999/xlink" x="0px" y="0px"
	 viewBox="0 0 672.8 173.6" style="enable-background:new 0 0 672.8 173.6;" xml:space="preserve">
<style type="text/css">
	.st0{fill:#00A8FF;}
	.st1{fill:#FFFFFF;}
</style>
<title>logo_np</title>
<g id="_Group_2">
	<path id="_Compound_Path_" class="st0" d="M207.7,80c3.5-8.2,10-14.7,18.2-18.1c8.5-3.5,18.1-3.5,26.6,0c4.1,1.7,7.7,4.2,10.9,7.3
		c3.1,3.1,5.7,6.8,7.4,10.8c1.8,4.2,2.7,8.7,2.7,13.3v34.2h-13.5V93.3c0-2.7-0.5-5.5-1.6-8c-3.3-7.6-10.8-12.6-19.2-12.5
		c-2.7,0-5.5,0.5-8,1.6c-2.5,1-4.7,2.5-6.6,4.4c-1.9,1.9-3.4,4.1-4.4,6.5c-1.1,2.5-1.6,5.3-1.6,8v34.2H205V93.3
		C205,88.7,205.9,84.2,207.7,80z"/>
	<path id="_Compound_Path_2" class="st0" d="M333.5,103.3l9.6,9.6l-4.7,4.7c-13.3,13.4-34.9,13.4-48.2,0.1c0,0-0.1-0.1-0.1-0.1
		c-3.3-3.2-5.8-7.1-7.5-11.3c-1.6-4.1-2.4-8.5-2.4-12.8c0-4.4,0.8-8.7,2.4-12.8c1.7-4.2,4.2-8.1,7.4-11.3c3.2-3.3,7.1-5.8,11.3-7.5
		c8.2-3.3,17.5-3.3,25.7,0c4.3,1.7,8.1,4.3,11.3,7.5l4.8,4.7L305.3,112c7.9,3.9,17.4,2.3,23.6-4L333.5,103.3z M299.6,78.8
		c-6.3,6.2-7.9,15.7-4,23.6l5.5-5.6l8-7.9c2.8-2.8,5.5-5.5,8.1-8s4.6-4.5,6-5.9c-3.8-1.9-8.1-2.6-12.2-2
		C306.6,73.6,302.6,75.7,299.6,78.8z"/>
	<path id="_Compound_Path_3" class="st0" d="M379.7,59.1c4.6,0,9.1,0.9,13.3,2.7c8.1,3.5,14.6,10,18.1,18.1
		c1.8,4.2,2.7,8.7,2.7,13.3v34.2h-34.1c-4.5,0-9-0.9-13.2-2.7c-8.2-3.5-14.8-10.1-18.3-18.3c-3.6-8.5-3.6-18.1,0-26.5
		c1.7-4,4.2-7.7,7.4-10.8c3.2-3.1,6.9-5.6,10.9-7.3C370.6,60,375.1,59.1,379.7,59.1z M400.2,113.8V93.1c0-2.7-0.5-5.5-1.6-8
		c-2.1-5-6-8.9-11-11c-2.5-1.1-5.3-1.6-8-1.6c-2.8,0-5.5,0.5-8.1,1.6c-5,2.1-8.9,6-11,11c-1.1,2.5-1.6,5.3-1.6,8
		c-0.1,11.4,9.1,20.6,20.5,20.7c0.1,0,0.2,0,0.2,0L400.2,113.8z"/>
	<path id="_Compound_Path_4" class="st0" d="M461,59.1v13.5h-6.8c-2.7,0-5.5,0.5-8,1.6c-5,2.1-8.9,6-11,11c-1.1,2.5-1.6,5.3-1.6,8
		v34.2h-13.7V93.1c0-4.6,0.9-9.1,2.7-13.3c1.7-4,4.2-7.7,7.4-10.8c3.2-3.1,6.9-5.6,11-7.3c4.2-1.8,8.7-2.7,13.2-2.7H461z"/>
	<path class="st0" d="M526.7,80.1c-1.7-4.1-4.2-7.8-7.3-10.9c-9.8-9.8-24.7-12.8-37.5-7.4c-8.2,3.5-14.8,10.1-18.3,18.3
		c-1.8,4.2-2.7,8.7-2.7,13.2c0,1.1,0.1,2.2,0.2,3.3v45.9h13.2v-22.2c2.3,1.8,4.9,3.3,7.6,4.5c8.5,3.5,18.1,3.5,26.6,0
		c8.2-3.4,14.7-9.9,18.2-18.1C530.3,98.2,530.3,88.6,526.7,80.1L526.7,80.1z M514.4,101.3c-1,2.4-2.5,4.7-4.4,6.5
		c-1.9,1.9-4.2,3.4-6.7,4.4c-5.2,2.1-11,2.1-16.2,0c-2.5-1-4.7-2.5-6.6-4.4c-1.9-1.9-3.4-4.1-4.4-6.5c-1.1-2.5-1.6-5.3-1.6-8
		c0-11.4,9.2-20.7,20.6-20.7c0.1,0,0.1,0,0.2,0c2.8,0,5.5,0.5,8.1,1.6C511,77.4,516.1,85,516,93.3C516,96.1,515.5,98.8,514.4,101.3
		L514.4,101.3z"/>
	<path class="st0" d="M601.2,93.3c0,4.6-0.9,9.1-2.7,13.3c-3.5,8.2-10,14.7-18.2,18.1c-8.5,3.5-18.1,3.5-26.6,0
		c-4.1-1.7-7.8-4.2-10.9-7.3c-3.1-3.1-5.7-6.7-7.4-10.8c-3.6-8.5-3.6-18,0-26.5c3.5-8.2,10-14.8,18.3-18.3
		c12.8-5.4,27.7-2.5,37.5,7.4c3.1,3.2,5.6,6.9,7.3,10.9C600.3,84.3,601.2,88.8,601.2,93.3z M587.8,93.3c0.1-8.4-4.9-15.9-12.7-19.1
		c-5.2-2.1-11-2.1-16.2,0c-2.5,1-4.7,2.5-6.7,4.4c-3.9,3.9-6,9.2-6,14.7c0,2.7,0.5,5.5,1.6,8c1,2.4,2.6,4.7,4.4,6.5
		c1.9,1.9,4.2,3.4,6.7,4.4c5.2,2.1,11,2.1,16.2,0c5-2.1,9-6,11.1-11C587.3,98.8,587.8,96.1,587.8,93.3L587.8,93.3z"/>
	<path class="st0" d="M672.8,44.3h-13.2v22c-2.3-1.8-4.9-3.4-7.6-4.5c-8.5-3.5-18.1-3.5-26.6,0c-8.2,3.5-14.8,10.1-18.3,18.3
		c-3.6,8.5-3.6,18,0,26.5c1.7,4,4.3,7.7,7.4,10.8c3.1,3.1,6.8,5.6,10.9,7.3c8.5,3.5,18.1,3.5,26.6,0c8.2-3.4,14.7-9.9,18.2-18.1
		c1.8-4.2,2.7-8.7,2.7-13.3c0-0.5,0-1-0.1-1.5h0.1L672.8,44.3z M657.9,101.3c-1,2.4-2.5,4.7-4.4,6.5c-1.9,1.9-4.2,3.4-6.7,4.4
		c-5.2,2.1-11,2.1-16.2,0c-2.5-1-4.7-2.5-6.7-4.4c-1.9-1.9-3.4-4.1-4.4-6.5c-1.1-2.5-1.6-5.3-1.6-8c0-11.4,9.2-20.7,20.6-20.7
		c0.1,0,0.1,0,0.2,0c2.8,0,5.5,0.5,8.1,1.6c7.7,3.2,12.7,10.7,12.7,19.1C659.5,96.1,659,98.8,657.9,101.3L657.9,101.3z"/>
</g>
<path class="st0" d="M86.8,0C38.9,0,0,38.9,0,86.8s38.9,86.8,86.8,86.8s86.8-38.9,86.8-86.8l0,0C173.5,38.9,134.7,0.1,86.8,0z"/>
<path class="st1" d="M55.5,50.2l3.7-7.5c2.5-5.1,7.4-8,14.4-8h38.8c1.8-0.1,3.7,0.4,5.2,1.5c1.1,0.8,1.7,2.1,1.7,3.5
	c0,1-0.3,2.1-0.7,3H73.8c-2.8,0-4.9,0.2-7.2,4.5l-1.5,3l-28.1,58.4h-9.8L55.5,50.2z"/>
<path class="st1" d="M26.8,122.7c-1.1-0.8-1.7-2.1-1.7-3.5c0-1.1,0.3-2.1,0.8-3.1h11.8c0.1,0,0.2,0.1,0.3,0.1h50.7
	c2.8,0,4.9-0.2,7.2-4.5l1.5-3l0,0l14.8-30.7l0.1-0.3l1.6-3.4l4.8-10.1h9.8l-24.3,50.3c-0.2,0.3-0.3,0.7-0.6,1l-0.2,0.5
	c-2.5,5.1-7.4,8-14.4,8H32C30.1,124.3,28.3,123.8,26.8,122.7z"/>
<path class="st1" d="M114.6,129.3L114.6,129.3c-0.2,0.3-0.4,0.7-0.6,1l-0.2,0.5c-2.5,5.1-7.4,8-14.4,8H60.6
	c-1.8,0.1-3.7-0.4-5.2-1.5c-1.1-0.8-1.7-2.1-1.7-3.5c0-1.1,0.3-2.1,0.8-3.1h11.8c0.1,0,0.2,0.1,0.3,0.1h33c2.5,0,4.5-0.4,6.7-4.4
	l0,0l1.5-3l0,0L136,64.7h9.8L114.6,129.3z"/>
<path class="st1" d="M147.7,56.6H85.9c-3.2,0-5.3,0.7-7.3,4.1L60.9,97.4l-5.7,11.5h-9.6l25.2-52.2c2.5-5.1,7.4-8,14.4-8h56.4
	c1.8-0.1,3.7,0.4,5.2,1.5c1.1,0.8,1.7,2.1,1.7,3.5C148.4,54.6,148.1,55.7,147.7,56.6L147.7,56.6z"/>
</svg>
