<?xml version="1.0" encoding="utf-8"?>
<!-- Generator: Adobe Illustrator 19.0.0, SVG Export Plug-In . SVG Version: 6.00 Build 0)  -->
<svg version="1.1" id="Layer_1" xmlns="http://www.w3.org/2000/svg" xmlns:xlink="http://www.w3.org/1999/xlink" x="0px" y="0px"
	 viewBox="0 0 357.3 320.1" style="enable-background:new 0 0 357.3 320.1;" xml:space="preserve">
<style type="text/css">
	.st0{fill:#DF0032;}
	.st1{fill:#B20028;}
	.st2{fill:#FFFFFF;}
	.st3{fill:#B74E15;}
	.st4{fill:#C66F0C;}
	.st5{fill:#ECBB97;}
	.st6{fill:#E9AF84;}
	.st7{fill:#C15216;}
	.st8{fill:#803300;}
	.st9{fill:#CB5617;}
</style>
<g id="XMLID_1_">
	<polyline id="XMLID_17_" class="st0" points="171.7,6.2 28.5,57.2 50.5,246.5 171.7,313.8 294.8,245.6 318.6,56.3 171.7,6.2 	"/>
	<polyline id="XMLID_18_" class="st1" points="171.7,6.2 171.7,313.8 294.8,245.6 318.6,56.3 171.7,6.2 	"/>
	<path id="XMLID_22_" d="M171.2,315.7L48.5,247.6l-9.4-80.8l-1.6,19.8H8.9l2.5-76.9l20.6-4.3l-5.7-49.3L171.2,4.4l0.6,0.2L320,55.2
		l-7.1,56.9l2.8-4.7l32.5,6.7l-33.9,39.8l-1.2,35.5h-10l-7.2,57.3L171.2,315.7z M51.6,245.5l119.6,66.4l121.6-67.3l7.3-58.5h9.7
		l1.1-33.5l31-36.3l-24.6-5.1l-9.8,16.4l8.8-70L171.2,8L29.9,58.4l5.8,49.7l-21,4.4l-2.3,70.8h22l2.7-33.9l3.4-0.1L51.6,245.5z"/>
	<polygon id="XMLID_23_" points="319.8,112.2 305.8,135.6 301.5,110.3 282,111 282.3,104.5 252.7,103 236.7,145.3 225.3,105.5 
		195.4,108.6 193.9,193.3 221.7,190.4 221.3,152.8 229.7,183.9 239.6,183.9 251.1,148.9 250.9,192.1 277.7,190 280.7,134.9 
		288.8,156.4 288.1,190.7 314.8,190.7 315.9,156.2 348.3,118.2 	"/>
	<polygon id="XMLID_24_" class="st2" points="315.8,109.2 301.8,132.6 297.4,107.3 278,108 278.3,101.5 248.6,100 232.7,142.3 
		221.2,102.5 191.4,105.6 189.9,190.4 217.7,187.4 217.3,149.8 225.7,180.9 235.5,180.9 247,145.9 246.8,189.1 273.7,187 
		276.7,131.9 284.8,153.5 284.1,187.7 310.8,187.7 311.9,153.2 344.3,115.2 	"/>
	<path id="XMLID_28_" d="M189.4,190.9l1.6-85.7l30.7-3.2l11.1,38.8l15.6-41.3l30.5,1.6l-0.4,6.5l19.4-0.7l4.2,24.4l13.5-22.5
		l29.7,6.2l-32.9,38.6l-1.1,34.8h-27.7l0.7-34.7l-7.2-19.2l-2.9,53.2l-27.8,2.1l0.2-40.5l-10.6,32.3h-10.6l-7.5-27.6l0.4,34.1
		L189.4,190.9z M191.9,106.1l-1.5,83.7l26.8-2.8l-0.5-41.1l9.3,34.5h9.1l12.4-37.6l-0.2,45.8l25.9-2l3.1-57.1l9,23.9l-0.7,33.9h25.7
		l1.1-34.2l0.1-0.1l31.9-37.4l-27.4-5.7L301.5,134l-4.5-26.2l-19.6,0.7l0.4-6.6l-28.8-1.5l-16.4,43.4L220.9,103L191.9,106.1z"/>
	<path id="XMLID_33_" class="st3" d="M245,269c-0.4-17.8-7.3-49.4-12.7-58.4c-5.4-9-18.9-70.2-18.9-70.2s-6.9,1.9-9.3,2.4
		c-6.7,1.6-8.5,0.4-8.5,0.4c0,0.4,9.8,40.2,9.8,40.2l-25.4-8.1l-12.4,9.4l-4.8,9c0,0-4.3-14.3-4.3-25.3c0-10.9-1-26.9-1-26.9
		l-16.9,0.9l0,0.8l-0.8,41.8c-0.3,16.5,2,28.7,4.9,39c0.7,2.6,1.1,3.5,1.4,3.7c-0.3,0.7-0.9,3.6-1.4,14.2c-1.1,24.8,19.3,60,19.3,60
		s-2.1,2.3-4.7,6.1l10.5,5.8l75.3-41.6C245.1,271.1,245,270,245,269z"/>
	<path id="XMLID_34_" class="st3" d="M195,140.1L195,140.1z"/>
	<polygon id="XMLID_35_" points="194.6,141 195,140.1 194,140.2 194,139.7 194.9,139 195.9,139.5 196,140.1 195,140.1 195.6,140.9 
		195,140.1 195,140.1 	"/>
	<path id="XMLID_36_" d="M160.2,308.4c2.5-3.7,4.5-5.9,4.6-5.9l0.5-0.5l-0.4-0.6c-0.2-0.3-20.3-35.2-19.2-59.5
		c0.5-11.6,1.2-13.5,1.3-13.8l0.3-0.6l-0.5-0.5c-0.1-0.1-0.4-0.7-1.1-3.3c-2.4-8.8-5.2-21.2-4.8-38.7l0.8-41.7l15-0.8
		c0.2,3.6,0.9,16.7,0.9,25.9c0,11.1,4.1,25,4.3,25.6l0.7,2.3l44.3-11.5l-0.4-1.7c-2.3-9.5-8-32.5-9.5-38.6c1.4,0.2,3.7,0.1,7.4-0.8
		c1.8-0.4,6.3-1.6,8.3-2.2c1.8,8.3,13.6,61,18.8,69.5c5.3,8.8,12.2,40.2,12.6,57.9c0,1.3,0,2.5,0,3.7l2-1.1c0-0.9,0-1.7,0-2.6
		c-0.4-17.9-7.4-49.9-12.9-58.9c-5.3-8.8-18.6-69.3-18.8-69.9l-0.2-1l-1,0.3c-0.1,0-6.9,1.9-9.2,2.4c-6,1.4-7.7,0.5-7.7,0.5
		l-0.5-0.3l-1,0.6l0,0.6c0,0.1,0,0.5,9.4,38.7l-41,9.2c-1.2-4.5-3.6-14.5-3.6-22.7c0-10.8-1-26.8-1-27l-0.1-1l-18.8,1l0,1.7
		l-0.8,41.8c-0.3,17.8,2.4,30.4,4.9,39.3c0.6,2,0.9,3,1.2,3.6c-0.6,2.3-1,8.7-1.3,14c-1.1,23.3,16.3,55,19.1,59.9
		c-0.8,0.9-2.5,2.9-4.4,5.8L160.2,308.4z"/>
	<path id="XMLID_37_" class="st4" d="M190.2,213.8c0,0-27.8,1.1-27.5,33.3c0.3,28.9,22.8,46.7,42.4,47.2l24-13.3
		c7-11,8.8-26.6,6.1-36.9C230.9,227.5,215.3,210.5,190.2,213.8z"/>
	<path id="XMLID_38_" class="st3" d="M180.4,170.1c0,0-15.6,0.8-17.4,17.4c-1.1,12.2,0.4,23.4,11.2,30.2c0,0,4.1,8.6,6.8,12
		c2.7,3.4,9,8.8,15.5,9.6c8.6,1.1,18.4-6.6,16.3-26.5c-1.3-12.5,0-23.3-5.9-32.8C197.5,165,180.4,170.1,180.4,170.1z"/>
	<path id="XMLID_43_" d="M198.3,239.9c-0.6,0-1.3,0-2-0.1c-7.1-0.9-13.5-6.8-15.8-9.8c-2.5-3.2-6.2-10.8-6.8-12
		c-11.8-7.5-12.2-20.3-11.3-30.6c1.7-16.3,16.7-17.8,17.9-17.9c1.2-0.3,17.9-4.5,27.1,10.2c4.5,7.1,4.9,15.2,5.3,23.7
		c0.2,3,0.3,6.1,0.7,9.4c1.1,10.3-1,18.5-5.8,23.3C205,238.5,201.7,239.9,198.3,239.9z M186.4,169.8c-3.4,0.1-5.7,0.8-5.8,0.8
		l-0.1,0c-0.6,0-15.2,1-16.9,16.9c-1.7,19.1,4.9,25.8,10.9,29.6l0.1,0.1l0.1,0.2c0,0.1,4.1,8.6,6.7,11.9c2.6,3.4,8.8,8.6,15.1,9.4
		c3.7,0.5,7.4-0.8,10.2-3.6c4.6-4.5,6.5-12.4,5.5-22.3c-0.3-3.3-0.5-6.4-0.7-9.4c-0.5-8.7-0.8-16.2-5.1-23.1
		C200.7,171.2,192.1,169.7,186.4,169.8z"/>
	<path id="XMLID_44_" class="st5" d="M185.1,181.5c0,0-11.6-0.4-13.4,10.5c-1.2,7.3,6.6,21.2,6.6,21.2s6.1-7,12-8.6
		c10.1-2.7,16.5,0.5,16.5,0.5s2-11.2-3.1-19.1C197.5,176.2,185.1,181.5,185.1,181.5z"/>
	<path id="XMLID_53_" d="M178.4,213.6L178.4,213.6c-0.2,0-0.3-0.1-0.4-0.2c0,0-2-3.5-3.8-7.9c-2.4-5.9-3.4-10.4-2.9-13.5
		c1.7-10.6,12.6-10.8,13.7-10.8c1.1-0.4,12.9-4.9,19.1,4.7c5.1,7.9,3.2,18.9,3.1,19.3c0,0.1-0.1,0.2-0.2,0.3c-0.1,0.1-0.2,0.1-0.3,0
		c-0.1,0-6.5-3.1-16.3-0.4c-5.7,1.5-11.7,8.4-11.8,8.4C178.6,213.5,178.5,213.6,178.4,213.6z M184.8,181.9c-0.8,0-3.1,0.2-5.5,1.1
		c-4,1.6-6.4,4.7-7.1,9c-1,6.4,5,17.9,6.3,20.4c1.4-1.5,6.6-6.9,11.8-8.3c8.6-2.3,14.6-0.4,16.3,0.3c0.3-2.2,1.2-11.6-3.1-18.3
		c-6.1-9.4-18.1-4.4-18.2-4.4l-0.2,0C185.1,181.9,185,181.9,184.8,181.9z"/>
	<path id="XMLID_54_" class="st6" d="M180.1,219.1c0,0,6.9-6.4,11-8.3c4.1-1.9,16,3.9,16,3.9s1.9-7.3,3.7,0.9
		c1.2,5.4,0.5,16.5-10.1,19.3C192.1,237.1,179.9,229.7,180.1,219.1z"/>
	<path id="XMLID_57_" d="M197.8,235.5c-3.9,0.1-8.2-1.4-11.6-4.1c-4.1-3.2-6.4-7.7-6.3-12.3l0-0.1l0.1-0.1c0.3-0.3,7-6.4,11-8.3
		c3.9-1.8,14.1,3,15.9,3.8c0.2-0.8,0.9-2.9,2-2.9c0.8,0,1.5,1.3,2.2,4.1c1.5,6.4-0.1,16.9-10.3,19.5
		C199.8,235.3,198.8,235.5,197.8,235.5z M180.3,219.2c0,4.4,2.2,8.8,6.2,11.9c4.2,3.3,9.8,4.8,14.1,3.6c11.1-2.9,11-14.7,10-19
		c-0.8-3.4-1.5-3.7-1.7-3.7l0,0c-0.6,0-1.3,1.6-1.6,2.8l-0.1,0.3l-0.3-0.1c-0.1-0.1-11.8-5.7-15.8-3.9
		C187.4,212.7,181.1,218.5,180.3,219.2z"/>
	<path id="XMLID_58_" class="st5" d="M185,227.9c5.6,4,8.7,3.8,14.1,2.7c10.4-2.1,14.3-15.9,9.2-20.1
		C192.7,201.3,170,213.9,185,227.9z"/>
	<path id="XMLID_61_" d="M194.2,231.5c-2.9,0.1-5.6-0.7-9.3-3.4l0,0c-5.3-4.9-6.4-10.3-3.2-14.7c4.6-6.2,17-8.8,26.7-3.1
		c2.2,1.8,2.9,5.4,1.9,9.3c-1.1,4.4-4.7,10-11.1,11.3C197.3,231.2,195.8,231.5,194.2,231.5z M185.2,227.7c5.6,4.1,8.8,3.7,13.9,2.7
		c6.2-1.2,9.7-6.7,10.8-10.9c1-3.8,0.3-7.2-1.7-8.8c-9.5-5.6-21.6-3-26.1,3C178.9,217.9,180.1,223,185.2,227.7z"/>
	<path id="XMLID_62_" d="M185.7,199.5c1-0.2,2,0.3,2.2,1.3c0.2,0.9-0.4,1.8-1.4,2c-1,0.2-2-0.3-2.2-1.3
		C184,200.6,184.7,199.7,185.7,199.5z"/>
	<path id="XMLID_63_" d="M194.2,197.9c1-0.2,2,0.3,2.2,1.3c0.2,0.9-0.4,1.8-1.4,2c-1,0.2-2-0.3-2.2-1.3
		C192.5,199,193.2,198.1,194.2,197.9z"/>
	<path id="XMLID_64_" class="st7" d="M177.2,214.8c0,0,3.4-9.8,14.3-11.3c11.9-2.4,18.3,2.7,18.3,2.7S193.3,200.3,177.2,214.8z"/>
	<path id="XMLID_65_" class="st8" d="M236.7,131.9l0.6,5.6L117,156.7l-3.1-15.1C221.6,139.1,196.1,133.9,236.7,131.9z"/>
	<path id="XMLID_68_" d="M116.7,157l-3.3-15.7l0.4,0c0.2,0,0.3,0,0.5,0c68.4-1.7,83-4.4,94.8-6.6c6.9-1.3,12.9-2.4,27.6-3.1l0.3,0
		l0.7,6.2L116.7,157z M114.2,141.9l3,14.4L237,137.3l-0.5-5.1c-14.5,0.7-20.4,1.8-27.2,3.1c-11.8,2.2-26.5,5-94.9,6.6L114.2,141.9z"
		/>
	<path id="XMLID_87_" class="st5" d="M142,140.4c0,0-0.1-1.2,1.2-2.3c1.3-1.2,7.6-3.7,10.4-3.7c2.9-0.1,8.6,1.2,10.6,5.3
		c2,4-2.8,5.6-5.1,5.4c-0.8-0.1-3.2-0.2-5.9-0.7C148.3,143.2,142.2,141.5,142,140.4z"/>
	<path id="XMLID_97_" d="M159.7,145.2c-0.2,0-0.4,0-0.5,0l-0.3,0c-1-0.1-3.2-0.2-5.6-0.7c-3.9-0.8-11.2-2.6-11.4-4l0,0
		c0-0.1-0.1-1.3,1.3-2.5c1.4-1.2,7.6-3.7,10.6-3.8h0c3.1-0.1,8.8,1.3,10.8,5.4c0.7,1.4,0.7,2.6,0,3.6
		C163.4,144.5,161.2,145.1,159.7,145.2z M142.2,140.3c0.2,0.8,5.2,2.5,11.1,3.7c2.4,0.5,4.6,0.6,5.6,0.7l0.3,0
		c1.4,0.1,3.9-0.4,4.9-2c0.6-0.9,0.6-1.9,0-3.2c-1.9-3.9-7.4-5.2-10.4-5.2h0c-2.8,0.1-9,2.6-10.3,3.7
		C142.2,139.2,142.2,140.2,142.2,140.3z"/>
	<path id="XMLID_98_" class="st5" d="M211,135.7c-0.2,0.8-8.8,4-12.1,4.8s-8.8,1.5-9.4-2.7c-0.6-4.1,5.3-7.1,9.2-7.5
		c3.9-0.4,11.2,2.5,11.9,4C211.3,135.8,211,135.7,211,135.7z"/>
	<path id="XMLID_102_" d="M194.7,141.3c-1.7,0-3.1-0.3-4-0.9c-0.8-0.6-1.3-1.4-1.5-2.5c-0.2-1.2,0.2-2.5,1.1-3.6
		c1.8-2.4,5.6-3.9,8.3-4.2c1.8-0.2,4.5,0.3,7.2,1.3c2,0.7,4.4,1.9,4.9,2.8c0.6,1.3,0.6,1.5,0.5,1.6l-0.1,0.1
		c-0.8,1.1-9.3,4.1-12.2,4.8C197.3,141.1,195.9,141.3,194.7,141.3z M199.2,130.5c-0.2,0-0.4,0-0.6,0c-2.6,0.3-6.2,1.7-8,4
		c-0.8,1.1-1.2,2.2-1,3.3c0.1,1,0.6,1.7,1.3,2.3c1.5,1,4.1,1.1,7.9,0.2c3.5-0.8,11.7-4,12-4.6l0-0.1c0-0.1-0.1-0.5-0.5-1.2
		C209.7,133,203.1,130.4,199.2,130.5z"/>
	<path id="XMLID_117_" class="st9" d="M229.2,210.6c-1.9-3.2-4-12.7-5.9-23.7c-1.3-4.8-2.6-10.3-4.2-17l-6.3-27l-4.7,0.2l10,61.6
		c0,0,13.5,15,16.5,37.1c1.3,9.8-0.3,23.7-0.9,36.5l8.1-4.5c0-1.5,0-3.1,0-4.8C241.5,251.2,234.6,219.6,229.2,210.6z"/>
	<path id="XMLID_118_" d="M133.8,140.1c-5.5-0.1-10,0-15.6,0l-0.8,18.9l13.9,0.6l-0.1,3c-1.1,1-0.7,1.7-2.2,2
		c-1.5,0.4-3,0.5-4.4,0.5c-2.1,0-4-0.6-5.6-1.5c-1.6-1-3-2.3-4.1-3.8c-1.1-1.6-2-3.4-2.5-5.4c-0.6-2-0.9-4-0.9-6.2
		c0-3.4,0.5-6.3,1.6-8.9c1.1-2.6,2.6-4.7,4.5-6.5c1.9-1.7,4.1-3,6.7-3.8c2.5-0.8,5.3-1.2,8.2-1c2.1,0.1,4.2,0.4,6.3,0.8
		c2.2,0.4,4.2,1.1,6.3,2l0.7-21.6c-1.4-0.9-2.9-1.7-4.5-2.4c-1.6-0.7-3.3-1.2-5.1-1.7c-1.7-0.4-3.5-0.8-5.2-1
		c-1.8-0.3-3.4-0.4-5-0.5c-4.2-0.3-8.1,0-11.8,0.9c-3.7,0.9-7.2,2.3-10.3,4.3c-3.2,2-6.1,4.4-8.6,7.2c-1.3,1.5-2.5,3-3.6,4.7
		l0.6-15.1l-26.2,2.6l-1.5,36.7l-19.1-36.8L17.3,114L15,187.9h25.3l3-37.7l15.3,37l30.5-1.4l0.4-10.3c1.3,2.2,2.8,4.2,4.5,6.1
		c3.6,4,7.8,7.1,12.7,9.4c4.8,2.3,10.1,3.4,15.8,3.4c2.9,0,5.9-0.3,9.1-0.9c3.1-0.6,6.2-1.5,9.1-2.7c2.9-1.2,5.7-2.6,8.1-4.5
		c1.3-1,3.2-3.3,4.1-4.5v-41.1C147.4,140.4,139.2,140.2,133.8,140.1z"/>
	<path id="XMLID_119_" class="st2" d="M118.3,191.9c-5.7,0-11.1-1.2-16-3.4c-4.9-2.3-9.2-5.5-12.8-9.5c-1.3-1.4-2.5-3-3.6-4.6
		l-0.3,9l-31.4,1.5l-14.5-35.2l-2.8,35.9H10.3l2.4-74.8l28.6-6L59.7,140l1.5-35.1l27.4-2.7L88.1,116c0.8-1.1,1.7-2.2,2.6-3.2
		c2.6-2.9,5.5-5.4,8.7-7.3c3.2-2,6.7-3.4,10.5-4.3c2.8-0.7,5.8-1,8.9-1c1,0,2,0,3.1,0.1c1.6,0.1,3.2,0.3,5,0.6
		c1.8,0.3,3.6,0.6,5.3,1.1c1.8,0.4,3.5,1,5.1,1.7c1.7,0.7,3.2,1.5,4.6,2.4l0.3,0.2l-0.7,22.7l-0.8-0.3c-2-0.9-4.1-1.5-6.1-1.9
		c-2.1-0.4-4.2-0.6-6.3-0.8c-0.4,0-0.9,0-1.3,0c-2.3,0-4.6,0.3-6.7,1c-2.5,0.8-4.6,2-6.5,3.7c-1.8,1.7-3.3,3.8-4.3,6.3
		c-1.1,2.5-1.6,5.4-1.5,8.7c0,2.1,0.3,4.1,0.9,6c0.5,1.9,1.4,3.7,2.4,5.2c1.1,1.5,2.4,2.7,4,3.7c1.5,0.9,3.4,1.4,5.4,1.5l0.3,0
		c1.3,0,2.6-0.2,3.9-0.5c0.7-0.2,0.8-0.4,1.1-0.8c0.2-0.3,0.4-0.6,0.7-0.9l0.1-2.2l-13.9-0.6l0.8-20c0,0,2,0,2.7,0
		c1.6,0,3.2,0,4.7,0c1.5,0,3,0,4.5,0c1.3,0,2.7,0,4.2,0c3.4,0.1,7.9,0.1,12,0.2l7.5,0.1v41.9l-0.1,0.2c-0.3,0.3-2.6,3.3-4.2,4.6
		c-2.2,1.7-4.9,3.2-8.2,4.6c-3,1.2-6.1,2.2-9.2,2.8C124.3,191.5,121.2,191.9,118.3,191.9z"/>
	<path id="XMLID_127_" d="M118.7,100.6c1,0,2,0,3,0.1c1.6,0.1,3.2,0.3,5,0.5c1.8,0.3,3.5,0.6,5.2,1c1.7,0.4,3.4,1,5.1,1.7
		c1.6,0.7,3.1,1.5,4.5,2.4l-0.7,21.6c-2-0.9-4.1-1.6-6.3-2c-2.2-0.4-4.3-0.7-6.3-0.8c-0.5,0-0.9,0-1.4,0c-2.4,0-4.7,0.3-6.8,1
		c-2.6,0.8-4.8,2.1-6.7,3.8c-1.9,1.7-3.4,3.9-4.5,6.5c-1.1,2.6-1.6,5.6-1.6,8.9c0,2.1,0.3,4.2,0.9,6.2c0.6,2,1.4,3.8,2.5,5.4
		c1.1,1.6,2.5,2.8,4.1,3.8c1.6,1,3.5,1.5,5.6,1.5c0.1,0,0.2,0,0.3,0c1.3,0,2.7-0.2,4.1-0.5c1.5-0.4,1.1-1.1,2.2-2l0.1-3l-13.9-0.6
		l0.8-18.9c0.7,0,1.5,0,2.2,0c3.2,0,6.1,0,9.2,0c1.3,0,2.7,0,4.1,0c5.4,0.1,13.6,0.2,19,0.3v41.1c-0.9,1.2-2.8,3.5-4.1,4.5
		c-2.4,1.9-5.2,3.3-8.1,4.5c-2.9,1.2-6,2.1-9.1,2.7c-3.2,0.6-6.2,0.9-9.1,0.9c-5.6,0-10.9-1.1-15.8-3.4c-4.9-2.3-9.1-5.4-12.7-9.4
		c-1.7-1.9-3.2-3.9-4.5-6.1L85,182.8l-30.5,1.4l-15.3-37l-3,37.7H10.9l2.4-73.8l27.8-5.8l19.1,36.8l1.5-36.7l26.2-2.6l-0.6,15.1
		c1.1-1.7,2.3-3.2,3.6-4.7c2.5-2.9,5.4-5.3,8.6-7.2c3.2-1.9,6.6-3.4,10.3-4.3C112.8,100.9,115.7,100.6,118.7,100.6 M118.7,99.5
		c-3.1,0-6.2,0.4-9,1.1c-3.8,0.9-7.4,2.4-10.6,4.4c-3.3,2-6.3,4.5-8.9,7.4c-0.5,0.6-1,1.2-1.5,1.8l0.4-11.4l0-1.3l-1.3,0.1
		l-26.2,2.6l-1,0.1l0,1l-1.4,32.5l-17.2-33.1l-0.4-0.8l-0.8,0.2l-27.8,5.8l-0.9,0.2l0,0.9l-2.4,73.8l0,1.2h1.2h25.3h1l0.1-1l2.6-33
		l13.5,32.6l0.3,0.7l0.8,0l30.5-1.4l1,0l0-1l0.2-6.8c0.8,1.2,1.7,2.3,2.7,3.3c3.6,4.1,8,7.3,13,9.6c5,2.3,10.4,3.5,16.2,3.5
		c3,0,6.1-0.3,9.3-0.9c3.2-0.6,6.3-1.6,9.3-2.8c3.4-1.4,6.1-2.9,8.4-4.7c1.7-1.3,4.1-4.4,4.3-4.7l0.2-0.3v-0.4v-41.1v-1.1l-1.1,0
		c-2,0-4.5-0.1-7-0.1c-4.2-0.1-8.6-0.1-12-0.2c-1.4,0-2.8,0-4.2,0c-1.5,0-3,0-4.5,0c-1.5,0-3.1,0-4.7,0c-0.7,0-1.4,0-2.2,0l-1.1,0
		l0,1.1l-0.8,18.9l0,0.9c-0.2-0.2-0.4-0.5-0.6-0.8c-1-1.5-1.8-3.1-2.4-5c-0.5-1.9-0.8-3.9-0.8-5.9c0-3.2,0.5-6,1.5-8.5
		c1-2.4,2.4-4.5,4.2-6.1c1.8-1.6,3.9-2.8,6.2-3.6c2-0.7,4.2-1,6.5-1c0.4,0,0.9,0,1.3,0c2,0.1,4.1,0.4,6.2,0.7c2.1,0.4,4.1,1,6,1.9
		l1.5,0.7l0.1-1.7l0.7-21.6l0-0.6l-0.5-0.3c-1.4-0.9-3-1.8-4.7-2.5c-1.7-0.7-3.4-1.3-5.2-1.7c-1.8-0.4-3.6-0.8-5.4-1.1
		c-1.8-0.3-3.5-0.4-5.1-0.6C120.8,99.5,119.7,99.5,118.7,99.5z M120.9,161.1c-0.1,0-0.2,0-0.3,0c-1.9,0-3.6-0.5-5.1-1.4
		c-1.2-0.7-2.2-1.5-3-2.6l0.9,0l12.7,0.6l0,1.4c-0.3,0.3-0.5,0.6-0.6,0.9c-0.2,0.4-0.3,0.4-0.7,0.5
		C123.4,161,122.1,161.1,120.9,161.1z"/>
</g>
</svg>
