<svg width="100" height="34" viewBox="0 0 100 34" fill="none" xmlns="http://www.w3.org/2000/svg">
<path d="M42.8962 11.3278C43.2696 11.2425 43.5842 11.4505 43.8402 11.9518C44.0216 12.2718 44.2882 12.4318 44.6402 12.4318C44.8642 12.4318 45.0562 12.3518 45.2162 12.1918C45.3762 12.0318 45.4562 11.8345 45.4562 11.5998C45.4562 11.3758 45.3762 11.1838 45.2162 11.0238C45.0562 10.8638 44.8642 10.7838 44.6402 10.7838C43.9789 10.7838 43.4136 10.5491 42.9442 10.0798C42.4749 9.63181 42.2402 9.06647 42.2402 8.38381C42.2402 7.72247 42.4749 7.15714 42.9442 6.68781C43.4136 6.21847 43.9789 5.9838 44.6402 5.9838C45.1949 5.9838 45.7016 6.14914 46.1602 6.4798C46.6082 6.82114 46.8696 7.21047 46.9442 7.64781C46.9869 7.7758 46.9496 7.97847 46.8322 8.25581C46.7256 8.42647 46.5602 8.53847 46.3362 8.5918C45.8776 8.68781 45.5629 8.49047 45.3922 7.9998C45.2856 7.71181 45.0349 7.56781 44.6402 7.56781C44.4162 7.56781 44.2242 7.64781 44.0642 7.80781C43.9042 7.96781 43.8242 8.15981 43.8242 8.38381C43.8242 8.60781 43.9042 8.79981 44.0642 8.95981C44.2242 9.11981 44.4162 9.19981 44.6402 9.19981C45.3016 9.19981 45.8669 9.43447 46.3362 9.90381C46.8056 10.3731 47.0402 10.9385 47.0402 11.5998C47.0402 12.2398 46.8056 12.8105 46.3362 13.3118C45.8669 13.7811 45.3016 14.0158 44.6402 14.0158C44.0962 14.0158 43.6002 13.8398 43.1522 13.4878C42.7362 13.1678 42.4482 12.7625 42.2882 12.2718C42.2136 12.0691 42.2456 11.8718 42.3842 11.6798C42.5229 11.4878 42.6936 11.3705 42.8962 11.3278Z" fill="#111"/>
<path d="M49.6874 17.2318C49.6874 17.4238 49.6127 17.6105 49.4634 17.7918C49.282 17.9411 49.0954 18.0158 48.9034 18.0158C48.6794 18.0158 48.4927 17.9411 48.3434 17.7918C48.1834 17.6318 48.1034 17.4451 48.1034 17.2318V10.0478C48.1034 8.94914 48.498 8.00514 49.2874 7.21581C50.0767 6.42647 51.0207 6.03181 52.1194 6.03181C53.2287 6.03181 54.178 6.42647 54.9674 7.21581C55.746 7.99447 56.1354 8.93847 56.1354 10.0478C56.1354 11.1678 55.746 12.1171 54.9674 12.8958C54.1887 13.6745 53.2394 14.0638 52.1194 14.0638C51.2234 14.0638 50.4127 13.7918 49.6874 13.2478V17.2318ZM49.6874 10.0638C49.6874 10.7251 49.9274 11.2958 50.4074 11.7758C50.8767 12.2451 51.4474 12.4798 52.1194 12.4798C52.7914 12.4798 53.3674 12.2398 53.8474 11.7598C54.3167 11.2905 54.5514 10.7198 54.5514 10.0478C54.5514 9.40781 54.3167 8.83714 53.8474 8.33581C53.3674 7.85581 52.7914 7.61581 52.1194 7.61581C51.4474 7.61581 50.8767 7.85047 50.4074 8.31981C49.9274 8.79981 49.6874 9.37581 49.6874 10.0478V10.0638Z" fill="#111"/>
<path d="M57.0275 6.76781C57.0275 6.55447 57.1075 6.36781 57.2675 6.20781C57.4168 6.05847 57.6035 5.9838 57.8275 5.9838C58.0195 5.9838 58.2062 6.05847 58.3875 6.20781C58.5368 6.38914 58.6115 6.5758 58.6115 6.76781V13.2158C58.6115 13.4398 58.5368 13.6265 58.3875 13.7758C58.2275 13.9358 58.0408 14.0158 57.8275 14.0158C57.6035 14.0158 57.4168 13.9358 57.2675 13.7758C57.1075 13.6265 57.0275 13.4398 57.0275 13.2158V6.76781ZM58.3875 4.15981C58.2382 4.30914 58.0515 4.38381 57.8275 4.38381C57.6035 4.38381 57.4168 4.30914 57.2675 4.15981C57.1075 3.9998 57.0275 3.81314 57.0275 3.5998C57.0275 3.38647 57.1075 3.1998 57.2675 3.0398C57.4275 2.8798 57.6142 2.7998 57.8275 2.7998C58.0408 2.7998 58.2275 2.8798 58.3875 3.0398C58.5368 3.18914 58.6115 3.37581 58.6115 3.5998C58.6115 3.82381 58.5368 4.01047 58.3875 4.15981Z" fill="#111"/>
<path d="M67.5576 13.1998C67.5576 13.4238 67.4829 13.6105 67.3336 13.7598C67.1736 13.9198 66.9816 13.9998 66.7576 13.9998C66.5443 13.9998 66.3576 13.9198 66.1976 13.7598C66.0483 13.6105 65.9736 13.4238 65.9736 13.1998V9.98381C65.9736 9.33314 65.7389 8.75714 65.2696 8.25581C64.7683 7.78647 64.1923 7.55181 63.5416 7.55181C62.8696 7.55181 62.2989 7.78647 61.8296 8.25581C61.3496 8.73581 61.1096 9.31181 61.1096 9.98381V13.1998C61.1096 13.4238 61.0349 13.6105 60.8856 13.7598C60.7256 13.9198 60.5336 13.9998 60.3096 13.9998C60.0963 13.9998 59.9096 13.9198 59.7496 13.7598C59.6003 13.6105 59.5256 13.4238 59.5256 13.1998V9.98381C59.5256 8.87447 59.9203 7.92514 60.7096 7.13581C61.4883 6.35714 62.4323 5.9678 63.5416 5.9678C64.6509 5.9678 65.5949 6.35714 66.3736 7.13581C67.1629 7.92514 67.5576 8.87447 67.5576 9.98381V13.1998Z" fill="#111"/>
<path d="M43.9842 31.2318C43.9842 31.4238 43.9096 31.6105 43.7602 31.7918C43.5789 31.9411 43.3922 32.0158 43.2002 32.0158C42.9762 32.0158 42.7896 31.9411 42.6402 31.7918C42.4802 31.6318 42.4002 31.4451 42.4002 31.2318V24.0478C42.4002 22.9491 42.7949 22.0051 43.5842 21.2158C44.3736 20.4265 45.3176 20.0318 46.4162 20.0318C47.5256 20.0318 48.4749 20.4265 49.2642 21.2158C50.0429 21.9945 50.4322 22.9385 50.4322 24.0478C50.4322 25.1678 50.0429 26.1171 49.2642 26.8958C48.4856 27.6745 47.5362 28.0638 46.4162 28.0638C45.5202 28.0638 44.7096 27.7918 43.9842 27.2478V31.2318ZM43.9842 24.0638C43.9842 24.7251 44.2242 25.2958 44.7042 25.7758C45.1736 26.2451 45.7442 26.4798 46.4162 26.4798C47.0882 26.4798 47.6642 26.2398 48.1442 25.7598C48.6136 25.2905 48.8482 24.7198 48.8482 24.0478C48.8482 23.4078 48.6136 22.8371 48.1442 22.3358C47.6642 21.8558 47.0882 21.6158 46.4162 21.6158C45.7442 21.6158 45.1736 21.8505 44.7042 22.3198C44.2242 22.7998 43.9842 23.3758 43.9842 24.0478V24.0638Z" fill="#111"/>
<path d="M59.353 27.1838C59.353 27.4185 59.2783 27.6105 59.129 27.7598C58.9797 27.9091 58.7877 27.9838 58.553 27.9838C58.4037 27.9838 58.2383 27.9091 58.057 27.7598C57.8757 27.5785 57.785 27.3865 57.785 27.1838C57.1237 27.7171 56.3343 27.9838 55.417 27.9838C54.2863 27.9838 53.3317 27.6105 52.553 26.8638C51.7637 26.1065 51.369 25.1678 51.369 24.0478C51.369 22.9278 51.7637 21.9731 52.553 21.1838C53.3423 20.3945 54.297 19.9998 55.417 19.9998C56.537 19.9998 57.4757 20.3945 58.233 21.1838C58.9797 21.9625 59.353 22.9171 59.353 24.0478V27.1838ZM53.673 25.7278C54.1317 26.1865 54.713 26.4158 55.417 26.4158C56.089 26.4158 56.6543 26.1865 57.113 25.7278C57.561 25.2798 57.785 24.7198 57.785 24.0478C57.785 23.3651 57.561 22.7838 57.113 22.3038C56.6543 21.8131 56.089 21.5678 55.417 21.5678C54.745 21.5678 54.1637 21.8131 53.673 22.3038C53.1823 22.7945 52.937 23.3758 52.937 24.0478C52.937 24.7091 53.1823 25.2691 53.673 25.7278Z" fill="#111"/>
<path d="M61.8909 27.2158C61.8909 27.4078 61.8162 27.5945 61.6669 27.7758C61.5069 27.9358 61.3202 28.0158 61.1069 28.0158C60.8829 28.0158 60.6962 27.9358 60.5469 27.7758C60.3869 27.6158 60.3069 27.4291 60.3069 27.2158V23.9998C60.3069 22.8905 60.7015 21.9411 61.4909 21.1518C62.2695 20.3731 63.2135 19.9838 64.3229 19.9838C64.5255 19.9838 64.7175 20.0585 64.8989 20.2078C65.0482 20.3891 65.1229 20.5758 65.1229 20.7678C65.1229 20.9598 65.0482 21.1465 64.8989 21.3278C64.7389 21.4878 64.5469 21.5678 64.3229 21.5678C63.6509 21.5678 63.0802 21.8025 62.6109 22.2718C62.1309 22.7518 61.8909 23.3278 61.8909 23.9998V27.2158Z" fill="#111"/>
<path d="M73.0092 27.1838C73.0092 27.4185 72.9346 27.6105 72.7852 27.7598C72.6359 27.9091 72.4439 27.9838 72.2092 27.9838C72.0599 27.9838 71.8946 27.9091 71.7132 27.7598C71.5319 27.5785 71.4412 27.3865 71.4412 27.1838C70.7799 27.7171 69.9906 27.9838 69.0732 27.9838C67.9426 27.9838 66.9879 27.6105 66.2092 26.8638C65.4199 26.1065 65.0252 25.1678 65.0252 24.0478C65.0252 22.9278 65.4199 21.9731 66.2092 21.1838C66.9986 20.3945 67.9532 19.9998 69.0732 19.9998C70.1932 19.9998 71.1319 20.3945 71.8892 21.1838C72.6359 21.9625 73.0092 22.9171 73.0092 24.0478V27.1838ZM67.3292 25.7278C67.7879 26.1865 68.3692 26.4158 69.0732 26.4158C69.7452 26.4158 70.3106 26.1865 70.7692 25.7278C71.2172 25.2798 71.4412 24.7198 71.4412 24.0478C71.4412 23.3651 71.2172 22.7838 70.7692 22.3038C70.3106 21.8131 69.7452 21.5678 69.0732 21.5678C68.4012 21.5678 67.8199 21.8131 67.3292 22.3038C66.8386 22.7945 66.5932 23.3758 66.5932 24.0478C66.5932 24.7091 66.8386 25.2691 67.3292 25.7278Z" fill="#111"/>
<path d="M80.4271 16.7678C80.4271 16.5758 80.5018 16.3891 80.6511 16.2078C80.8324 16.0585 81.0191 15.9838 81.2111 15.9838C81.4138 15.9838 81.6058 16.0585 81.7871 16.2078C81.9364 16.3891 82.0111 16.5758 82.0111 16.7678V23.9518C82.0111 25.0505 81.6164 25.9945 80.8271 26.7838C80.0378 27.5731 79.0938 27.9678 77.9951 27.9678C76.8858 27.9678 75.9364 27.5731 75.1471 26.7838C74.3684 26.0051 73.9791 25.0611 73.9791 23.9518C73.9791 22.8318 74.3684 21.8825 75.1471 21.1038C75.9258 20.3251 76.8751 19.9358 77.9951 19.9358C78.9018 19.9358 79.7124 20.2078 80.4271 20.7518V16.7678ZM80.4271 23.9358C80.4271 23.2958 80.1924 22.7251 79.7231 22.2238C79.2218 21.7545 78.6458 21.5198 77.9951 21.5198C77.3231 21.5198 76.7524 21.7545 76.2831 22.2238C75.8031 22.7038 75.5631 23.2798 75.5631 23.9518C75.5631 24.6131 75.8031 25.1838 76.2831 25.6638C76.7524 26.1438 77.3231 26.3838 77.9951 26.3838C78.6671 26.3838 79.2431 26.1438 79.7231 25.6638C80.1924 25.1945 80.4271 24.6238 80.4271 23.9518V23.9358Z" fill="#111"/>
<path d="M82.9962 20.7678C82.9962 20.5545 83.0762 20.3678 83.2362 20.2078C83.3856 20.0585 83.5722 19.9838 83.7962 19.9838C83.9882 19.9838 84.1749 20.0585 84.3562 20.2078C84.5056 20.3891 84.5802 20.5758 84.5802 20.7678V27.2158C84.5802 27.4398 84.5056 27.6265 84.3562 27.7758C84.1962 27.9358 84.0096 28.0158 83.7962 28.0158C83.5722 28.0158 83.3856 27.9358 83.2362 27.7758C83.0762 27.6265 82.9962 27.4398 82.9962 27.2158V20.7678ZM84.3562 18.1598C84.2069 18.3091 84.0202 18.3838 83.7962 18.3838C83.5722 18.3838 83.3856 18.3091 83.2362 18.1598C83.0762 17.9998 82.9962 17.8131 82.9962 17.5998C82.9962 17.3865 83.0762 17.1998 83.2362 17.0398C83.3962 16.8798 83.5829 16.7998 83.7962 16.7998C84.0096 16.7998 84.1962 16.8798 84.3562 17.0398C84.5056 17.1891 84.5802 17.3758 84.5802 17.5998C84.5802 17.8238 84.5056 18.0105 84.3562 18.1598Z" fill="#111"/>
<path d="M86.0837 25.3278C86.4571 25.2425 86.7717 25.4505 87.0277 25.9518C87.2091 26.2718 87.4757 26.4318 87.8277 26.4318C88.0517 26.4318 88.2437 26.3518 88.4037 26.1918C88.5637 26.0318 88.6437 25.8345 88.6437 25.5998C88.6437 25.3758 88.5637 25.1838 88.4037 25.0238C88.2437 24.8638 88.0517 24.7838 87.8277 24.7838C87.1664 24.7838 86.6011 24.5491 86.1317 24.0798C85.6624 23.6318 85.4277 23.0665 85.4277 22.3838C85.4277 21.7225 85.6624 21.1571 86.1317 20.6878C86.6011 20.2185 87.1664 19.9838 87.8277 19.9838C88.3824 19.9838 88.8891 20.1491 89.3477 20.4798C89.7957 20.8211 90.0571 21.2105 90.1317 21.6478C90.1744 21.7758 90.1371 21.9785 90.0197 22.2558C89.9131 22.4265 89.7477 22.5385 89.5237 22.5918C89.0651 22.6878 88.7504 22.4905 88.5797 21.9998C88.4731 21.7118 88.2224 21.5678 87.8277 21.5678C87.6037 21.5678 87.4117 21.6478 87.2517 21.8078C87.0917 21.9678 87.0117 22.1598 87.0117 22.3838C87.0117 22.6078 87.0917 22.7998 87.2517 22.9598C87.4117 23.1198 87.6037 23.1998 87.8277 23.1998C88.4891 23.1998 89.0544 23.4345 89.5237 23.9038C89.9931 24.3731 90.2277 24.9385 90.2277 25.5998C90.2277 26.2398 89.9931 26.8105 89.5237 27.3118C89.0544 27.7811 88.4891 28.0158 87.8277 28.0158C87.2837 28.0158 86.7877 27.8398 86.3397 27.4878C85.9237 27.1678 85.6357 26.7625 85.4757 26.2718C85.4011 26.0691 85.4331 25.8718 85.5717 25.6798C85.7104 25.4878 85.8811 25.3705 86.0837 25.3278Z" fill="#111"/>
<path d="M92.8239 24.7678C92.9945 25.2585 93.2879 25.6531 93.7039 25.9518C94.1412 26.2611 94.6159 26.4158 95.1279 26.4158C95.3305 26.4158 95.4372 26.4105 95.4479 26.3998L95.5759 26.3838L95.7039 26.3678L95.7999 26.3518L95.8799 26.3358C96.2105 26.2611 96.5572 26.1118 96.9199 25.8878C97.1012 25.7705 97.2985 25.7545 97.5119 25.8398C97.7359 25.9251 97.8905 26.0638 97.9759 26.2558C98.1679 26.6505 98.0399 27.0025 97.5919 27.3118C97.0585 27.6211 96.5892 27.8238 96.1839 27.9198L96.0719 27.9358L95.9439 27.9518L95.7839 27.9678L95.6079 27.9838L95.3679 27.9998H95.1279C94.0185 27.9998 93.0692 27.6051 92.2799 26.8158C91.5012 26.0371 91.1119 25.0931 91.1119 23.9838C91.1119 22.8638 91.5012 21.9145 92.2799 21.1358C93.0585 20.3571 94.0079 19.9678 95.1279 19.9678C96.2052 19.9678 97.1172 20.3091 97.8639 20.9918C98.7172 21.7598 99.1439 22.7571 99.1439 23.9838C99.1439 24.1758 99.0692 24.3625 98.9199 24.5438C98.7385 24.6931 98.5465 24.7678 98.3439 24.7678H92.8239ZM97.4479 23.1838C97.2879 22.6505 96.9785 22.2398 96.5199 21.9518C96.1252 21.6851 95.6612 21.5518 95.1279 21.5518C94.6159 21.5518 94.1412 21.7065 93.7039 22.0158C93.2879 22.3145 92.9945 22.7038 92.8239 23.1838H97.4479Z" fill="#111"/>
<path d="M16.9292 32.4277C25.7266 32.4277 32.8583 25.2959 32.8583 16.4985C32.8583 7.70107 25.7266 0.569336 16.9292 0.569336C8.13173 0.569336 1 7.70107 1 16.4985C1 25.2959 8.13173 32.4277 16.9292 32.4277Z" fill="#34A07E"/>
<mask id="mask0" mask-type="alpha" maskUnits="userSpaceOnUse" x="1" y="0" width="32" height="33">
<path d="M16.9292 32.4277C25.7266 32.4277 32.8583 25.2959 32.8583 16.4985C32.8583 7.70107 25.7266 0.569336 16.9292 0.569336C8.13173 0.569336 1 7.70107 1 16.4985C1 25.2959 8.13173 32.4277 16.9292 32.4277Z" fill="#34A07E"/>
</mask>
<g mask="url(#mask0)">
<path fill-rule="evenodd" clip-rule="evenodd" d="M21.1468 14.0522C21.1468 14.0522 23.9299 8.43592 26.3556 7.2168C26.3556 7.2168 20.8209 7.98385 18.9801 10.2538L18.5762 14.1558L21.1468 14.0522Z" fill="black" stroke="black" stroke-width="0.00506162" stroke-miterlimit="1.5" stroke-linecap="round" stroke-linejoin="round"/>
<path fill-rule="evenodd" clip-rule="evenodd" d="M10.7106 91.8112H-6.64354C-6.64354 91.8112 -7.86396 80.4534 -11.4159 76.1925C-14.9679 71.9317 -15.7544 72.2879 -15.7544 72.2879C-15.7544 72.2879 -19.5255 95.3558 -70.4199 91.8112C-70.4199 91.8112 -37.733 89.6107 -30.5054 70.1186C-25.0172 55.3168 -23.5638 53.6322 -23.5638 53.6322C-23.5638 53.6322 -19.0817 42.3351 -3.60657 34.9765C-3.60657 34.9765 2.64482 32.4523 9.40903 17.6224C16.1732 2.79242 22.4246 5.04064 22.4246 5.04064C22.4246 5.04064 19.2128 7.78867 18.9538 9.37917C18.9529 9.38394 18.9525 9.38872 18.9516 9.39349C18.9186 9.67419 18.4262 13.9238 19.2644 14.0505C20.6285 14.2561 28.9042 13.1949 28.9324 15.4531C28.9606 17.7113 28.5819 18.8402 22.4246 19.7916C16.2674 20.7431 18.3464 33.4164 18.0861 44.0874C17.8258 54.7585 20.5096 65.1033 17.6522 67.0816C17.6522 67.0816 17.9937 57.2436 13.3137 53.1983C13.3137 53.1983 13.0343 60.386 7.67361 66.2139C2.31293 72.0419 -0.569595 77.0602 -0.569595 77.0602V89.642C-0.569595 89.642 10.7106 88.9335 10.7106 91.8112Z" fill="#111" stroke="black" stroke-width="0.00674882" stroke-miterlimit="1.5" stroke-linecap="round" stroke-linejoin="round"/>
<path fill-rule="evenodd" clip-rule="evenodd" d="M26.3438 14.1426C26.3438 14.1426 26.742 15.8255 28.9408 16.029C28.9408 16.029 29.4445 14.1682 26.3438 14.1426Z" fill="black" stroke="black" stroke-width="0.00506162" stroke-miterlimit="1.5" stroke-linecap="round" stroke-linejoin="round"/>
<path d="M16.931 18.07C17.4884 18.07 17.9402 17.6182 17.9402 17.0609C17.9402 16.5036 17.4884 16.0518 16.931 16.0518C16.3737 16.0518 15.9219 16.5036 15.9219 17.0609C15.9219 17.6182 16.3737 18.07 16.931 18.07Z" fill="black"/>
</g>
</svg>
