<svg enable-background="new 0 0 592.2 118.6" viewBox="0 0 592.2 118.6" xmlns="http://www.w3.org/2000/svg"><g fill="#222"><path d="m32.4 78.8c-11.6 0-23.2-4-32.4-12.2l9.9-11.9c6.9 5.7 14.1 9.3 22.8 9.3 6.9 0 11-2.7 11-7.2v-.2c0-4.3-2.6-6.4-15.4-9.7-15.3-4-25.2-8.3-25.2-23.4v-.2c0-13.9 11.1-23 26.7-23 11.1 0 20.6 3.5 28.4 9.7l-8.7 12.7c-6.8-4.7-13.4-7.5-19.9-7.5s-9.8 2.9-9.8 6.7v.2c0 5 3.3 6.7 16.5 10 15.5 4 24.2 9.6 24.2 22.9v.2c-.1 15.1-11.6 23.6-28.1 23.6z"/><path d="m135.3 16.8v60.9h-16.8v-60.9h-23.3v-15.5h63.3v15.5z"/><path d="m232.5 79c-23.6 0-40.5-17.6-40.5-39.3v-.2c0-21.7 17.1-39.5 40.7-39.5s40.5 17.6 40.5 39.3v.2c0 21.7-17.2 39.5-40.7 39.5zm23.1-39.5c0-13.1-9.6-24-23.1-24s-22.9 10.7-22.9 23.8v.2c0 13.1 9.6 24 23.1 24s22.9-10.7 22.9-23.8z"/><path d="m361.7 77.7-16.4-24.4h-13.2v24.4h-16.8v-76.4h34.9c18 0 28.8 9.5 28.8 25.2v.2c0 12.3-6.7 20.1-16.4 23.7l18.7 27.3zm.4-50.3c0-7.2-5-10.9-13.2-10.9h-16.7v21.9h17c8.2 0 12.9-4.4 12.9-10.8z"/><path d="m421.5 77.7v-76.4h57.6v14.9h-40.9v15.5h36v14.9h-36v16h41.5v14.9h-58.2z"/><path d="m551.6 77.7h-29.8v-76.4h29.8c24 0 40.6 16.5 40.6 38v.2c0 21.5-16.6 38.2-40.6 38.2zm23.1-38.2c0-13.5-9.3-23-23-23h-13v46h13c13.7 0 23-9.3 23-22.8z"/><circle cx="232.7" cy="108.6" r="9.9"/></g></svg>