<svg id="Layer_1" data-name="Layer 1" xmlns="http://www.w3.org/2000/svg" viewBox="0 0 193.4 28.25"><defs><style>.cls-1{fill:#212a3b;}.cls-2{fill:#ee353e;}</style></defs><title>Transparent background</title><g id="techreviewer_logo-02" data-name="techreviewer logo-02"><path id="Path_191180" data-name="Path 191180" class="cls-1" d="M37.56,14.2h-3v-2l3.15-.11L38,9h2.2v3.1h5.17v2.1H40.23v4.67A3,3,0,0,0,40.81,21a2.7,2.7,0,0,0,2,.66,6.89,6.89,0,0,0,1.36-.13,8.08,8.08,0,0,0,1.16-.34l.49,1.95a16,16,0,0,1-1.68.45,10.36,10.36,0,0,1-2,.2,6,6,0,0,1-2.14-.4,3.57,3.57,0,0,1-1.43-1,3.94,3.94,0,0,1-.78-1.54,7.94,7.94,0,0,1-.25-2Z"/><path id="Path_191181" data-name="Path 191181" class="cls-1" d="M48,17.79a6.14,6.14,0,0,1,.5-2.5,6,6,0,0,1,1.31-1.88,5.27,5.27,0,0,1,1.86-1.18,6.13,6.13,0,0,1,4.42,0A4.56,4.56,0,0,1,58.8,15a7.08,7.08,0,0,1,.31,2.89,1.2,1.2,0,0,1-.08.53H50.76A3.42,3.42,0,0,0,52,20.85a4,4,0,0,0,2.59.83,5.11,5.11,0,0,0,1.65-.24,7.93,7.93,0,0,0,1.55-.68l.9,1.66a9.17,9.17,0,0,1-2.06.95,7.4,7.4,0,0,1-2.38.37,6.93,6.93,0,0,1-2.43-.4,5.51,5.51,0,0,1-3.29-3A6,6,0,0,1,48,17.79Zm8.66-1a3,3,0,0,0-.7-2.13,2.6,2.6,0,0,0-2.06-.77,3.24,3.24,0,0,0-1.11.19,3,3,0,0,0-1,.55,3.33,3.33,0,0,0-1.12,2.16Z"/><path id="Path_191182" data-name="Path 191182" class="cls-1" d="M61.7,17.8a6,6,0,0,1,.53-2.53,5.61,5.61,0,0,1,1.4-1.87,6,6,0,0,1,2.06-1.17,7.71,7.71,0,0,1,2.47-.41,6.25,6.25,0,0,1,2.45.47,6,6,0,0,1,1.77,1.13L71.1,15.08a6,6,0,0,0-1.35-.81,4.13,4.13,0,0,0-4.23.75,3.72,3.72,0,0,0-1.06,2.77,4.18,4.18,0,0,0,.28,1.56,3.61,3.61,0,0,0,.78,1.19,3.56,3.56,0,0,0,1.19.76,4.44,4.44,0,0,0,1.53.27A4.09,4.09,0,0,0,70,21.2a7.46,7.46,0,0,0,1.46-.88L72.59,22a6.67,6.67,0,0,1-2.18,1.28,7.44,7.44,0,0,1-2.43.43,7.77,7.77,0,0,1-2.49-.4,5.71,5.71,0,0,1-2-1.15,5.3,5.3,0,0,1-1.32-1.88,6.24,6.24,0,0,1-.47-2.52Z"/><path id="Path_191183" data-name="Path 191183" class="cls-1" d="M75.34,7.12H78v4.21l-.17,2.43a8.79,8.79,0,0,1,1.78-1.37,4.4,4.4,0,0,1,2.3-.58A3.42,3.42,0,0,1,84.83,13a5.48,5.48,0,0,1,.93,3.42v7H83.07V16.77a3.42,3.42,0,0,0-.48-2,1.91,1.91,0,0,0-1.65-.64,2.85,2.85,0,0,0-1.48.39A7.86,7.86,0,0,0,78,15.7v7.76H75.34Z"/><path id="Path_191184" data-name="Path 191184" class="cls-1" d="M89.88,12.1h2.2l.23,2.57h.07a6.26,6.26,0,0,1,2.12-2.13,5.19,5.19,0,0,1,2.72-.73,6.75,6.75,0,0,1,1.19.1,4.42,4.42,0,0,1,1,.36l-.56,2.25a8.68,8.68,0,0,0-1-.27,5.45,5.45,0,0,0-1.07-.08,4.36,4.36,0,0,0-2.27.67,6,6,0,0,0-2,2.34v6.27H89.87Z"/><path id="Path_191185" data-name="Path 191185" class="cls-1" d="M101.73,17.79a6.14,6.14,0,0,1,.5-2.5,6,6,0,0,1,1.31-1.88,5.27,5.27,0,0,1,1.86-1.18,6.13,6.13,0,0,1,4.42,0A4.56,4.56,0,0,1,112.5,15a7.08,7.08,0,0,1,.31,2.89,1.2,1.2,0,0,1-.08.53h-8.27a3.44,3.44,0,0,0,1.23,2.39,4,4,0,0,0,2.59.83,5.11,5.11,0,0,0,1.65-.24,7.93,7.93,0,0,0,1.55-.68l.9,1.66a9.17,9.17,0,0,1-2.06.95,7.4,7.4,0,0,1-2.38.37,6.93,6.93,0,0,1-2.43-.4,5.51,5.51,0,0,1-3.29-3A6,6,0,0,1,101.73,17.79Zm8.66-1a3,3,0,0,0-.7-2.13,2.6,2.6,0,0,0-2.06-.77,3.24,3.24,0,0,0-1.11.19,3,3,0,0,0-1,.55,3.52,3.52,0,0,0-.73.9,3.44,3.44,0,0,0-.39,1.25Z"/><path id="Path_191186" data-name="Path 191186" class="cls-1" d="M114.67,12.1h2.69l2.2,5.9c.22.56.41,1.13.59,1.7l.54,1.72h.09l.55-1.72c.18-.57.38-1.13.59-1.7l2.2-5.9h2.55l-4.42,11.37h-3Z"/><path id="Path_191187" data-name="Path 191187" class="cls-1" d="M129.09,12.1h7.59V23.46H134V14.2h-4.93Zm6.07-2a2,2,0,0,1-1.36-.49,1.68,1.68,0,0,1-.54-1.3A1.71,1.71,0,0,1,133.8,7a2.12,2.12,0,0,1,2.72,0,1.71,1.71,0,0,1,.53,1.31,1.64,1.64,0,0,1-.53,1.3,2,2,0,0,1-1.37.49Z"/><path id="Path_191188" data-name="Path 191188" class="cls-1" d="M142,17.8a6.14,6.14,0,0,1,.5-2.5,5.89,5.89,0,0,1,1.31-1.89,5.36,5.36,0,0,1,1.86-1.18,5.92,5.92,0,0,1,2.16-.41,6,6,0,0,1,2.27.41,4.85,4.85,0,0,1,1.65,1.11,4.72,4.72,0,0,1,1,1.7,6.72,6.72,0,0,1,.35,2.18v.72a4.85,4.85,0,0,1-.08.53h-8.27A3.38,3.38,0,0,0,146,20.85a4.1,4.1,0,0,0,2.59.84,5.66,5.66,0,0,0,1.64-.24,9,9,0,0,0,1.56-.69l.9,1.67a9.17,9.17,0,0,1-2.06.95,7.69,7.69,0,0,1-2.38.37,7.42,7.42,0,0,1-2.43-.4,5.76,5.76,0,0,1-2-1.17,5.35,5.35,0,0,1-1.32-1.87A5.87,5.87,0,0,1,142,17.8Zm8.65-1a3,3,0,0,0-.69-2.13,2.6,2.6,0,0,0-2.06-.77,3.24,3.24,0,0,0-1.11.19,3,3,0,0,0-1,.55,3.52,3.52,0,0,0-.73.9,3.44,3.44,0,0,0-.39,1.25Z"/><path id="Path_191189" data-name="Path 191189" class="cls-1" d="M154.11,12.1h2.67l1,5.9q.14.81.24,1.62c.07.54.14,1.08.22,1.64h.09c.08-.55.17-1.1.26-1.64s.2-1.08.32-1.62L160,13.2h2l1.1,4.8c.12.54.23,1.08.32,1.62s.19,1.08.28,1.64h.1c.09-.55.17-1.1.24-1.64s.14-1.08.22-1.62l1-5.9h2.48l-2.11,11.36h-3.15l-1-4.74c-.09-.54-.18-1.08-.26-1.61s-.18-1.1-.28-1.7h-.1c-.08.45-.15.93-.22,1.44s-.16,1.15-.28,1.89l-1,4.72h-3.08Z"/><path id="Path_191190" data-name="Path 191190" class="cls-1" d="M168.86,17.8a6.14,6.14,0,0,1,.5-2.5,5.89,5.89,0,0,1,1.31-1.89,5.5,5.5,0,0,1,1.86-1.18,6.19,6.19,0,0,1,4.43,0,4.85,4.85,0,0,1,1.65,1.11,4.72,4.72,0,0,1,1,1.7,6.47,6.47,0,0,1,.35,2.18v.72a2.32,2.32,0,0,1-.09.53H171.6a3.36,3.36,0,0,0,1.23,2.38,4.1,4.1,0,0,0,2.59.84,5.35,5.35,0,0,0,1.64-.25,8.29,8.29,0,0,0,1.56-.68l.9,1.67a10.39,10.39,0,0,1-2.06.95,8,8,0,0,1-2.38.37,7.52,7.52,0,0,1-2.44-.4,5.92,5.92,0,0,1-2-1.17,5.35,5.35,0,0,1-1.32-1.87A6.18,6.18,0,0,1,168.86,17.8Zm8.66-1a3,3,0,0,0-.7-2.13,2.6,2.6,0,0,0-2.06-.77,3.24,3.24,0,0,0-1.11.19,3,3,0,0,0-1,.55,3.52,3.52,0,0,0-.73.9,3.44,3.44,0,0,0-.39,1.25Z"/><path id="Path_191191" data-name="Path 191191" class="cls-1" d="M183.86,12.1h2.2l.23,2.57h.07a6.35,6.35,0,0,1,2.12-2.13,5.41,5.41,0,0,1,2.72-.73,6.94,6.94,0,0,1,1.2.1,4.42,4.42,0,0,1,1,.36l-.55,2.25a8.68,8.68,0,0,0-1-.27,5.61,5.61,0,0,0-1.08-.08,4.36,4.36,0,0,0-2.27.67,5.67,5.67,0,0,0-2,2.34v6.27h-2.69Z"/><path id="Path_191192" data-name="Path 191192" class="cls-2" d="M14.85,0l4.59,9.3L29.7,10.79,22.27,18,24,28.25l-9.18-4.83L5.67,28.24,7.42,18,0,10.79,10.26,9.3Z"/></g></svg>