<?xml version="1.0" encoding="UTF-8"?>
<svg width="100px" height="30px" viewBox="0 0 100 30" version="1.1" xmlns="http://www.w3.org/2000/svg" xmlns:xlink="http://www.w3.org/1999/xlink">
    <!-- Generator: Sketch 64 (93537) - https://sketch.com -->
    <title>Group</title>
    <desc>Created with Sketch.</desc>
    <g id="Page-1" stroke="none" stroke-width="1" fill="none" fill-rule="evenodd">
        <g id="Desktop" transform="translate(-345.000000, -50.000000)" fill-rule="nonzero">
            <g id="Top-menu/not-active">
                <g id="Top-menu">
                    <g id="Logo/color" transform="translate(345.000000, 50.000000)">
                        <g id="Group">
                            <g id="essay" transform="translate(51.677852, 3.020134)" fill="#459373">
                                <path d="M4.14921481,5.96092899e-16 C5.58682484,5.96092899e-16 6.77285312,0.494444335 7.70729964,1.48333301 C8.64174616,2.47222168 9.10896942,3.69532082 9.10896942,5.15263044 C9.10896942,5.42370738 9.08627987,5.70833816 9.04090076,6.00652279 L9.01095055,6.18706004 L1.62032808,6.18706004 L1.65282101,6.29656616 C2.01650191,7.44666122 2.92704827,8.02170875 4.38446009,8.02170875 C5.30761959,8.02170875 6.0164337,7.72531636 6.51090243,7.13253159 L6.58008268,7.04583178 L8.61887509,8.21688415 L8.52969502,8.34153473 C7.56499977,9.6506855 6.17018561,10.3052609 4.34525254,10.3052609 C2.79531223,10.3052609 1.53826172,9.85893216 0.574101017,8.96627471 C0.890366131,8.07768856 1.0481882,7.11846628 1.0481882,6.08864358 C1.0481882,4.55637045 0.698794411,3.18039582 -2.68241805e-14,1.96070323 C0.129081783,1.79225104 0.270673222,1.62982663 0.424497914,1.47357424 C1.39161739,0.491191412 2.63318969,5.96092899e-16 4.14921481,5.96092899e-16 Z M4.14921481,2.26403459 C3.46961734,2.26403459 2.90764251,2.43643952 2.46329032,2.78124938 C2.04856161,3.10307193 1.76475706,3.54674174 1.61187667,4.11225884 L1.58112053,4.23530608 L6.58008268,4.23530608 C6.43632168,3.57170974 6.13899779,3.0772654 5.688111,2.75197308 C5.23722422,2.42668075 4.72425882,2.26403459 4.14921481,2.26403459 Z" id="Shape"></path>
                                <path d="M18.5931596,2.59240802e-14 C19.3903797,2.59240802e-14 20.1157193,0.178910779 20.7691784,0.536732337 C21.4226375,0.894553896 21.9388702,1.40526285 22.3178765,2.06885919 L22.3178765,2.06885919 L20.1614614,3.23991156 L20.0853663,3.09266385 C19.766138,2.52723265 19.2687357,2.24451705 18.5931596,2.24451705 C18.26643,2.24451705 17.9952445,2.31608136 17.779603,2.45920998 C17.5639615,2.60233861 17.4561407,2.797514 17.4561407,3.04473617 C17.4561407,3.30497003 17.6293074,3.51641004 17.9756407,3.6790562 C18.321974,3.84170237 18.7434551,3.98483099 19.2400841,4.10844207 C19.736713,4.23205316 20.2333419,4.38819347 20.7299708,4.57686302 C21.2265997,4.76553257 21.6480809,5.08106613 21.9944142,5.52346369 C22.3407475,5.96586125 22.5139142,6.51885821 22.5139142,7.18245455 C22.5139142,8.18435492 22.1381752,8.95529773 21.3866972,9.49528299 C20.6352193,10.0352682 19.6975054,10.3052609 18.5735558,10.3052609 C17.1354285,10.3052609 16.0242659,9.90997875 15.240068,9.11941448 C15.1150162,9.2545216 14.9718732,9.38015187 14.8116494,9.49528299 C14.0601714,10.0352682 13.1224576,10.3052609 11.9985079,10.3052609 C9.98585388,10.3052609 8.61358976,9.53106514 7.88171556,7.98267367 L7.88171556,7.98267367 L10.0773382,6.75306868 L10.1395475,6.91658229 C10.4518138,7.65333327 11.0714673,8.02170875 11.9985079,8.02170875 C12.9002815,8.02170875 13.3511683,7.74195735 13.3511683,7.18245455 C13.3511683,6.92222069 13.1780016,6.71078068 12.8316683,6.54813452 C12.485335,6.38548835 12.0638538,6.23910681 11.5672249,6.10898988 C11.070596,5.97887295 10.5739671,5.81622678 10.0773382,5.62105139 C9.58070923,5.42587599 9.15922811,5.11684828 8.81289479,4.69396826 C8.46656146,4.27108824 8.2933948,3.74086175 8.2933948,3.10328879 C8.2933948,2.1404235 8.64953001,1.38249238 9.36180043,0.829495431 C10.0740709,0.276498477 10.9595079,2.59240802e-14 12.0181117,2.59240802e-14 C12.8153318,2.59240802e-14 13.5406714,0.178910779 14.1941305,0.536732337 C14.6357891,0.778576039 15.0147612,1.09026038 15.3310467,1.47178537 C15.489812,1.23329727 15.6923478,1.01932227 15.9368483,0.829495431 C16.6491187,0.276498477 17.5345558,2.59240802e-14 18.5931596,2.59240802e-14 Z M12.0181117,2.24451705 C11.6913821,2.24451705 11.4201966,2.31608136 11.2045551,2.45920998 C10.9889136,2.60233861 10.8810929,2.797514 10.8810929,3.04473617 C10.8810929,3.30497003 11.0542595,3.51641004 11.4005928,3.6790562 C11.7469262,3.84170237 12.1684073,3.98483099 12.6650362,4.10844207 C13.1616651,4.23205316 13.658294,4.38819347 14.154923,4.57686302 C14.6515519,4.76553257 15.073033,5.08106613 15.4193663,5.52346369 C15.7656997,5.96586125 15.9388663,6.51885821 15.9388663,7.18245455 L15.9377156,7.153 L16.652386,6.75306868 L16.7145953,6.91658229 C17.0268616,7.65333327 17.6465151,8.02170875 18.5735558,8.02170875 C19.4753293,8.02170875 19.9262161,7.74195735 19.9262161,7.18245455 C19.9262161,6.92222069 19.7530495,6.71078068 19.4067161,6.54813452 C19.0603828,6.38548835 18.6389017,6.23910681 18.1422728,6.10898988 C17.6456439,5.97887295 17.1490149,5.81622678 16.652386,5.62105139 C16.1557571,5.42587599 15.734276,5.11684828 15.3879426,4.69396826 C15.0416093,4.27108824 14.8684427,3.74086175 14.8684427,3.10328879 C14.8684427,2.89815346 14.8846072,2.70231988 14.9169364,2.51578803 L13.5864135,3.23991156 L13.5103184,3.09266385 C13.1910901,2.52723265 12.6936879,2.24451705 12.0181117,2.24451705 Z" id="Combined-Shape"></path>
                                <path d="M26.32483,2.59240802e-14 C27.6970941,2.59240802e-14 28.7622325,0.474926796 29.520245,1.42478039 L29.520245,1.42478039 L29.520245,0.273245554 L32.0491318,0.273245554 L32.0491318,10.0320153 L29.520245,10.0320153 L29.520245,8.88048049 L29.3745186,9.05301249 C28.6278905,9.88784475 27.6113276,10.3052609 26.32483,10.3052609 C25.0179118,10.3052609 23.8972294,9.80756362 22.9627829,8.8121691 C22.0283364,7.81677459 21.5611131,6.59692837 21.5611131,5.15263044 C21.5611131,3.70833251 22.0283364,2.48848629 22.9627829,1.49309178 C23.8972294,0.497697258 25.0179118,2.59240802e-14 26.32483,2.59240802e-14 Z M26.7953206,2.40065736 C26.0111697,2.40065736 25.3642451,2.6576383 24.854547,3.17160018 C24.3448489,3.68556205 24.0899999,4.34590547 24.0899999,5.15263044 C24.0899999,5.95935541 24.3448489,6.62295175 24.854547,7.14341947 C25.3642451,7.6508755 26.0111697,7.90460352 26.7953206,7.90460352 C27.5794715,7.90460352 28.2296633,7.64762258 28.745896,7.1336607 C29.2621287,6.61969883 29.520245,5.95935541 29.520245,5.15263044 C29.520245,4.34590547 29.2621287,3.68556205 28.745896,3.17160018 C28.2296633,2.6576383 27.5794715,2.40065736 26.7953206,2.40065736 Z" id="Combined-Shape"></path>
                                <path d="M32.7626515,13.9355232 C34.017293,14.0005817 35.0660948,13.7175774 35.9090571,13.0865103 C36.7520193,12.4554432 37.4283495,11.4372782 37.9380476,10.0320153 L37.9380476,10.0320153 L41.5059343,0.273245554 L38.8006136,0.273245554 L36.6245948,6.83113884 L34.0761043,0.273245554 L31.3119723,0.273245554 L35.3307458,9.71973469 C35.0955005,10.383331 34.7785728,10.8647637 34.3799628,11.1640326 C33.9813527,11.4633016 33.4422489,11.6064302 32.7626515,11.5934185 L32.7626515,11.5934185 L32.7626515,13.9355232 Z" id="Path"></path>
                            </g>
                            <g id="writing" transform="translate(58.724832, 14.429530)" fill="#459373">
                                <polygon id="Path" points="4.5259165 11.6025394 6.00245664 6.71301308 7.47899678 11.6025394 9.45306674 11.6025394 12.0049133 3.5340141 9.80615243 3.5340141 8.44195773 8.5042257 6.98146695 3.5340141 5.02344633 3.5340141 3.56295555 8.48808865 2.19876085 3.5340141 1.89383681e-14 3.5340141 2.55184654 11.6025394"></polygon>
                                <path d="M13.6162207,11.6025394 L13.6162207,7.74578432 C13.6162207,6.97120589 13.8649857,6.41716715 14.3625155,6.0836681 C14.694202,5.8613354 14.9901822,5.78602917 15.2504559,5.85774939 L15.2504559,3.5340141 C15.0936113,3.51249803 14.8671784,3.58780427 14.571157,3.75993281 C14.127125,4.01812562 13.8088129,4.40541483 13.6162207,4.92180045 L13.6162207,3.5340141 L11.5458547,3.5340141 L11.5458547,11.6025394 L13.6162207,11.6025394 Z" id="Path"></path>
                                <path d="M17.7472761,3.5340141 L17.7472761,11.6025394 L15.67691,11.6025394 L15.67691,3.5340141 L17.7472761,3.5340141 Z M16.7040683,1.53344898e-14 C17.057154,1.53344898e-14 17.3594168,0.129096405 17.6108566,0.387289216 C17.8622964,0.645482027 17.9880163,0.946706973 17.9880163,1.29096405 C17.9880163,1.63522113 17.8622964,1.93375657 17.6108566,2.18657037 C17.3594168,2.43938416 17.057154,2.56579106 16.7040683,2.56579106 C16.3616822,2.56579106 16.0647693,2.43938416 15.8133295,2.18657037 C15.5618897,1.93375657 15.4361698,1.63522113 15.4361698,1.29096405 C15.4361698,0.946706973 15.5618897,0.645482027 15.8133295,0.387289216 C16.0647693,0.129096405 16.3616822,1.53344898e-14 16.7040683,1.53344898e-14 Z" id="Combined-Shape"></path>
                                <path d="M19.6394471,11.1991132 C20.2225735,11.6294345 21.2256578,11.7639099 22.6487001,11.6025394 L22.6487001,9.7145045 C22.2528162,9.73602057 21.9211296,9.73871008 21.6536405,9.72257303 C21.3861513,9.70643598 21.1828596,9.63381925 21.0437652,9.50472284 C20.9046708,9.37562644 20.8351237,9.1712238 20.8351237,8.89151492 L20.8351237,5.53500838 L21.7957919,5.53500838 L21.7957919,3.5340141 L20.8351237,3.5340141 L20.8351237,1.274827 L18.7647576,1.90417198 L18.7647576,3.5340141 L17.3684642,3.5340141 L17.3684642,5.53500838 L18.7647576,5.53500838 L18.7647576,8.89151492 C18.7647576,9.9995924 19.0563208,10.7687918 19.6394471,11.1991132 Z" id="Path"></path>
                                <path d="M24.5970439,3.5340141 L24.5970439,11.6025394 L22.5266779,11.6025394 L22.5266779,3.5340141 L24.5970439,3.5340141 Z M23.5538362,1.53344898e-14 C23.9069219,1.53344898e-14 24.2091847,0.129096405 24.4606245,0.387289216 C24.7120643,0.645482027 24.8377842,0.946706973 24.8377842,1.29096405 C24.8377842,1.63522113 24.7120643,1.93375657 24.4606245,2.18657037 C24.2091847,2.43938416 23.9069219,2.56579106 23.5538362,2.56579106 C23.2114501,2.56579106 22.9145371,2.43938416 22.6630973,2.18657037 C22.4116575,1.93375657 22.2859376,1.63522113 22.2859376,1.29096405 C22.2859376,0.946706973 22.4116575,0.645482027 22.6630973,0.387289216 C22.9145371,0.129096405 23.2114501,1.53344898e-14 23.5538362,1.53344898e-14 Z" id="Combined-Shape"></path>
                                <path d="M26.9787202,11.6025394 L26.9787202,7.24553575 C26.9787202,6.57853766 27.1392137,6.07828909 27.4602006,5.74479004 C27.7811876,5.41129099 28.2091703,5.24454147 28.7441486,5.24454147 C29.2256291,5.24454147 29.6108134,5.38708541 29.8997017,5.67217331 C30.18859,5.95726121 30.3330342,6.368756 30.3330342,6.90665769 L30.3330342,11.6025394 L32.4034002,11.6025394 L32.4034002,6.64846488 C32.4034002,5.6049356 32.1171868,4.78732503 31.54476,4.19563317 C30.9723332,3.60394132 30.2474376,3.30809539 29.3700732,3.30809539 C28.2787175,3.30809539 27.4815998,3.68462657 26.9787202,4.43768893 L26.9787202,3.5340141 L24.9083541,3.5340141 L24.9083541,11.6025394 L26.9787202,11.6025394 Z" id="Path"></path>
                                <path d="M36.1653205,3.30809539 C37.2673758,3.30809539 38.1233411,3.71690067 38.7332164,4.53451124 L38.7332164,4.53451124 L38.7332164,3.5340141 L40.7554344,3.5340141 L40.7554344,11.2152502 C40.7554344,12.4631821 40.346176,13.4152681 39.5276592,14.0715082 C38.7091424,14.7277482 37.7221074,15.0558683 36.5665542,15.0558683 C35.6998894,15.0558683 34.9375453,14.8891187 34.279522,14.5556197 C33.6214986,14.2221207 33.1159441,13.7326301 32.7628584,13.0871481 L32.7628584,13.0871481 L34.5282869,12.0705139 C34.9348704,12.8235763 35.635692,13.2001074 36.6307516,13.2001074 C37.2834252,13.2001074 37.7970043,13.0279789 38.1714892,12.6837218 C38.545974,12.3394647 38.7332164,11.8499742 38.7332164,11.2152502 L38.7332164,11.2152502 L38.7332164,10.3438495 C38.1233411,11.16146 37.2673758,11.5702653 36.1653205,11.5702653 C35.0311665,11.5702653 34.08158,11.1695286 33.316561,10.3680551 C32.551542,9.56658154 32.1690325,8.59028997 32.1690325,7.43918036 C32.1690325,6.29882878 32.5542169,5.32522672 33.3245857,4.51837419 C34.0949544,3.71152165 35.0418661,3.30809539 36.1653205,3.30809539 Z M36.4863075,5.24454147 C35.833634,5.24454147 35.2959807,5.45163362 34.8733479,5.86581792 C34.450715,6.28000222 34.2393986,6.80445637 34.2393986,7.43918036 C34.2393986,8.08466238 34.4480401,8.61718506 34.8653232,9.03674837 C35.2933059,9.44555366 35.833634,9.6499563 36.4863075,9.6499563 C37.138981,9.6499563 37.6766342,9.44286415 38.0992671,9.02867985 C38.5219,8.61449555 38.7332164,8.08466238 38.7332164,7.43918036 C38.7332164,6.80445637 38.5219,6.28000222 38.0992671,5.86581792 C37.6766342,5.45163362 37.138981,5.24454147 36.4863075,5.24454147 Z" id="Combined-Shape"></path>
                            </g>
                            <path d="M26.1604227,2.13162821e-14 C28.7101601,2.13162821e-14 30.9880291,0.619662089 32.994062,1.85899937 L32.9954176,8.40156583 C32.6901315,7.92514101 32.3282747,7.47899047 31.9098467,7.06311306 C30.362375,5.52507405 28.4459195,4.75606608 26.1604227,4.75606608 C23.874926,4.75606608 21.9584705,5.52507405 20.4109987,7.06311306 C18.8635269,8.60115207 18.0898027,10.5532492 18.0898027,12.9194631 C18.0898027,15.2856769 18.8635269,17.2377741 20.4109987,18.7758131 C21.9584705,20.29019 23.874926,21.0473671 26.1604227,21.0473671 C28.4459195,21.0473671 30.362375,20.2842745 31.9098467,18.7580666 C33.1821323,17.5032635 33.9313922,15.9645732 34.1576394,14.1419632 L34.1580687,0.771587619 L43.4785636,0.771587619 C45.8830966,0.771587619 47.9066832,1.57608826 49.549384,3.18511369 C51.1920847,4.79413912 52.0134228,6.76989805 52.0134228,9.11244978 C52.0134228,11.4550015 51.1920847,13.4307604 49.549384,15.0397859 C47.9066832,16.6488113 45.8830966,17.4533119 43.4785636,17.4533119 L39.0861464,17.4533119 L39.0861464,25.6167089 L34.1580687,25.6167089 L34.1581796,23.1800156 C31.8829258,24.9526301 29.2170253,25.8389262 26.1604227,25.8389262 C22.5417195,25.8389262 19.4765811,24.5907671 16.9649154,22.0944115 C14.4532497,19.5980558 13.1974356,16.5397703 13.1974356,12.9194631 C13.1974356,9.29915588 14.4532497,6.24087034 16.9649154,3.74451471 C19.4765811,1.24815909 22.5417195,2.13162821e-14 26.1604227,2.13162821e-14 Z M19.0827663,0.770379277 C18.0051546,1.38273008 16.9984914,2.15306072 16.0654246,3.08043998 C15.3162375,3.82506031 14.6689512,4.61769457 14.124025,5.45697216 L11.6416909,5.45666764 L11.6416909,25.6167089 L6.71361314,25.6167089 L6.71361314,5.45666764 L8.17124146e-14,5.45666764 L8.17124146e-14,0.771587619 L19.0827663,0.770379277 Z M43.4785636,5.35018855 L39.0861464,5.35018855 L39.0861464,12.874711 L43.4785636,12.874711 C44.5260829,12.874711 45.3950348,12.5138688 46.0854453,11.7921736 C46.7758557,11.0704783 47.1210558,10.177246 47.1210558,9.11244978 C47.1210558,8.0239914 46.7758557,7.12484362 46.0854453,6.41497946 C45.3950348,5.7051153 44.5260829,5.35018855 43.4785636,5.35018855 Z" id="Shape" fill="#373C40"></path>
                        </g>
                    </g>
                </g>
            </g>
        </g>
    </g>
</svg>