<svg fill="#091d41" class="w-28 h-7" viewBox="0 0 287 67" xmlns="http://www.w3.org/2000/svg"><path d="M163.974 0C165.261 0 166.194 1.22873 165.847 2.46911L148.534 64.4426C148.299 65.2833 147.533 65.8647 146.66 65.8647H134.066C133.183 65.8647 132.41 65.2694 132.185 64.415L120.205 18.9668L107.669 64.4452C107.438 65.2848 106.676 65.8684 105.805 65.8737L93.3033 65.9499C92.419 65.9553 91.6423 65.3637 91.4126 64.5097L74.7216 2.45094C74.3891 1.21482 75.3204 0 76.6004 0H86.6631C87.5718 0 88.3594 0.628923 88.5605 1.51503L98.9423 47.2625C99.1677 48.2555 100.574 48.2787 100.832 47.2937L112.842 1.45252C113.066 0.596778 113.84 0 114.724 0H126.422C127.316 0 128.094 0.608877 128.31 1.4762L139.607 46.9162C139.854 47.9093 141.27 47.8969 141.499 46.8996L151.941 1.50941C152.145 0.626003 152.931 0 153.837 0H163.974Z"></path><path d="M215.161 40.2809C215.161 41.4005 215.114 42.4493 215.019 43.4273C214.928 44.374 214.11 45.0613 213.159 45.0613H181.069C179.93 45.0613 179.021 46.0395 179.257 47.153C179.8 49.7131 180.939 51.7897 182.672 53.3827C184.856 55.3892 187.541 56.3925 190.728 56.3925C194.9 56.3925 197.981 54.7689 199.971 51.5218C200.359 50.8899 201.024 50.4613 201.765 50.4613H211.307C212.61 50.4613 213.545 51.7208 213.035 52.9202C211.491 56.5523 209.071 59.6278 205.777 62.1467C201.764 65.1565 196.836 66.6615 190.994 66.6615C186.272 66.6615 182.023 65.6287 178.246 63.5631C174.528 61.4385 171.607 58.4581 169.482 54.622C167.416 50.7859 166.384 46.3597 166.384 41.3432C166.384 36.2678 167.416 31.812 169.482 27.9759C171.548 24.1398 174.439 21.189 178.158 19.1234C181.876 17.0578 186.154 16.025 190.994 16.025C195.656 16.025 199.817 17.0283 203.476 19.0349C207.194 21.0414 210.056 23.9038 212.063 27.6218C214.128 31.2809 215.161 35.5006 215.161 40.2809ZM201.334 36.7399C201.878 36.7399 202.321 36.2922 202.27 35.7503C202.01 33.0234 200.878 30.8155 198.872 29.1267C196.63 27.1792 193.885 26.2054 190.64 26.2054C187.571 26.2054 184.974 27.1497 182.849 29.0382C181.02 30.6585 179.816 32.8574 179.236 35.6348C179.115 36.2144 179.572 36.7399 180.164 36.7399H201.334Z"></path><path d="M229.786 0.356047C230.861 0.356047 231.732 1.22713 231.732 2.30166V63.9191C231.732 64.9937 230.861 65.8647 229.786 65.8647H221.284C220.209 65.8647 219.338 64.9936 219.338 63.9191V2.30165C219.338 1.22712 220.209 0.356047 221.284 0.356047H229.786Z"></path><path d="M235.921 41.1662C235.921 36.2088 236.895 31.812 238.842 27.9759C240.849 24.1398 243.564 21.189 246.987 19.1234C250.41 17.0578 254.216 16.025 258.406 16.025C261.593 16.025 264.633 16.7332 267.524 18.1496C270.416 19.507 272.718 21.3365 274.429 23.6382V2.30165C274.429 1.22712 275.3 0.356047 276.375 0.356047H285.054C286.129 0.356047 287 1.22713 287 2.30166V63.9191C287 64.9937 286.129 65.8647 285.054 65.8647H276.375C275.3 65.8647 274.429 64.9936 274.429 63.9191V58.6057C272.895 61.0253 270.741 62.9729 267.967 64.4483C265.193 65.9237 261.977 66.6615 258.318 66.6615C254.187 66.6615 250.41 65.5991 246.987 63.4745C243.564 61.3499 240.849 58.3696 238.842 54.5335C236.895 50.6384 235.921 46.1826 235.921 41.1662ZM274.518 41.3432C274.518 38.3334 273.928 35.7661 272.747 33.6415C271.567 31.4579 269.974 29.8054 267.967 28.6841C265.96 27.5038 263.806 26.9136 261.505 26.9136C259.203 26.9136 257.078 27.4743 255.131 28.5956C253.183 29.7169 251.59 31.3694 250.351 33.553C249.17 35.6776 248.58 38.2153 248.58 41.1662C248.58 44.117 249.17 46.7138 250.351 48.9564C251.59 51.14 253.183 52.822 255.131 54.0023C257.137 55.1827 259.262 55.7728 261.505 55.7728C263.806 55.7728 265.96 55.2122 267.967 54.0909C269.974 52.9105 271.567 51.2581 272.747 49.1335C273.928 46.9498 274.518 44.3531 274.518 41.3432Z"></path><path fill-rule="evenodd" clip-rule="evenodd" d="M34.2238 8.14662C35.0667 8.14562 35.8144 8.68748 36.0758 9.48881L38.6383 17.3439C38.8998 18.1452 38.6155 19.0237 37.9341 19.5199L31.2554 24.3844C30.5741 24.8807 29.6507 24.8818 28.9682 24.3871L22.278 19.5385C21.5955 19.0439 21.3091 18.166 21.5686 17.3641L24.1126 9.50298C24.3721 8.70104 25.1185 8.1574 25.9614 8.1564L34.2238 8.14662Z"></path><path fill-rule="evenodd" clip-rule="evenodd" d="M33.8818 58.0784C34.7246 58.0777 35.4713 57.5344 35.7311 56.7326L38.2784 48.8726C38.5383 48.0708 38.2523 47.1928 37.57 46.6979L30.8818 41.8464C30.1996 41.3515 29.2762 41.3522 28.5946 41.8481L21.9138 46.7097C21.2323 47.2057 20.9476 48.0841 21.2087 48.8855L23.7679 56.7416C24.029 57.5431 24.7764 58.0853 25.6193 58.0846L33.8818 58.0784Z"></path><path fill-rule="evenodd" clip-rule="evenodd" d="M53.8704 26.9852C54.6721 27.2457 55.2148 27.9927 55.2148 28.8356L55.2148 37.0981C55.2148 37.941 54.6721 38.688 53.8704 38.9485L46.0124 41.5017C45.2107 41.7622 44.3325 41.4769 43.8371 40.7949L38.9806 34.1105C38.4851 33.4286 38.4851 32.5052 38.9806 31.8233L43.8371 25.1388C44.3325 24.4569 45.2107 24.1715 46.0124 24.432L53.8704 26.9852Z"></path><path fill-rule="evenodd" clip-rule="evenodd" d="M6.61781 39.7257C5.81617 39.4652 5.27342 38.7182 5.27342 37.8753L5.27343 29.6128C5.27343 28.77 5.81617 28.0229 6.61781 27.7625L14.4759 25.2092C15.2775 24.9487 16.1557 25.2341 16.6511 25.916L21.5077 32.6005C22.0031 33.2824 22.0031 34.2058 21.5077 34.8877L16.6511 41.5722C16.1557 42.2541 15.2775 42.5394 14.4759 42.2789L6.61781 39.7257Z"></path></svg>