<svg width="152" height="52" viewBox="0 0 152 52" fill="none" xmlns="http://www.w3.org/2000/svg">
<rect width="51.6562" height="51.6562" rx="25.8281" fill="#007BFF"/>
<path d="M74.5905 24.2989L71.6447 34.8436H69.152L67.173 27.3354L65.1033 34.8436L62.6258 34.8587L59.7856 24.2989H62.0517L63.9099 32.4869L66.0551 24.2989H68.4118L70.4361 32.4416L72.3094 24.2989H74.5905Z" fill="#283551"/>
<path d="M79.6878 34.9796C78.8821 34.9796 78.157 34.8033 77.5124 34.4508C76.8679 34.0882 76.3593 33.5796 75.9866 32.925C75.6241 32.2704 75.4428 31.515 75.4428 30.659C75.4428 29.8029 75.6291 29.0475 76.0017 28.3929C76.3844 27.7383 76.9031 27.2347 77.5577 26.8822C78.2124 26.5196 78.9426 26.3383 79.7483 26.3383C80.554 26.3383 81.2841 26.5196 81.9388 26.8822C82.5934 27.2347 83.1071 27.7383 83.4797 28.3929C83.8624 29.0475 84.0538 29.8029 84.0538 30.659C84.0538 31.515 83.8574 32.2704 83.4646 32.925C83.0819 33.5796 82.5582 34.0882 81.8935 34.4508C81.2388 34.8033 80.5036 34.9796 79.6878 34.9796ZM79.6878 33.1365C80.0705 33.1365 80.4281 33.0459 80.7604 32.8646C81.1029 32.6732 81.3748 32.3912 81.5762 32.0186C81.7776 31.6459 81.8784 31.1927 81.8784 30.659C81.8784 29.8633 81.6669 29.254 81.2439 28.831C80.8309 28.3979 80.3223 28.1814 79.7181 28.1814C79.1138 28.1814 78.6052 28.3979 78.1922 28.831C77.7894 29.254 77.588 29.8633 77.588 30.659C77.588 31.4546 77.7844 32.0689 78.1771 32.502C78.58 32.925 79.0836 33.1365 79.6878 33.1365Z" fill="#283551"/>
<path d="M87.7202 27.7735C87.9921 27.3304 88.3446 26.9829 88.7777 26.7311C89.2208 26.4793 89.7244 26.3535 90.2884 26.3535V28.5742H89.7294C89.0647 28.5742 88.5611 28.7303 88.2187 29.0425C87.8863 29.3547 87.7202 29.8986 87.7202 30.6741V34.8436H85.6052V26.4743H87.7202V27.7735Z" fill="#283551"/>
<path d="M91.1691 30.6287C91.1691 29.7827 91.3352 29.0324 91.6676 28.3778C92.01 27.7232 92.4733 27.2196 93.0574 26.8671C93.6416 26.5146 94.2912 26.3383 95.0062 26.3383C95.5501 26.3383 96.0688 26.4592 96.5623 26.7009C97.0557 26.9326 97.4485 27.2448 97.7406 27.6375V23.6644H99.8858V34.8436H97.7406V33.6048C97.4787 34.0177 97.1111 34.3501 96.6378 34.6019C96.1644 34.8537 95.6155 34.9796 94.9911 34.9796C94.2861 34.9796 93.6416 34.7983 93.0574 34.4357C92.4733 34.0731 92.01 33.5645 91.6676 32.9099C91.3352 32.2452 91.1691 31.4848 91.1691 30.6287ZM97.7557 30.659C97.7557 30.1453 97.655 29.7072 97.4536 29.3446C97.2521 28.972 96.9802 28.69 96.6378 28.4986C96.2954 28.2972 95.9278 28.1965 95.535 28.1965C95.1422 28.1965 94.7796 28.2922 94.4473 28.4835C94.1149 28.6749 93.843 28.9569 93.6315 29.3295C93.4301 29.6921 93.3294 30.1252 93.3294 30.6287C93.3294 31.1323 93.4301 31.5754 93.6315 31.9582C93.843 32.3308 94.1149 32.6178 94.4473 32.8193C94.7897 33.0207 95.1523 33.1214 95.535 33.1214C95.9278 33.1214 96.2954 33.0257 96.6378 32.8344C96.9802 32.6329 97.2521 32.3509 97.4536 31.9884C97.655 31.6157 97.7557 31.1726 97.7557 30.659Z" fill="#283551"/>
<path d="M112.062 24.2989V26.006H107.666V28.7101H111.035V30.387H107.666V34.8436H105.551V24.2989H112.062Z" fill="#283551"/>
<path d="M114.635 25.4772C114.262 25.4772 113.95 25.3614 113.698 25.1298C113.456 24.8881 113.335 24.591 113.335 24.2385C113.335 23.886 113.456 23.5939 113.698 23.3623C113.95 23.1206 114.262 22.9997 114.635 22.9997C115.007 22.9997 115.314 23.1206 115.556 23.3623C115.808 23.5939 115.934 23.886 115.934 24.2385C115.934 24.591 115.808 24.8881 115.556 25.1298C115.314 25.3614 115.007 25.4772 114.635 25.4772ZM115.677 26.4743V34.8436H113.562V26.4743H115.677Z" fill="#283551"/>
<path d="M122.404 26.3535C123.402 26.3535 124.207 26.6707 124.822 27.3052C125.436 27.9296 125.743 28.8058 125.743 29.9338V34.8436H123.628V30.2208C123.628 29.5561 123.462 29.0475 123.13 28.695C122.797 28.3325 122.344 28.1512 121.77 28.1512C121.186 28.1512 120.723 28.3325 120.38 28.695C120.048 29.0475 119.882 29.5561 119.882 30.2208V34.8436H117.767V26.4743H119.882V27.5167C120.164 27.1541 120.521 26.8721 120.954 26.6707C121.397 26.4592 121.881 26.3535 122.404 26.3535Z" fill="#283551"/>
<path d="M127.21 30.6287C127.21 29.7827 127.377 29.0324 127.709 28.3778C128.051 27.7232 128.515 27.2196 129.099 26.8671C129.683 26.5146 130.333 26.3383 131.048 26.3383C131.592 26.3383 132.11 26.4592 132.604 26.7009C133.097 26.9326 133.49 27.2448 133.782 27.6375V23.6644H135.927V34.8436H133.782V33.6048C133.52 34.0177 133.153 34.3501 132.679 34.6019C132.206 34.8537 131.657 34.9796 131.033 34.9796C130.328 34.9796 129.683 34.7983 129.099 34.4357C128.515 34.0731 128.051 33.5645 127.709 32.9099C127.377 32.2452 127.21 31.4848 127.21 30.6287ZM133.797 30.659C133.797 30.1453 133.696 29.7072 133.495 29.3446C133.294 28.972 133.022 28.69 132.679 28.4986C132.337 28.2972 131.969 28.1965 131.576 28.1965C131.184 28.1965 130.821 28.2922 130.489 28.4835C130.156 28.6749 129.884 28.9569 129.673 29.3295C129.472 29.6921 129.371 30.1252 129.371 30.6287C129.371 31.1323 129.472 31.5754 129.673 31.9582C129.884 32.3308 130.156 32.6178 130.489 32.8193C130.831 33.0207 131.194 33.1214 131.576 33.1214C131.969 33.1214 132.337 33.0257 132.679 32.8344C133.022 32.6329 133.294 32.3509 133.495 31.9884C133.696 31.6157 133.797 31.1726 133.797 30.659Z" fill="#283551"/>
<path d="M145.773 30.4777C145.773 30.7798 145.753 31.0517 145.713 31.2934H139.594C139.645 31.8977 139.856 32.3711 140.229 32.7135C140.601 33.0559 141.06 33.2271 141.603 33.2271C142.389 33.2271 142.948 32.8898 143.28 32.215H145.562C145.32 33.0207 144.857 33.6854 144.172 34.2091C143.487 34.7227 142.646 34.9796 141.649 34.9796C140.843 34.9796 140.118 34.8033 139.473 34.4508C138.839 34.0882 138.34 33.5796 137.978 32.925C137.625 32.2704 137.449 31.515 137.449 30.659C137.449 29.7928 137.625 29.0324 137.978 28.3778C138.33 27.7232 138.824 27.2196 139.458 26.8671C140.093 26.5146 140.823 26.3383 141.649 26.3383C142.444 26.3383 143.154 26.5096 143.779 26.852C144.413 27.1944 144.902 27.6829 145.244 28.3174C145.597 28.9418 145.773 29.6619 145.773 30.4777ZM143.582 29.8734C143.572 29.3295 143.376 28.8965 142.993 28.5742C142.611 28.2418 142.142 28.0757 141.588 28.0757C141.065 28.0757 140.622 28.2368 140.259 28.5591C139.906 28.8713 139.69 29.3094 139.609 29.8734H143.582Z" fill="#283551"/>
<path d="M149.432 27.7735C149.704 27.3304 150.056 26.9829 150.489 26.7311C150.932 26.4793 151.436 26.3535 152 26.3535V28.5742H151.441C150.776 28.5742 150.273 28.7303 149.93 29.0425C149.598 29.3547 149.432 29.8986 149.432 30.6741V34.8436H147.317V26.4743H149.432V27.7735Z" fill="#283551"/>
<path fill-rule="evenodd" clip-rule="evenodd" d="M33.3814 16.8028C32.2984 17.8818 32.8694 18.8519 35.5991 20.5698C38.6284 22.4756 42.2533 26.0633 43.4185 28.3085C44.6256 30.6339 44.4809 32.7512 43.0108 34.2803C41.2754 36.0845 38.5182 37.0678 36.2084 36.7062C33.6273 36.3016 30.0631 33.826 28.5602 31.3933C26.4808 28.0279 25.9848 27.462 24.8729 27.1839C23.0953 26.7394 21.5253 27.7292 20.0143 30.246C19.2396 31.5362 18.4611 32.5916 18.2837 32.5916C18.1063 32.5916 17.7153 31.1324 17.4143 29.3493C16.8893 26.2357 14.6506 21.0306 13.7024 20.7187C13.4276 20.6286 13.3217 22.2465 13.41 25.1902C13.4914 27.9159 13.2739 31.6155 12.8778 34.234C12.2818 38.1756 12.2792 38.8025 12.8519 39.906C14.5459 43.1706 17.7889 42.6343 22.5627 38.3005L23.6724 37.2935L24.5004 38.216C26.9218 40.9125 31.9996 42.8908 36.4848 42.8844C40.086 42.8797 42.9432 41.7474 45.7667 39.2054C50.7553 34.715 50.5069 29.0057 45.0678 23.1526L42.7761 20.686L48.9089 20.4702C52.2814 20.351 56.107 19.991 57.4096 19.6696C59.7345 19.0956 59.6285 19.0801 51.5963 18.8115C44.0391 18.5588 40.4736 18.0869 35.882 16.732C34.0071 16.1785 34.0079 16.1785 33.3814 16.8028Z" fill="white"/>
</svg>
